<svg width="60" height="60" viewBox="0 0 60 60" fill="none" xmlns="http://www.w3.org/2000/svg">
<path d="M59.1998 20.4998C58.6998 20.1998 58.0998 20.2998 57.7998 20.7998L56.4998 22.7998C53.6998 11.7998 44.1998 3.49979 32.6998 2.19979C25.3998 1.39979 18.0998 3.49979 12.3998 8.09979C6.59978 12.6998 2.99979 19.2998 2.19979 26.5998C1.39979 33.8998 3.49979 41.1998 8.09979 46.8998C12.6998 52.6998 19.2998 56.2998 26.5998 57.0998C27.5998 57.1998 28.6998 57.2998 29.6998 57.2998C33.6998 57.2998 37.6998 56.3998 41.3998 54.6998C41.8998 54.4998 42.0998 53.8998 41.8998 53.3998C41.6998 52.8998 41.0998 52.6998 40.5998 52.8998C36.2998 54.8998 31.5998 55.6998 26.8998 55.0998C19.9998 54.3998 13.8998 50.9998 9.59979 45.6998C5.29979 40.2998 3.39979 33.5998 4.09979 26.7998C4.79979 19.9998 8.19979 13.8998 13.5998 9.59979C18.9998 5.29979 25.6998 3.39979 32.4998 4.19979C43.0998 5.39979 51.8998 13.0998 54.4998 23.2998L52.4998 21.9998C51.9998 21.6998 51.3998 21.7998 51.0998 22.2998C50.7998 22.7998 50.8998 23.3998 51.3998 23.6998L55.1998 26.1998C55.3998 26.2998 55.6998 26.3998 55.8998 26.3998C56.2998 26.3998 56.7998 26.1998 56.9998 25.7998L59.4998 21.9998C59.7998 21.3998 59.6998 20.7998 59.1998 20.4998Z" fill="#32D989"/>
<path d="M40.4992 26.7996H38.4992V22.4996C38.4992 18.0996 34.9992 14.5996 30.5992 14.5996C26.1992 14.5996 22.6992 18.0996 22.6992 22.4996V26.7996H20.6992C17.8992 26.7996 15.6992 28.9996 15.6992 31.7996V39.5996C15.6992 42.3996 17.8992 44.5996 20.6992 44.5996H40.4992C43.2992 44.5996 45.4992 42.3996 45.4992 39.5996V31.7996C45.4992 28.9996 43.2992 26.7996 40.4992 26.7996ZM24.6992 22.3996C24.6992 19.0996 27.3992 16.4996 30.5992 16.4996C33.7992 16.4996 36.4992 19.1996 36.4992 22.3996V26.6996H24.6992V22.3996ZM43.4992 39.4996C43.4992 41.1996 42.1992 42.4996 40.4992 42.4996H20.6992C18.9992 42.4996 17.6992 41.1996 17.6992 39.4996V31.6996C17.6992 29.9996 18.9992 28.6996 20.6992 28.6996H40.4992C42.1992 28.6996 43.4992 29.9996 43.4992 31.6996V39.4996Z" fill="#32D989"/>
<path d="M30.5 33.6997C29.4 33.6997 28.5 34.5997 28.5 35.6997C28.5 36.3997 28.9 37.0997 29.5 37.3997V38.5997C29.5 39.1997 29.9 39.5997 30.5 39.5997C31.1 39.5997 31.5 39.1997 31.5 38.5997V37.3997C32.1 37.0997 32.5 36.3997 32.5 35.6997C32.5 34.5997 31.6 33.6997 30.5 33.6997Z" fill="#32D989"/>
</svg>
