<svg width="371" height="564" viewBox="0 0 371 564" fill="none" xmlns="http://www.w3.org/2000/svg">
<g filter="url(#filter0_ddd_1298_8876)">
<rect width="298" height="158" rx="8" transform="matrix(0.898794 0.438371 -0.438372 0.898794 49.3457 199.422)" fill="url(#paint0_linear_1298_8876)"/>
</g>
<path d="M144.071 279.303L143.292 280.899L139.194 278.9L132.639 292.339L130.676 291.382L137.231 277.943L133.11 275.933L133.889 274.337L144.071 279.303ZM153.043 294.413C152.861 294.787 152.646 295.172 152.4 295.568L142.951 290.96C142.455 292.16 142.405 293.266 142.802 294.278C143.22 295.283 143.946 296.038 144.982 296.543C145.83 296.957 146.629 297.106 147.38 296.992C148.151 296.87 148.813 296.534 149.366 295.985L151.48 297.016C150.61 297.997 149.524 298.616 148.225 298.872C146.932 299.114 145.581 298.891 144.171 298.204C143.05 297.657 142.166 296.914 141.52 295.976C140.888 295.045 140.545 293.996 140.49 292.831C140.443 291.65 140.717 290.449 141.314 289.227C141.91 288.004 142.677 287.052 143.615 286.37C144.552 285.688 145.579 285.317 146.695 285.256C147.832 285.187 148.976 285.434 150.126 285.995C151.248 286.542 152.121 287.27 152.745 288.18C153.37 289.09 153.702 290.088 153.741 291.176C153.802 292.256 153.569 293.335 153.043 294.413ZM151.215 293.015C151.58 292.267 151.727 291.546 151.655 290.853C151.591 290.145 151.338 289.514 150.896 288.96C150.476 288.399 149.92 287.95 149.23 287.614C148.238 287.13 147.235 287.032 146.222 287.321C145.223 287.617 144.399 288.302 143.752 289.374L151.215 293.015ZM159.322 293.097C159.997 292.589 160.742 292.303 161.557 292.238C162.387 292.179 163.262 292.375 164.182 292.824L163.193 294.851L162.675 294.599C160.475 293.526 158.793 294.183 157.629 296.57L154.493 302.998L152.53 302.041L158.296 290.22L160.259 291.177L159.322 293.097ZM180.663 300.862C181.584 301.311 182.309 301.905 182.838 302.644C183.375 303.368 183.666 304.213 183.711 305.179C183.757 306.145 183.513 307.174 182.98 308.267L179.581 315.234L177.64 314.287L180.902 307.6C181.477 306.421 181.62 305.379 181.332 304.473C181.066 303.559 180.436 302.861 179.444 302.377C178.423 301.879 177.449 301.813 176.522 302.18C175.603 302.533 174.841 303.327 174.238 304.564L171.061 311.078L169.12 310.132L172.381 303.445C172.956 302.265 173.1 301.223 172.812 300.317C172.545 299.404 171.916 298.705 170.923 298.221C169.902 297.723 168.929 297.657 168.002 298.024C167.082 298.377 166.321 299.172 165.718 300.408L162.54 306.923L160.577 305.965L166.343 294.144L168.306 295.102L167.475 296.806C168.165 296.377 168.914 296.155 169.722 296.14C170.545 296.132 171.352 296.32 172.143 296.706C173.135 297.19 173.904 297.841 174.448 298.658C174.993 299.476 175.242 300.407 175.195 301.453C175.933 300.78 176.795 300.399 177.781 300.311C178.768 300.222 179.729 300.406 180.663 300.862ZM192.55 301.8L184.764 317.762L182.801 316.805L190.587 300.842L192.55 301.8ZM204.057 312.539L188.459 326.453L186.431 325.464L191.538 320.906L192.473 306.889L194.652 307.952L193.691 319.339L202.029 311.55L204.057 312.539Z" fill="#8770FF"/>
<path d="M186.982 380.086L173.774 395.914L172.318 395.204L185.509 379.368L186.982 380.086ZM196.807 392.568C197.497 392.905 198.041 393.35 198.438 393.904C198.84 394.448 199.059 395.081 199.093 395.806C199.127 396.53 198.944 397.302 198.544 398.121L195.995 403.347L194.539 402.637L196.985 397.622C197.417 396.737 197.524 395.955 197.308 395.276C197.108 394.591 196.636 394.067 195.892 393.704C195.126 393.33 194.396 393.281 193.701 393.556C193.011 393.821 192.44 394.417 191.988 395.344L189.605 400.23L188.149 399.52L190.595 394.505C191.026 393.62 191.134 392.838 190.918 392.159C190.718 391.474 190.246 390.95 189.502 390.587C188.736 390.214 188.006 390.164 187.311 390.44C186.621 390.704 186.05 391.3 185.597 392.228L183.214 397.113L181.742 396.395L186.066 387.53L187.538 388.248L186.915 389.526C187.433 389.204 187.994 389.038 188.601 389.026C189.218 389.02 189.823 389.162 190.416 389.451C191.16 389.814 191.737 390.302 192.145 390.915C192.554 391.528 192.741 392.227 192.705 393.011C193.259 392.506 193.905 392.221 194.645 392.154C195.385 392.088 196.106 392.226 196.807 392.568ZM202.206 406.556C201.375 406.151 200.712 405.594 200.217 404.885C199.732 404.182 199.464 403.39 199.413 402.511C199.377 401.625 199.583 400.724 200.03 399.808C200.472 398.902 201.055 398.198 201.78 397.697C202.521 397.191 203.321 396.92 204.179 396.885C205.043 396.839 205.895 397.021 206.737 397.431C207.578 397.841 208.246 398.401 208.742 399.11C209.242 399.808 209.518 400.597 209.57 401.476C209.632 402.361 209.44 403.262 208.993 404.179C208.546 405.096 207.946 405.805 207.195 406.306C206.459 406.802 205.654 407.07 204.779 407.111C203.905 407.151 203.047 406.967 202.206 406.556ZM202.837 405.262C203.366 405.52 203.922 405.638 204.507 405.616C205.092 405.594 205.645 405.403 206.168 405.044C206.701 404.69 207.141 404.157 207.488 403.445C207.836 402.733 207.99 402.061 207.951 401.428C207.913 400.795 207.725 400.25 207.388 399.791C207.056 399.322 206.626 398.959 206.097 398.701C205.558 398.438 205.001 398.32 204.427 398.347C203.869 398.369 203.335 398.562 202.823 398.927C202.311 399.291 201.882 399.83 201.535 400.541C201.182 401.264 201.014 401.937 201.031 402.559C201.059 403.187 201.233 403.732 201.555 404.196C201.881 404.649 202.309 405.004 202.837 405.262ZM217.481 402.651C218.56 403.177 219.273 403.933 219.621 404.917C219.974 405.89 219.851 406.991 219.251 408.221L216.702 413.446L215.246 412.736L217.692 407.721C218.124 406.837 218.231 406.055 218.015 405.375C217.805 404.685 217.316 404.153 216.551 403.78C215.774 403.401 215.035 403.341 214.335 403.6C213.645 403.865 213.074 404.461 212.622 405.388L210.231 410.29L208.759 409.572L213.083 400.706L214.555 401.424L213.94 402.686C214.452 402.375 215.016 402.217 215.633 402.211C216.261 402.21 216.877 402.357 217.481 402.651ZM224.635 407.843L222.087 413.068C221.876 413.5 221.818 413.852 221.912 414.125C222.011 414.387 222.287 414.628 222.74 414.849L223.824 415.378L223.216 416.624L221.89 415.977C221.07 415.577 220.547 415.088 220.322 414.511C220.096 413.933 220.193 413.213 220.614 412.35L223.163 407.125L222.014 406.565L222.606 405.351L223.755 405.911L224.844 403.679L226.316 404.397L225.227 406.629L227.541 407.758L226.949 408.971L224.635 407.843ZM233.804 410.612C234.472 410.938 235.005 411.379 235.403 411.933C235.805 412.476 236.018 413.107 236.041 413.826C236.075 414.551 235.892 415.323 235.492 416.142L232.944 421.368L231.488 420.658L233.934 415.642C234.365 414.758 234.473 413.976 234.257 413.297C234.046 412.606 233.558 412.075 232.792 411.701C232.016 411.322 231.277 411.262 230.577 411.522C229.887 411.786 229.316 412.382 228.863 413.31L226.472 418.212L225 417.494L230.839 405.522L232.312 406.24L230.181 410.608C230.693 410.297 231.263 410.141 231.891 410.14C232.53 410.145 233.167 410.302 233.804 410.612Z" fill="#B6BFD9"/>
<path d="M94.1626 319.004C96.1436 319.97 98.0451 320.348 99.8671 320.138C101.712 319.938 103.359 319.22 104.808 317.982L107.609 319.348C105.61 321.191 103.349 322.273 100.826 322.593C98.3254 322.923 95.7544 322.444 93.1132 321.156C90.4264 319.846 88.4362 317.945 87.1427 315.454C85.8831 312.951 85.5108 310.247 86.026 307.341L82.474 305.609L83.3069 303.901L86.4832 305.45C86.692 304.791 86.9852 304.074 87.3627 303.3C87.6626 302.685 87.9855 302.11 88.3314 301.574L85.1892 300.041L86.0222 298.334L89.5059 300.033C90.7825 298.513 92.278 297.354 93.9922 296.556C95.7293 295.768 97.5327 295.393 99.4026 295.432C101.306 295.458 103.169 295.916 104.99 296.804C107.632 298.092 109.598 299.84 110.888 302.048C112.19 304.234 112.713 306.687 112.457 309.409L109.656 308.043C109.75 306.116 109.308 304.364 108.329 302.787C107.385 301.199 105.922 299.922 103.941 298.956C101.846 297.934 99.7245 297.632 97.5759 298.05C95.4385 298.445 93.5795 299.511 91.9991 301.249L100.777 305.53L99.9439 307.238L90.7905 302.773C90.4446 303.309 90.1217 303.885 89.8218 304.499C89.4998 305.16 89.218 305.882 88.9765 306.666L98.0615 311.097L97.2286 312.805L88.5534 308.574C88.247 310.82 88.5845 312.873 89.5659 314.733C90.5811 316.581 92.1134 318.005 94.1626 319.004Z" fill="#1D212A"/>
<path d="M95.721 362.272C106.563 360.19 115.288 357.85 121.896 355.252C128.567 352.631 133.008 349.056 135.218 344.526C136.669 341.549 137.072 338.808 136.424 336.303C135.841 333.776 133.867 331.691 130.502 330.05C127.223 328.451 124.173 328.245 121.351 329.432C118.593 330.597 116.275 332.831 114.397 336.134L109.997 333.987C112.591 329.325 115.868 326.33 119.826 325.003C123.849 323.654 128.039 324.042 132.396 326.167C136.581 328.208 139.389 331.046 140.82 334.682C142.272 338.274 141.946 342.227 139.842 346.541C137.296 351.762 132.645 355.768 125.889 358.561C119.197 361.332 111.544 363.501 102.929 365.067L126.873 376.745L125.011 380.563L94.1429 365.508L95.721 362.272ZM143.971 374.91C143.078 377.946 143.104 380.629 144.05 382.96C144.996 385.291 146.936 387.171 149.87 388.602C153.925 390.58 157.692 390.468 161.169 388.265C164.711 386.041 168.184 381.219 171.588 373.801C169.611 375.774 167.121 376.883 164.118 377.127C161.18 377.349 158.222 376.734 155.245 375.282C150.715 373.073 147.732 369.936 146.297 365.871C144.905 361.828 145.387 357.39 147.743 352.558C149.153 349.667 150.987 347.331 153.245 345.548C155.503 343.766 158.101 342.763 161.04 342.541C163.979 342.319 167.109 343.018 170.431 344.638C176.557 347.626 179.85 351.715 180.309 356.906C180.789 362.053 179.209 368.359 175.569 375.822C171.634 383.89 167.47 389.362 163.076 392.239C158.725 395.137 153.638 395.166 147.814 392.325C143.543 390.242 140.778 387.479 139.521 384.035C138.284 380.548 138.365 376.823 139.765 372.859L143.971 374.91ZM157.851 371.747C159.878 372.736 161.933 373.231 164.016 373.232C166.162 373.21 168.153 372.633 169.988 371.498C171.823 370.364 173.298 368.653 174.413 366.367C176.139 362.829 176.545 359.423 175.633 356.147C174.763 352.893 172.452 350.35 168.699 348.519C165.377 346.899 162.197 346.63 159.159 347.712C156.165 348.815 153.826 351.092 152.142 354.543C150.375 358.167 149.978 361.499 150.953 364.537C151.927 367.576 154.227 369.979 157.851 371.747Z" fill="#1D212A"/>
<g opacity="0.7" clip-path="url(#clip0_1298_8876)">
<path d="M235.076 380.165C235.076 380.165 237.048 380.117 235.234 379.965C234.682 379.847 233.886 379.794 232.624 379.76C233.862 379.906 234.855 380.118 235.076 380.165Z" fill="#32D989"/>
<path d="M258.273 377.97L258.162 377.947C257.02 377.352 255.743 376.847 254.332 376.429C252.172 375.735 249.744 375.218 246.717 374.807C241.127 373.968 235.662 373.623 232.011 373.43C228.36 373.237 224.552 373.245 220.522 373.205C217.62 373.289 215.893 373.272 215.893 373.272L215.782 373.249C215.562 373.202 215.317 373.267 214.986 373.196C214.521 373.214 213.835 373.185 212.794 373.197C210.625 373.086 206.864 372.87 201.975 372.531L191.157 371.864C186.378 371.548 180.669 371.268 174.763 370.829C171.578 370.619 168.747 370.367 166.027 370.138L163.393 370.045C164.112 369.38 164.854 368.602 165.486 367.801C166.592 366.399 167.281 364.791 167.773 363.024C167.868 362.576 167.963 362.129 168.035 361.793C168.059 361.681 168.106 361.457 168.02 361.322C168.067 361.098 168.028 360.739 167.966 360.492C167.936 359.55 167.771 358.696 167.473 357.93C166.9 356.288 165.924 354.91 164.57 353.686C163.302 352.597 161.679 351.55 159.787 350.679L158.842 350.243L158.093 349.967C157.565 349.738 157.037 349.508 156.596 349.414C155.626 349.091 154.657 348.767 153.577 348.42C151.859 347.82 150.117 347.332 148.02 346.886C147.799 346.839 147.578 346.792 147.357 346.745C146.143 346.486 145.481 346.345 145.481 346.345C145.371 346.322 145.26 346.298 145.26 346.298C142.612 345.734 140.27 345.352 138.37 345.065C132.804 344.113 129.201 343.697 129.201 343.697C116.673 341.847 97.6844 341.079 84.0026 340.855C75.9671 340.664 68.9249 340.685 64.3195 340.64C59.2251 340.725 56.2125 340.785 56.2125 340.785C56.2125 340.785 59.0909 340.813 63.9408 340.793C70.6281 340.814 77.5122 340.993 84.2861 341.149C94.7108 341.498 104.095 341.859 112.831 342.55C123.161 343.346 134.262 344.307 145.26 346.298C145.481 346.345 145.702 346.392 145.923 346.439C146.364 346.533 146.916 346.651 147.357 346.745C147.909 346.862 148.571 347.003 149.344 347.168L149.565 347.215C150.779 347.473 152.19 347.891 153.932 348.379C154.901 348.702 155.76 349.002 156.84 349.349C157.258 349.555 157.81 349.673 158.448 349.926C158.558 349.949 158.669 349.973 158.669 349.973C158.889 350.02 159.086 350.179 159.197 350.202C159.504 350.385 159.922 350.59 160.253 350.661L160.363 350.684C163.704 352.332 167.776 355.422 167.927 360.133C168.044 361.21 167.829 362.217 167.457 363.425C167.084 364.632 166.515 365.68 165.969 366.617C165.265 367.754 164.341 368.844 163.22 369.775L162.423 369.722C163.276 368.968 164.129 368.214 164.761 367.412C165.551 366.411 166.231 365.386 166.604 364.179C167.063 363.107 167.325 361.876 167.453 360.733C167.47 359.567 167.243 358.466 166.772 357.43C165.939 355.381 164.215 353.727 162.174 352.474C161.67 352.132 161.142 351.903 160.638 351.562C160.441 351.403 160.11 351.332 159.802 351.15L159.078 350.762C158.463 350.397 157.69 350.232 157.076 349.867C152.055 347.979 147.751 347.063 144.109 346.287C140.467 345.511 137.684 345.036 135.673 344.724C133.663 344.413 132.67 344.202 132.67 344.202C122.594 342.757 113.833 342.178 107.659 341.916C101.374 341.631 97.6756 341.662 97.6756 341.662C79.1677 341.346 69.113 341.427 63.6636 341.553C58.2142 341.679 57.394 341.739 57.394 341.739L56.965 343.753L58.1527 345.76L58.5979 348.545C58.4348 352.02 59.6839 349.947 59.6839 349.947C73.5088 349.499 86.9071 349.428 99.548 349.664C112.165 350.011 124.135 350.689 135.386 352.032C141 352.76 146.369 353.553 151.398 354.858C152.699 355.252 153.913 355.51 155.079 355.993C155.718 356.246 156.269 356.363 156.884 356.728C157.412 356.957 157.94 357.187 158.468 357.416C159.39 357.963 160.422 358.534 161.138 359.505C161.508 359.935 161.61 360.542 161.601 361.125C161.553 361.348 161.482 361.684 161.434 361.908L161.157 362.668C160.698 363.74 160.066 364.541 159.213 365.295C158.36 366.049 157.444 366.556 156.308 367.016C155.795 367.257 155.196 367.364 154.683 367.605C154.194 367.735 153.594 367.841 152.971 368.06C151.834 368.519 150.847 369.362 150.254 370.522C150.025 371.058 149.858 371.842 150.18 372.495C150.392 373.125 150.872 373.578 151.4 373.808C152.409 374.49 153.512 374.725 154.482 375.049C156.555 375.607 158.723 375.718 160.758 375.918C168.895 376.715 176.086 377.077 182.434 377.61C188.695 378.007 194.135 378.464 198.472 378.686C207.209 379.377 211.853 379.781 211.853 379.781C212.208 379.74 212.539 379.81 212.894 379.769C220.473 379.395 225.654 379.445 229.194 379.614C230.677 379.696 231.939 379.731 232.845 379.807C230.945 379.519 228.335 379.314 225.615 379.086C223.115 378.905 220.592 378.835 218.889 378.706C220.261 378.765 221.743 378.846 223.115 378.905C226.814 378.874 230.599 378.978 234.25 379.17C231.995 378.924 229.606 378.766 227.327 378.632C229.299 378.584 233.99 378.764 238.193 379.074C242.396 379.385 246.062 380.048 246.062 380.048C244.32 379.561 239.992 378.756 233.975 378.293C228.069 377.854 220.523 377.534 212.795 377.525C200.652 376.577 187.247 375.594 177.052 374.709C171.966 374.211 167.653 373.877 164.602 373.578C161.55 373.279 159.761 373.015 159.761 373.015C160.691 372.979 162.749 373.067 165.825 373.254C166.266 373.348 166.731 373.33 167.283 373.447C170.666 373.817 175.089 374.174 179.647 374.443C184.646 374.806 190.331 375.198 196.016 375.59C201.26 375.888 206.48 376.297 211.258 376.613L212.741 376.695C213.317 376.701 213.782 376.683 214.358 376.688L215.509 376.7C216.439 376.664 217.37 376.628 218.277 376.704C220.114 376.745 221.841 376.762 223.568 376.779C226.667 376.854 229.766 376.929 232.731 377.092C239.016 377.378 242.926 377.977 244.827 378.265C243.037 378.001 238.992 377.49 232.731 377.092C229.766 376.929 226.667 376.854 223.568 376.779C221.841 376.762 220.114 376.745 218.277 376.704C217.346 376.74 216.416 376.776 215.509 376.7L214.358 376.688C213.782 376.683 213.317 376.701 212.741 376.695L211.258 376.613C206.37 376.274 201.126 375.976 196.016 375.59C190.331 375.198 184.646 374.806 179.647 374.443C175.113 374.062 170.69 373.705 167.283 373.447C166.952 373.377 166.597 373.418 166.377 373.371C169.807 373.517 174.12 373.851 179.143 374.101C189.055 374.692 201.245 375.417 212.884 376.024C214.146 376.058 215.321 375.958 216.582 375.993C217.844 376.027 219.13 375.95 220.281 375.962C222.694 376.008 225.131 375.942 227.41 376.076C231.991 376.233 236.218 376.431 239.735 376.712C243.251 376.993 246.279 377.404 248.289 377.716C250.3 378.027 251.514 378.285 251.514 378.285C250.127 377.756 245.16 376.698 238.151 376.024C234.634 375.743 230.652 375.48 226.425 375.282C224.257 375.171 222.064 375.172 219.762 375.149C218.61 375.138 217.459 375.127 216.308 375.115C215.156 375.104 214.116 375.116 212.964 375.105C206.593 374.684 200.001 374.216 193.654 373.683C187.282 373.262 181.266 372.799 175.96 372.254C170.74 371.844 166.34 371.375 163.178 371.052C162.958 371.005 162.737 370.958 162.492 371.023C162.627 370.935 162.627 370.935 162.761 370.846C163.336 370.852 163.999 370.993 164.685 371.022C167.981 371.256 172.404 371.614 177.514 372C182.623 372.386 188.419 372.802 194.569 373.176C200.609 373.527 206.87 373.924 212.91 374.275C214.196 374.198 215.568 374.256 216.853 374.179C218.225 374.237 219.511 374.16 220.883 374.218C223.541 374.199 226.064 374.269 228.587 374.338C233.524 374.454 238.082 374.723 242.016 375.21C245.864 375.561 249.088 376.131 251.406 376.625C253.724 377.118 255.024 377.512 255.024 377.512C254.165 377.212 252.337 376.589 249.908 376.072C247.48 375.555 244.342 375.12 240.605 374.792C236.868 374.464 232.665 374.154 227.949 374.085C225.646 374.063 223.233 374.017 220.71 373.947C219.448 373.913 218.163 373.99 216.901 373.955C215.639 373.92 214.354 373.997 213.068 374.074C207.383 373.682 201.343 373.332 195.169 373.07C188.908 372.672 182.537 372.251 176.055 371.806C172.869 371.596 169.708 371.273 166.522 371.063C165.395 370.94 164.267 370.816 163.14 370.693C163.408 370.516 163.566 370.316 163.834 370.139L166.31 370.433C168.92 370.638 171.861 370.913 175.047 371.124C181.063 371.586 186.772 371.866 191.44 372.159L202.259 372.825C207.147 373.164 210.909 373.381 213.077 373.491C214.118 373.479 214.828 373.396 215.269 373.49C215.624 373.449 215.845 373.496 216.066 373.543L216.176 373.567C216.176 373.567 217.903 373.584 220.805 373.5C224.725 373.516 228.644 373.532 232.295 373.724C235.946 373.917 241.41 374.262 247 375.102C250.004 375.624 252.432 376.141 254.615 376.723C256.026 377.141 257.303 377.647 258.446 378.241L258.273 377.97C259.612 378.723 260.951 379.476 262.321 381.172C260.951 379.476 259.502 378.7 258.273 377.97ZM112.831 342.55C104.071 341.971 94.7108 341.498 84.2861 341.149C77.5122 340.993 70.6281 340.814 63.9408 340.793C61.0624 340.765 58.8701 340.766 57.5846 340.843C58.9805 340.79 61.307 340.7 64.2957 340.752C68.8145 340.662 75.9671 340.664 83.8922 340.832C97.5741 341.055 116.538 341.936 129.09 343.673C129.09 343.673 132.804 344.113 138.26 345.041C140.049 345.305 142.146 345.752 144.488 346.134C133.821 344.213 122.94 343.299 112.831 342.55ZM166.032 366.864C166.688 365.951 167.147 364.879 167.519 363.672C167.868 362.576 167.996 361.434 167.99 360.38C167.977 358.272 167.121 356.335 165.506 354.704C164.31 353.28 162.49 352.073 160.402 351.044L160.292 351.02C159.984 350.838 159.567 350.632 159.236 350.561C159.015 350.514 158.818 350.355 158.708 350.332C158.597 350.308 158.487 350.285 158.487 350.285C157.848 350.032 157.32 349.803 156.879 349.708C155.91 349.385 154.94 349.062 153.971 348.738C153.639 348.668 153.419 348.621 153.222 348.462C153.443 348.509 153.553 348.532 153.774 348.579C154.743 348.903 155.823 349.25 156.792 349.573C157.21 349.779 157.762 349.897 158.29 350.126L159.039 350.402L159.984 350.838C161.876 351.708 163.388 352.732 164.766 353.845C166.121 355.069 167.183 356.582 167.67 358.089C167.968 358.855 168.133 359.708 168.163 360.651C168.225 360.898 168.154 361.234 168.217 361.481C168.193 361.593 168.145 361.817 168.232 361.952C168.27 362.311 168.175 362.759 167.969 363.183C167.478 364.95 166.679 366.534 165.683 367.96C165.051 368.761 164.308 369.538 163.59 370.204L163.479 370.181C164.404 369.091 165.304 368.113 166.032 366.864ZM150.865 347.609C150.976 347.632 151.086 347.656 151.196 347.679C150.976 347.632 150.865 347.609 150.865 347.609ZM163.259 370.134C162.99 370.311 162.722 370.487 162.43 370.776C162.099 370.705 161.854 370.77 161.523 370.7C161.657 370.611 161.791 370.523 161.925 370.435C162.06 370.346 162.218 370.146 162.352 370.058L163.259 370.134ZM161.144 370.853L161.278 370.765C161.609 370.835 161.854 370.77 162.185 370.841C162.161 370.953 162.051 370.929 162.027 371.041C161.806 370.994 161.475 370.924 161.144 370.853ZM162.272 370.976C162.161 370.953 162.161 370.953 162.272 370.976C162.272 370.976 162.295 370.864 162.43 370.776L162.54 370.799C162.406 370.888 162.272 370.976 162.272 370.976ZM162.674 370.711L162.564 370.688C162.832 370.511 163.101 370.334 163.393 370.045L163.503 370.069C163.101 370.334 162.832 370.511 162.674 370.711Z" fill="#32D989"/>
<path d="M222.331 380.96C221.07 380.925 219.674 380.979 217.971 380.85C217.505 380.868 216.93 380.863 216.464 380.88L215.423 380.893C214.493 380.928 213.562 380.964 212.521 380.976L191.484 379.537C182.392 378.888 174.917 378.232 168.57 377.698C164.943 377.394 161.56 377.024 158.422 376.59C157.184 376.443 155.505 376.203 153.984 375.762C152.573 375.344 151.162 374.927 150.115 373.885C149.548 373.296 149.139 372.507 149.195 371.701C149.252 370.894 149.616 370.27 149.821 369.845C150.343 369.021 151.038 368.467 151.953 367.96C152.601 367.63 153.2 367.524 153.555 367.482C153.91 367.441 154.044 367.353 154.044 367.353C154.044 367.353 153.91 367.441 153.555 367.482C153.2 367.524 152.577 367.742 151.953 367.96C151.062 368.355 150.343 369.021 149.821 369.845C149.481 370.358 149.141 370.87 149.195 371.701C149.139 372.507 149.548 373.296 150.115 373.885C151.162 374.927 152.462 375.321 153.984 375.762C154.425 375.856 154.867 375.95 155.418 376.067C156.522 376.302 157.65 376.426 158.533 376.614C161.671 377.048 165.053 377.417 168.68 377.722C175.028 378.255 182.502 378.911 191.594 379.561L212.632 381C213.672 380.988 214.603 380.952 215.534 380.916L216.575 380.904C217.04 380.886 217.616 380.892 218.081 380.874C219.698 380.867 221.07 380.925 222.331 380.96C224.744 381.006 226.448 381.135 227.244 381.188C226.582 381.047 224.855 381.03 222.331 380.96Z" fill="#32D989"/>
</g>
<g filter="url(#filter1_ddd_1298_8876)">
<rect x="-79" y="165" width="298" height="158" rx="8" transform="rotate(-30 -79 165)" fill="url(#paint1_linear_1298_8876)"/>
</g>
<path d="M30.415 154.049L35.4865 151.121L36.3745 152.659L29.4116 156.679L21.0476 142.192L22.939 141.1L30.415 154.049ZM41.9084 134.277L48.4844 145.667L46.593 146.759L45.621 145.076C45.5968 145.866 45.355 146.615 44.8957 147.324C44.4423 148.01 43.8277 148.578 43.0517 149.026C42.1649 149.538 41.2642 149.818 40.3495 149.865C39.4268 149.899 38.5456 149.669 37.7059 149.175C36.8801 148.672 36.1632 147.894 35.5552 146.841L31.7032 140.17L33.5738 139.09L37.2818 145.512C37.9298 146.634 38.7138 147.336 39.634 147.618C40.5461 147.886 41.494 147.736 42.4778 147.168C43.4894 146.584 44.1061 145.812 44.3281 144.852C44.55 143.893 44.317 142.817 43.629 141.626L40.017 135.369L41.9084 134.277ZM48.2173 133.462C48.2133 132.559 48.4614 131.677 48.9617 130.815C49.4619 129.953 50.1901 129.247 51.1462 128.695C52.1716 128.103 53.233 127.813 54.3305 127.826C55.4281 127.839 56.4684 128.153 57.4515 128.768C58.4266 129.369 59.2502 130.251 59.9222 131.415C60.5862 132.565 60.9426 133.727 60.9915 134.899C61.0404 136.072 60.7931 137.148 60.2498 138.127C59.7202 139.097 58.9497 139.875 57.9382 140.459C56.9544 141.027 55.9644 141.312 54.9681 141.314C53.9857 141.309 53.1155 141.082 52.3573 140.632L53.5693 142.732L51.6779 143.824L42.7979 128.443L44.6893 127.351L48.2173 133.462ZM57.9892 132.531C57.4932 131.672 56.888 131.024 56.1736 130.586C55.4592 130.149 54.7081 129.936 53.9202 129.947C53.1463 129.951 52.406 130.157 51.6993 130.565C51.0065 130.965 50.4621 131.51 50.0663 132.2C49.6763 132.869 49.4892 133.633 49.505 134.492C49.5265 135.329 49.7813 136.171 50.2693 137.016C50.7653 137.875 51.3745 138.53 52.097 138.981C52.8252 139.411 53.5803 139.631 54.3623 139.641C55.1501 139.63 55.8905 139.424 56.5833 139.024C57.29 138.616 57.8383 138.078 58.2282 137.409C58.6241 136.719 58.8112 135.955 58.7896 135.117C58.76 134.266 58.4932 133.404 57.9892 132.531ZM72.5761 123.583C72.7841 123.943 72.9833 124.336 73.1737 124.762L64.0701 130.018C64.7874 131.1 65.6764 131.76 66.7372 131.998C67.8039 132.213 68.8361 132.033 69.8337 131.457C70.6513 130.985 71.2222 130.406 71.5466 129.72C71.8769 129.012 71.9689 128.275 71.8226 127.51L73.8595 126.334C74.1866 127.604 74.0929 128.85 73.5784 130.071C73.0559 131.278 72.1157 132.273 70.7577 133.057C69.6769 133.681 68.567 133.999 67.4279 134.01C66.3027 134.013 65.2415 133.711 64.2446 133.104C63.2396 132.484 62.3971 131.584 61.7171 130.407C61.0371 129.229 60.6767 128.06 60.6358 126.902C60.5949 125.743 60.8611 124.684 61.4343 123.725C62.0134 122.744 62.8572 121.933 63.9657 121.293C65.0465 120.669 66.1386 120.353 67.242 120.344C68.3454 120.335 69.3588 120.618 70.2822 121.194C71.2115 121.747 71.9761 122.544 72.5761 123.583ZM70.3943 124.316C69.9783 123.595 69.463 123.071 68.8483 122.742C68.2256 122.4 67.5611 122.257 66.8549 122.313C66.1545 122.348 65.4717 122.558 64.8066 122.942C63.8505 123.494 63.209 124.271 62.882 125.272C62.5689 126.266 62.6759 127.331 63.2029 128.468L70.3943 124.316ZM77.4662 113.471C78.8518 112.671 80.2182 112.446 81.5653 112.795C82.9044 113.13 84.0299 114.088 84.9419 115.667L88.8179 122.381L86.9473 123.461L83.2273 117.018C82.5713 115.881 81.7873 115.179 80.8751 114.912C79.955 114.63 79.0031 114.773 78.0193 115.341C77.0216 115.917 76.4049 116.689 76.169 117.656C75.9471 118.616 76.1801 119.692 76.8681 120.883L80.5041 127.181L78.6127 128.273L72.0367 116.883L73.9281 115.791L74.8641 117.412C74.9022 116.614 75.148 115.872 75.6014 115.185C76.0686 114.49 76.6902 113.919 77.4662 113.471ZM87.8888 115.269C87.2168 114.105 86.8644 112.95 86.8315 111.805C86.7906 110.646 87.039 109.589 87.5765 108.632C88.1279 107.667 88.9163 106.888 89.9416 106.296C90.8284 105.784 91.7729 105.516 92.775 105.492C93.7691 105.453 94.6591 105.651 95.4449 106.084L91.9649 100.057L93.8771 98.9525L102.757 114.333L100.845 115.437L99.6089 113.296C99.6268 114.191 99.3965 115.072 98.9181 115.94C98.4317 116.793 97.6967 117.504 96.7128 118.072C95.7013 118.656 94.6359 118.939 93.5165 118.92C92.411 118.893 91.3626 118.565 90.3715 117.937C89.3804 117.308 88.5528 116.419 87.8888 115.269ZM97.5449 109.721C97.0489 108.862 96.4437 108.214 95.7293 107.777C95.0149 107.339 94.2638 107.126 93.4759 107.138C92.694 107.127 91.9496 107.326 91.243 107.734C90.5363 108.142 89.988 108.68 89.598 109.349C89.208 110.017 89.0238 110.77 89.0454 111.608C89.067 112.445 89.3258 113.293 89.8218 114.153C90.3258 115.026 90.939 115.688 91.6614 116.139C92.3758 116.576 93.124 116.8 93.906 116.811C94.68 116.807 95.4203 116.601 96.127 116.193C96.8336 115.785 97.382 115.247 97.7719 114.579C98.1678 113.888 98.3549 113.124 98.3333 112.287C98.3037 111.436 98.0409 110.58 97.5449 109.721ZM101.935 107.159C101.263 105.995 100.91 104.841 100.877 103.696C100.836 102.537 101.085 101.479 101.622 100.522C102.174 99.5572 102.955 98.7827 103.967 98.1987C104.964 97.6227 105.954 97.3375 106.937 97.343C107.919 97.3486 108.778 97.573 109.515 98.0162L108.315 95.9378L110.227 94.8338L116.803 106.224L114.891 107.328L113.667 105.208C113.677 106.089 113.435 106.967 112.943 107.842C112.457 108.696 111.722 109.407 110.738 109.975C109.726 110.559 108.668 110.837 107.562 110.811C106.457 110.784 105.408 110.456 104.417 109.827C103.426 109.199 102.599 108.309 101.935 107.159ZM111.591 101.612C111.095 100.753 110.49 100.105 109.775 99.6672C109.061 99.2298 108.31 99.0169 107.522 99.0283C106.74 99.0179 105.995 99.2167 105.289 99.6247C104.582 100.033 104.034 100.571 103.644 101.24C103.254 101.908 103.07 102.661 103.091 103.498C103.113 104.336 103.372 105.184 103.868 106.043C104.372 106.916 104.985 107.578 105.707 108.03C106.422 108.467 107.17 108.691 107.952 108.701C108.726 108.698 109.466 108.492 110.173 108.084C110.879 107.676 111.428 107.138 111.818 106.469C112.214 105.779 112.401 105.015 112.379 104.178C112.35 103.326 112.087 102.471 111.591 101.612Z" fill="#8770FF"/>
<path d="M120.915 164.368L126.652 184.168L125.249 184.978L119.497 165.187L120.915 164.368ZM136.758 163.203C137.423 162.819 138.096 162.617 138.778 162.598C139.453 162.568 140.101 162.741 140.72 163.118C141.34 163.495 141.877 164.078 142.333 164.868L145.24 169.903L143.837 170.713L141.047 165.881C140.555 165.029 139.967 164.502 139.283 164.301C138.604 164.084 137.905 164.182 137.188 164.596C136.45 165.022 136.001 165.6 135.841 166.33C135.674 167.05 135.849 167.857 136.365 168.75L139.083 173.458L137.68 174.268L134.89 169.436C134.398 168.584 133.81 168.057 133.126 167.856C132.446 167.639 131.748 167.737 131.031 168.151C130.293 168.577 129.844 169.155 129.683 169.885C129.517 170.605 129.691 171.412 130.207 172.305L132.925 177.013L131.507 177.832L126.575 169.29L127.993 168.471L128.704 169.702C128.727 169.093 128.903 168.534 129.233 168.025C129.573 167.51 130.029 167.088 130.6 166.758C131.317 166.344 132.044 166.139 132.781 166.143C133.518 166.147 134.201 166.383 134.832 166.851C134.723 166.11 134.847 165.414 135.206 164.764C135.565 164.113 136.082 163.593 136.758 163.203ZM151.374 166.549C150.574 167.011 149.741 167.249 148.877 167.263C148.022 167.272 147.216 167.051 146.458 166.602C145.704 166.137 145.072 165.462 144.562 164.579C144.058 163.706 143.801 162.829 143.791 161.948C143.786 161.05 144.009 160.236 144.459 159.505C144.904 158.763 145.532 158.158 146.342 157.69C147.153 157.222 147.99 156.981 148.855 156.967C149.714 156.942 150.522 157.154 151.28 157.603C152.049 158.046 152.688 158.71 153.198 159.593C153.708 160.476 153.961 161.37 153.956 162.273C153.955 163.16 153.728 163.978 153.272 164.725C152.817 165.473 152.184 166.081 151.374 166.549ZM150.654 165.302C151.163 165.008 151.572 164.612 151.881 164.115C152.19 163.618 152.341 163.053 152.336 162.419C152.34 161.779 152.145 161.116 151.749 160.43C151.353 159.744 150.881 159.24 150.335 158.918C149.789 158.596 149.232 158.447 148.663 158.47C148.089 158.483 147.547 158.636 147.038 158.93C146.518 159.23 146.109 159.626 145.811 160.117C145.516 160.592 145.377 161.143 145.394 161.771C145.41 162.399 145.616 163.056 146.012 163.742C146.414 164.438 146.878 164.953 147.403 165.287C147.939 165.615 148.489 165.776 149.053 165.769C149.611 165.752 150.145 165.596 150.654 165.302ZM156.678 151.702C157.718 151.102 158.743 150.932 159.753 151.194C160.757 151.446 161.601 152.164 162.285 153.349L165.192 158.384L163.789 159.194L160.999 154.361C160.507 153.509 159.919 152.983 159.235 152.782C158.545 152.571 157.831 152.678 157.093 153.104C156.345 153.536 155.883 154.115 155.706 154.84C155.539 155.56 155.714 156.367 156.23 157.261L158.957 161.984L157.538 162.803L152.606 154.26L154.025 153.441L154.727 154.657C154.756 154.059 154.94 153.502 155.28 152.987C155.63 152.466 156.097 152.038 156.678 151.702ZM164.983 148.674L167.89 153.709C168.13 154.124 168.389 154.37 168.668 154.444C168.941 154.509 169.295 154.415 169.732 154.163L170.776 153.56L171.469 154.76L170.191 155.498C169.401 155.954 168.704 156.114 168.099 155.978C167.494 155.843 166.951 155.359 166.471 154.528L163.564 149.493L162.457 150.132L161.782 148.963L162.889 148.324L161.647 146.172L163.066 145.353L164.308 147.505L166.537 146.218L167.212 147.387L164.983 148.674ZM172.406 142.621C173.05 142.249 173.713 142.054 174.395 142.034C175.07 142.004 175.713 142.181 176.322 142.564C176.941 142.941 177.479 143.524 177.935 144.314L180.842 149.349L179.439 150.159L176.649 145.326C176.157 144.474 175.569 143.948 174.885 143.747C174.194 143.535 173.481 143.643 172.743 144.069C171.994 144.501 171.532 145.08 171.355 145.805C171.189 146.525 171.363 147.332 171.879 148.225L174.606 152.949L173.188 153.768L166.528 142.232L167.946 141.413L170.376 145.622C170.405 145.024 170.594 144.464 170.945 143.943C171.306 143.416 171.793 142.975 172.406 142.621Z" fill="#B6BFD9"/>
<path d="M59.6118 184.108C60.2071 185.139 60.5248 186.272 60.5649 187.507C60.5923 188.72 60.2787 189.924 59.6242 191.121C58.9696 192.318 57.9374 193.368 56.5274 194.27L58.0474 196.902L56.5994 197.738L55.0604 195.073C53.0065 196.025 51.0595 196.3 49.2195 195.9C47.3668 195.478 45.9216 194.469 44.8839 192.874L47.352 191.449C48.0098 192.386 48.924 193.058 50.0948 193.464C51.2748 193.836 52.5626 193.736 53.9584 193.164L48.6954 184.048C46.9975 184.502 45.5847 184.791 44.4572 184.915C43.3517 185.027 42.2574 184.855 41.1744 184.398C40.0788 183.918 39.132 182.988 38.334 181.606C37.3333 179.872 37.1133 178.098 37.674 176.283C38.222 174.445 39.5018 172.887 41.5134 171.609L39.9174 168.844L41.3654 168.008L42.9804 170.806C44.9027 169.93 46.7036 169.68 48.3833 170.056C50.0629 170.431 51.4385 171.319 52.5099 172.719L50.0746 174.125C49.4743 173.389 48.6315 172.867 47.546 172.557C46.4825 172.235 45.3406 172.31 44.1204 172.78L49.1934 181.567C50.8348 181.116 52.2256 180.84 53.3657 180.737C54.5152 180.6 55.6377 180.771 56.7334 181.25C57.829 181.729 58.7885 182.682 59.6118 184.108ZM40.6135 180.158C41.3228 181.387 42.2341 182.104 43.3474 182.309C44.4699 182.48 45.8536 182.369 47.4984 181.975L42.6154 173.517C41.337 174.343 40.4946 175.341 40.0882 176.512C39.7037 177.67 39.8788 178.885 40.6135 180.158ZM55.4444 192.394C56.7978 191.495 57.6305 190.43 57.9424 189.196C58.2416 187.941 58.0492 186.721 57.3652 185.537C56.6432 184.286 55.7146 183.564 54.5794 183.372C53.4661 183.166 52.0698 183.255 50.3904 183.64L55.4444 192.394Z" fill="#1D212A"/>
<path d="M92.9212 199.935C94.9385 202.373 97.1777 203.851 99.6389 204.37C102.1 204.889 104.744 204.332 107.571 202.7C111.478 200.444 113.491 197.259 113.61 193.145C113.746 188.965 111.691 183.389 107.445 176.418C107.975 179.161 107.502 181.845 106.025 184.471C104.566 187.032 102.402 189.14 99.5338 190.796C95.169 193.316 90.9004 194.035 86.728 192.952C82.5972 191.845 79.1877 188.964 76.4997 184.308C74.8917 181.523 73.9801 178.696 73.7649 175.827C73.5497 172.958 74.1717 170.244 75.6309 167.683C77.09 165.122 79.42 162.918 82.6209 161.07C88.5237 157.662 93.7551 157.219 98.3149 159.741C102.851 162.221 107.195 167.057 111.347 174.249C115.835 182.022 118.043 188.535 117.971 193.786C117.941 199.014 115.12 203.247 109.508 206.487C105.392 208.863 101.556 209.61 97.9972 208.727C94.4149 207.802 91.3719 205.651 88.8682 202.275L92.9212 199.935ZM98.0597 186.659C100.013 185.531 101.573 184.104 102.738 182.378C103.921 180.587 104.555 178.613 104.641 176.458C104.726 174.302 104.133 172.123 102.861 169.919C100.893 166.511 98.2964 164.269 95.0706 163.194C91.8865 162.094 88.4861 162.589 84.8696 164.677C81.6688 166.525 79.6675 169.011 78.8657 172.134C78.1055 175.233 78.6854 178.446 80.6054 181.771C82.6214 185.263 85.1615 187.455 88.2257 188.346C91.2899 189.237 94.5679 188.675 98.0597 186.659Z" fill="#1D212A"/>
<g opacity="0.7" clip-path="url(#clip1_1298_8876)">
<path d="M177.254 141.644C176.857 141.757 176.151 141.934 175.271 142.211C176.288 141.971 177.13 141.831 177.317 141.954C177.317 141.954 178.803 141.327 177.254 141.644Z" fill="#32D989"/>
<path d="M154.24 143.384C156.518 142.53 158.66 141.64 160.852 140.836C163.044 140.033 165.149 139.279 167.255 138.526C169.36 137.772 171.342 137.205 173.274 136.551C175.206 135.898 176.965 135.344 178.637 134.841C181.981 133.833 184.756 133.04 186.738 132.473C188.72 131.906 189.873 131.702 189.873 131.702C188.807 131.856 186.019 132.426 182.055 133.56C180.073 134.127 177.867 134.708 175.316 135.488C172.814 136.355 170.039 137.149 167.141 138.129C155.462 142.101 141.039 148.119 127.375 154.853C113.675 161.723 100.685 169.223 91.2718 175.12C86.522 178.093 82.6883 180.653 80.017 182.426C77.3458 184.199 75.8003 185.322 75.8003 185.322C69.1355 189.978 63.6733 194.518 59.8798 197.747C58.0281 199.74 56.5827 201.036 55.5202 201.996C54.5444 202.906 53.9516 203.479 53.9516 203.479C42.671 213.341 36.9794 219.282 33.8555 222.472C30.7816 225.747 30.462 226.394 30.462 226.394L31.8718 228.236L34.1708 229.218L36.6235 231.266C39.3529 234.193 38.4493 231.828 38.4493 231.828C45.5694 223.561 53.226 216.022 60.6997 209.167C68.1733 202.312 75.6006 196.176 82.7948 190.637C89.989 185.098 97.0002 180.242 103.555 175.995C110.11 171.749 116.432 168.099 122.111 164.935C133.606 158.645 142.99 154.498 149.465 151.914C151.088 151.324 152.573 150.697 153.799 150.22C155.025 149.743 156.078 149.366 156.957 149.09C158.666 148.449 159.545 148.173 159.545 148.173C168.026 144.662 172.77 143.078 175.271 142.211C173.722 142.528 171.69 143.008 169.571 143.539C166.09 144.509 162.696 145.43 162.696 145.43L167.626 143.969C170.388 142.952 173.286 141.972 176.097 141.041L170.671 142.442C172.156 141.815 175.76 140.658 179.018 139.701C182.326 138.831 185.188 137.987 185.188 137.987C183.315 138.144 178.099 139.308 171.41 141.323C169.738 141.826 167.979 142.38 166.22 142.933C164.374 143.537 162.529 144.141 160.597 144.794C156.783 146.188 152.832 147.545 148.981 149.076C145.131 150.606 141.33 152.223 137.876 153.64C134.385 155.193 131.204 156.684 128.456 157.924C125.758 159.251 123.492 160.327 121.97 161.091C120.448 161.854 119.582 162.354 119.582 162.354C120.088 161.831 121.51 160.894 123.502 159.744C124.851 159.081 126.72 158.118 129.072 156.991C129.901 156.627 130.68 156.177 131.597 155.764C133.342 154.987 135.384 153.924 137.439 153.084C138.355 152.67 139.358 152.207 140.36 151.743C142.675 150.753 145.027 149.626 147.479 148.673C153.285 146.129 159.947 143.668 168.505 140.691C171.093 139.774 173.471 139.093 175.626 138.426C176.196 138.213 176.729 138.136 177.299 137.923C179.85 137.142 181.882 136.662 183.381 136.258C181.882 136.662 179.764 137.192 177.299 137.923C176.816 138.086 176.246 138.299 175.626 138.426C173.471 139.093 171.056 139.91 168.505 140.691C159.947 143.668 153.335 146.216 147.479 148.673C145.027 149.626 142.675 150.753 140.36 151.743C139.358 152.207 138.442 152.62 137.439 153.084C135.347 154.06 133.342 154.987 131.597 155.764C130.68 156.177 129.851 156.541 129.072 156.991C127.03 158.054 125.198 158.881 123.899 159.631C130.307 155.931 142.485 149.824 154.83 145.006C163.051 141.645 171.399 138.904 177.555 136.966C180.726 136.059 183.278 135.279 185.087 134.812C185.966 134.535 186.672 134.358 187.205 134.281C187.688 134.118 187.912 134.105 187.912 134.105C187.242 134.145 185.556 134.425 183.128 135.019C180.699 135.613 177.651 136.333 174.134 137.441C172.375 137.994 170.479 138.511 168.547 139.165C166.615 139.818 164.597 140.522 162.441 141.189C160.286 141.856 158.231 142.696 156.126 143.45C154.02 144.203 151.828 145.007 149.687 145.897C141.106 149.235 132.998 152.992 126.896 155.822C123.938 157.299 121.413 158.526 119.631 159.439C117.936 160.303 116.983 160.853 116.983 160.853C118.911 159.393 136.372 150.236 154.24 143.384Z" fill="#32D989"/>
<path d="M172.141 135.589C171.658 135.752 171.175 135.916 170.692 136.079C169.503 136.419 168.364 136.846 167.311 137.223C166.172 137.65 165.119 138.027 164.24 138.303L163.497 138.617C161.305 139.42 159.993 139.947 159.993 139.947C157.578 140.764 151.535 143.098 144.244 146.269C135.776 150.003 126.593 154.496 118.302 158.937C115.381 160.277 103.626 166.717 93.1873 173.437C90.8124 174.923 88.2277 176.646 85.5564 178.42C85.21 178.62 84.9136 178.906 84.5672 179.106C84.1342 179.356 83.9244 179.593 83.8378 179.643C83.7512 179.693 83.7512 179.693 83.6646 179.743C83.4914 179.843 83.3182 179.943 83.145 180.043C81.6361 181.029 80.3005 181.916 79.1014 182.839C77.2962 184.112 75.7007 185.149 74.6749 185.972C73.5991 186.709 73.0428 187.145 73.0428 187.145C69.2591 189.792 64.5496 193.435 59.4704 197.637C54.6511 201.69 49.5853 206.116 44.9659 210.515C39.5805 215.587 35.5674 219.636 33.6291 221.679C32.2337 223.062 31.098 224.295 30.3454 225.191C29.5294 225.778 29.1098 226.251 29.1098 226.251C29.1098 226.251 29.5294 225.778 30.2454 225.018C30.8382 224.445 31.8007 223.312 33.4925 221.642C35.9004 219.213 39.9636 215.25 45.3989 210.265C56.9491 199.67 70.9278 188.482 83.6878 179.383C84.0342 179.183 84.294 179.033 84.5904 178.746C87.9545 176.573 102.264 167.157 118.029 158.863C126.319 154.423 135.676 149.829 144.194 146.182C151.485 143.012 157.441 140.728 159.943 139.861C159.943 139.861 161.255 139.334 163.447 138.53L164.19 138.217C165.156 137.89 166.122 137.563 167.261 137.136C168.314 136.76 169.503 136.419 170.642 135.993C171.175 135.916 171.658 135.752 172.141 135.589C178.644 133.451 187.328 131.093 194.367 129.685C187.415 131.043 178.73 133.401 172.141 135.589ZM45.4489 210.351C40.0136 215.337 35.9504 219.3 33.5425 221.729C31.9373 223.349 30.8382 224.445 30.2954 225.105C30.1722 225.291 29.999 225.391 29.9624 225.528C30.0856 225.341 30.2588 225.241 30.382 225.055C31.2213 224.108 32.3569 222.875 33.6657 221.542C35.604 219.5 39.5671 215.364 45.0025 210.378C49.7085 205.929 54.6877 201.553 59.507 197.501C64.5862 193.298 69.2957 189.655 73.0794 187.009C73.0794 187.009 73.6357 186.572 74.7115 185.836C75.7873 185.099 77.2462 184.026 79.138 182.703C80.3005 181.916 81.6361 181.029 82.9717 180.143C70.5082 188.955 56.7893 199.994 45.4489 210.351ZM88.0045 176.66C89.8598 175.473 91.5418 174.387 93.2239 173.3C103.28 166.917 114.638 160.59 117.992 159C105.531 165.617 93.9167 172.9 88.0045 176.66Z" fill="#32D989"/>
<path d="M166.201 147.101C164.356 147.705 162.164 148.508 159.799 149.412C154.276 151.446 146.885 154.443 138.504 158.127C131.485 161.371 124.171 164.902 118.701 167.828C116.919 168.742 115.36 169.642 114.098 170.255C113.492 170.605 112.885 170.955 112.402 171.119L109.978 172.519L112.366 171.255C112.885 170.955 113.405 170.655 114.061 170.392C115.274 169.692 116.883 168.878 118.665 167.965C124.221 164.988 131.449 161.508 138.467 158.264C146.848 154.58 154.19 151.496 159.763 149.549C162.251 148.458 164.493 147.742 166.201 147.101C166.685 146.938 167.168 146.775 167.651 146.611C169.892 145.894 171.255 145.454 171.874 145.327C171.255 145.454 169.892 145.894 167.651 146.611C167.254 146.725 166.771 146.888 166.201 147.101Z" fill="#32D989"/>
</g>
<defs>
<filter id="filter0_ddd_1298_8876" x="-73.2217" y="184.117" width="443.713" height="379.253" filterUnits="userSpaceOnUse" color-interpolation-filters="sRGB">
<feFlood flood-opacity="0" result="BackgroundImageFix"/>
<feColorMatrix in="SourceAlpha" type="matrix" values="0 0 0 0 0 0 0 0 0 0 0 0 0 0 0 0 0 0 127 0" result="hardAlpha"/>
<feOffset dy="15.8955"/>
<feColorMatrix type="matrix" values="0 0 0 0 0.74902 0 0 0 0 0.8 0 0 0 0 0.882353 0 0 0 0.0372931 0"/>
<feBlend mode="normal" in2="BackgroundImageFix" result="effect1_dropShadow_1298_8876"/>
<feColorMatrix in="SourceAlpha" type="matrix" values="0 0 0 0 0 0 0 0 0 0 0 0 0 0 0 0 0 0 127 0" result="hardAlpha"/>
<feOffset dy="20.7957"/>
<feGaussianBlur stdDeviation="7.66358"/>
<feColorMatrix type="matrix" values="0 0 0 0 0.74902 0 0 0 0 0.8 0 0 0 0 0.882353 0 0 0 0.177553 0"/>
<feBlend mode="normal" in2="effect1_dropShadow_1298_8876" result="effect2_dropShadow_1298_8876"/>
<feColorMatrix in="SourceAlpha" type="matrix" values="0 0 0 0 0 0 0 0 0 0 0 0 0 0 0 0 0 0 127 0" result="hardAlpha"/>
<feOffset dy="38"/>
<feGaussianBlur stdDeviation="28"/>
<feColorMatrix type="matrix" values="0 0 0 0 0.74902 0 0 0 0 0.8 0 0 0 0 0.882353 0 0 0 0.39 0"/>
<feBlend mode="normal" in2="effect2_dropShadow_1298_8876" result="effect3_dropShadow_1298_8876"/>
<feBlend mode="normal" in="SourceGraphic" in2="effect3_dropShadow_1298_8876" result="shape"/>
</filter>
<filter id="filter1_ddd_1298_8876" x="-132.073" y="0.926758" width="443.222" height="391.979" filterUnits="userSpaceOnUse" color-interpolation-filters="sRGB">
<feFlood flood-opacity="0" result="BackgroundImageFix"/>
<feColorMatrix in="SourceAlpha" type="matrix" values="0 0 0 0 0 0 0 0 0 0 0 0 0 0 0 0 0 0 127 0" result="hardAlpha"/>
<feOffset dy="15.8955"/>
<feColorMatrix type="matrix" values="0 0 0 0 0.74902 0 0 0 0 0.8 0 0 0 0 0.882353 0 0 0 0.0372931 0"/>
<feBlend mode="normal" in2="BackgroundImageFix" result="effect1_dropShadow_1298_8876"/>
<feColorMatrix in="SourceAlpha" type="matrix" values="0 0 0 0 0 0 0 0 0 0 0 0 0 0 0 0 0 0 127 0" result="hardAlpha"/>
<feOffset dy="20.7957"/>
<feGaussianBlur stdDeviation="7.66358"/>
<feColorMatrix type="matrix" values="0 0 0 0 0.74902 0 0 0 0 0.8 0 0 0 0 0.882353 0 0 0 0.177553 0"/>
<feBlend mode="normal" in2="effect1_dropShadow_1298_8876" result="effect2_dropShadow_1298_8876"/>
<feColorMatrix in="SourceAlpha" type="matrix" values="0 0 0 0 0 0 0 0 0 0 0 0 0 0 0 0 0 0 127 0" result="hardAlpha"/>
<feOffset dy="38"/>
<feGaussianBlur stdDeviation="28"/>
<feColorMatrix type="matrix" values="0 0 0 0 0.74902 0 0 0 0 0.8 0 0 0 0 0.882353 0 0 0 0.39 0"/>
<feBlend mode="normal" in2="effect2_dropShadow_1298_8876" result="effect3_dropShadow_1298_8876"/>
<feBlend mode="normal" in="SourceGraphic" in2="effect3_dropShadow_1298_8876" result="shape"/>
</filter>
<linearGradient id="paint0_linear_1298_8876" x1="177.221" y1="210.955" x2="56.2039" y2="53.3481" gradientUnits="userSpaceOnUse">
<stop stop-color="#F9FAFC"/>
<stop offset="0.909896" stop-color="#F9F9FC"/>
<stop offset="0.9375" stop-color="#E7ECF1"/>
<stop offset="0.989583" stop-color="#DAE3ED"/>
</linearGradient>
<linearGradient id="paint1_linear_1298_8876" x1="30.9654" y1="79.9835" x2="-63.0228" y2="260.756" gradientUnits="userSpaceOnUse">
<stop stop-color="#F9FAFC"/>
<stop offset="1" stop-color="#F9F9FC"/>
</linearGradient>
<clipPath id="clip0_1298_8876">
<rect width="210" height="27" fill="white" transform="translate(58.9531 327.917) rotate(12.0229)"/>
</clipPath>
<clipPath id="clip1_1298_8876">
<rect width="191.4" height="24.4" fill="white" transform="translate(22.0596 214.04) rotate(-30)"/>
</clipPath>
</defs>
</svg>
