<svg width="362" height="337" viewBox="0 0 362 337" fill="none" xmlns="http://www.w3.org/2000/svg">
<path d="M53.5958 18.9037L52.3118 16.8766C52.3626 16.8817 51.855 16.3177 51.992 16.4853L38.312 1.51616C37.8957 1.06393 37.3626 0.753841 36.7583 0.641782C35.8035 0.443194 34.8789 0.965793 34.4367 1.79337C33.0233 4.6265 29.4034 12.0597 29.4034 12.0597C29.0119 12.8924 29.1689 13.8828 29.7679 14.5586C33.4684 18.5727 41.8287 27.7747 41.7424 27.6122C42.8033 28.7961 44.7332 28.9901 46.2777 27.9143L52.283 23.7988C53.99 22.6367 54.5701 20.4379 53.5958 18.9037Z" fill="url(#paint0_linear_727_62)"/>
<path d="M119.841 43.1149C119.841 43.1149 110.563 50.6974 88.4548 39.9592C74.4565 31.7292 65.741 21.9785 62.1475 17.4109C59.2797 13.7882 55.2076 11.4295 50.6522 10.8176C50.3983 10.7921 50.1444 10.7665 49.9412 10.7461C48.8747 10.6389 47.7776 10.8364 46.7971 11.4046C44.455 12.7594 39.6895 15.7684 36.5949 18.9967C34.8825 20.7226 33.9772 23.0938 34.0877 25.5672C34.3593 31.0319 37.3748 33.6948 37.3748 33.6948C37.3748 33.6948 66.6298 62.6438 61.68 78.7151C59.9645 86.5962 56.8523 84.3853 56.7302 94.7863C56.9783 106.61 122.479 47.484 122.479 47.484C122.479 47.484 130.802 40.2159 119.841 43.1149Z" fill="url(#paint1_radial_727_62)"/>
<path d="M119.841 43.1149C119.841 43.1149 110.563 50.6974 88.4548 39.9592C74.4565 31.7292 65.741 21.9785 62.1475 17.4109C59.2797 13.7882 55.2076 11.4295 50.6522 10.8176C50.3983 10.7921 50.1444 10.7665 49.9412 10.7461C48.8747 10.6389 47.7776 10.8364 46.7971 11.4046C44.455 12.7594 39.6895 15.7684 36.5949 18.9967C34.8825 20.7226 33.9772 23.0938 34.0877 25.5672C34.3593 31.0319 37.3748 33.6948 37.3748 33.6948C37.3748 33.6948 66.6298 62.6438 61.68 78.7151C59.9645 86.5962 56.8523 84.3853 56.7302 94.7863C56.9783 106.61 122.479 47.484 122.479 47.484C122.479 47.484 130.802 40.2159 119.841 43.1149Z" fill="url(#paint2_radial_727_62)"/>
<path d="M119.841 43.1149C119.841 43.1149 110.563 50.6974 88.4548 39.9592C74.4565 31.7292 65.741 21.9785 62.1475 17.4109C59.2797 13.7882 55.2076 11.4295 50.6522 10.8176C50.3983 10.7921 50.1444 10.7665 49.9412 10.7461C48.8747 10.6389 47.7776 10.8364 46.7971 11.4046C44.455 12.7594 39.6895 15.7684 36.5949 18.9967C34.8825 20.7226 33.9772 23.0938 34.0877 25.5672C34.3593 31.0319 37.3748 33.6948 37.3748 33.6948C37.3748 33.6948 66.6298 62.6438 61.68 78.7151C59.9645 86.5962 56.8523 84.3853 56.7302 94.7863C56.9783 106.61 122.479 47.484 122.479 47.484C122.479 47.484 130.802 40.2159 119.841 43.1149Z" fill="url(#paint3_radial_727_62)"/>
<path d="M134.998 46.4343C130.658 41.6377 123.258 40.7398 117.422 43.1795C115.883 43.1787 66.3158 78.0014 64.0549 79.5695C59.7159 82.9292 56.732 88.118 56.4855 93.6333C56.3724 96.2893 56.9196 99.0118 58.1678 101.394C58.3403 101.719 58.5179 101.994 58.6904 102.319L67.4496 116.229C67.8911 116.94 68.3885 117.606 68.9469 118.175C68.0488 116.392 255.716 322.957 248.336 313.699C246.773 310.875 238.709 299.24 238.06 296.508C236.224 290.783 238.142 284.461 241.928 279.969C243.092 278.598 244.444 277.4 245.881 276.365L294.345 242.816C297.49 240.619 301.315 239.311 305.155 239.389C307.821 239.401 310.523 240.083 312.843 241.496C313.762 242.05 314.57 242.695 315.321 243.386C318.397 246.466 134.201 45.6873 134.998 46.4343Z" fill="url(#paint4_linear_727_62)"/>
<g filter="url(#filter0_di_727_62)">
<path d="M326.14 259.761C330.738 267.097 327.945 277.537 319.836 283.185L271.372 316.733C263.268 322.33 252.939 320.984 248.341 313.648L239.581 299.738C234.984 292.402 237.777 281.962 245.886 276.314L294.35 242.766C302.453 237.168 312.783 238.515 317.381 245.851L326.14 259.761Z" fill="url(#paint5_linear_727_62)"/>
</g>
<g filter="url(#filter1_di_727_62)">
<path fill-rule="evenodd" clip-rule="evenodd" d="M317.381 245.851C312.783 238.515 302.453 237.168 294.35 242.766L245.886 276.314C237.777 281.962 234.984 292.402 239.581 299.738L248.341 313.648C252.939 320.984 263.268 322.33 271.372 316.733L319.836 283.185C327.945 277.537 330.738 267.097 326.14 259.761L317.381 245.851ZM319.265 282.365C319.265 282.364 319.266 282.364 319.266 282.364C327.031 276.954 329.55 267.083 325.293 260.292L316.534 246.382C312.309 239.641 302.67 238.234 294.918 243.588L246.457 277.134C246.457 277.134 246.456 277.135 246.456 277.135C238.691 282.544 236.173 292.414 240.428 299.205C240.428 299.206 240.428 299.206 240.429 299.207L249.187 313.115L249.188 313.117C253.413 319.858 263.052 321.264 270.804 315.91L319.265 282.365Z" fill="url(#paint6_linear_727_62)"/>
</g>
<path d="M327.653 269.198C326.389 267.993 313.039 252.801 311.896 252.429C309.073 250.401 305.473 249.475 302.014 249.692C298.763 249.878 295.624 250.998 292.881 252.774C291.433 253.911 253.607 279.604 253.211 280.487C248.348 284.974 245.668 292.245 247.686 298.706C248.031 299.87 248.589 300.952 249.203 301.988C250.233 303.477 254.44 310.619 255.653 311.819L269.334 326.788C268.78 326.168 268.278 325.553 267.836 324.842C267.405 324.029 262.421 316.449 262.229 315.814C261.077 313.493 260.57 310.877 260.673 308.322C260.894 303.574 263.146 299.03 266.556 295.73C267.069 295.218 267.684 294.715 268.243 294.259C268.522 294.03 268.852 293.807 269.183 293.584L306.012 268.099C312.424 263.511 322.206 263.161 327.653 269.198Z" fill="url(#paint7_linear_727_62)"/>
<g filter="url(#filter2_i_727_62)">
<path d="M334.102 279.028C338.7 286.364 335.907 296.804 327.798 302.453L290.969 327.937C282.865 333.535 272.535 332.188 267.937 324.852L262.984 316.967C258.386 309.631 261.18 299.191 269.289 293.543L306.118 268.058C314.222 262.461 324.551 263.807 329.149 271.143L334.102 279.028Z" fill="url(#paint8_linear_727_62)"/>
</g>
<g filter="url(#filter3_i_727_62)">
<path fill-rule="evenodd" clip-rule="evenodd" d="M267.937 324.852C272.535 332.188 282.865 333.535 290.969 327.937L327.798 302.453C335.907 296.804 338.7 286.364 334.102 279.028L329.149 271.143C324.551 263.807 314.222 262.461 306.118 268.058L269.289 293.543C261.18 299.191 258.386 309.631 262.984 316.967L267.937 324.852ZM263.832 316.436C263.832 316.436 263.832 316.436 263.832 316.436L268.785 324.321C273.01 331.062 282.649 332.469 290.4 327.114L327.226 301.632C327.227 301.632 327.227 301.631 327.227 301.631C334.993 296.222 337.511 286.352 333.256 279.56M333.255 279.559L328.303 271.675L328.302 271.675C324.077 264.934 314.438 263.527 306.686 268.881L269.86 294.364C269.86 294.364 269.86 294.364 269.859 294.364C262.094 299.774 259.575 309.645 263.832 316.436" fill="url(#paint9_linear_727_62)"/>
</g>
<defs>
<filter id="filter0_di_727_62" x="234.369" y="237.316" width="93.9824" height="90.8657" filterUnits="userSpaceOnUse" color-interpolation-filters="sRGB">
<feFlood flood-opacity="0" result="BackgroundImageFix"/>
<feColorMatrix in="SourceAlpha" type="matrix" values="0 0 0 0 0 0 0 0 0 0 0 0 0 0 0 0 0 0 127 0" result="hardAlpha"/>
<feOffset dx="-3" dy="-2"/>
<feColorMatrix type="matrix" values="0 0 0 0 0.27451 0 0 0 0 0.345098 0 0 0 0 0.478431 0 0 0 1 0"/>
<feBlend mode="normal" in2="BackgroundImageFix" result="effect1_dropShadow_727_62"/>
<feBlend mode="normal" in="SourceGraphic" in2="effect1_dropShadow_727_62" result="shape"/>
<feColorMatrix in="SourceAlpha" type="matrix" values="0 0 0 0 0 0 0 0 0 0 0 0 0 0 0 0 0 0 127 0" result="hardAlpha"/>
<feOffset dy="8"/>
<feGaussianBlur stdDeviation="8"/>
<feComposite in2="hardAlpha" operator="arithmetic" k2="-1" k3="1"/>
<feColorMatrix type="matrix" values="0 0 0 0 0.337255 0 0 0 0 0.407843 0 0 0 0 0.545098 0 0 0 0.5 0"/>
<feBlend mode="normal" in2="shape" result="effect2_innerShadow_727_62"/>
</filter>
<filter id="filter1_di_727_62" x="234.369" y="237.316" width="93.9824" height="90.8657" filterUnits="userSpaceOnUse" color-interpolation-filters="sRGB">
<feFlood flood-opacity="0" result="BackgroundImageFix"/>
<feColorMatrix in="SourceAlpha" type="matrix" values="0 0 0 0 0 0 0 0 0 0 0 0 0 0 0 0 0 0 127 0" result="hardAlpha"/>
<feOffset dx="-3" dy="-2"/>
<feColorMatrix type="matrix" values="0 0 0 0 0.27451 0 0 0 0 0.345098 0 0 0 0 0.478431 0 0 0 1 0"/>
<feBlend mode="normal" in2="BackgroundImageFix" result="effect1_dropShadow_727_62"/>
<feBlend mode="normal" in="SourceGraphic" in2="effect1_dropShadow_727_62" result="shape"/>
<feColorMatrix in="SourceAlpha" type="matrix" values="0 0 0 0 0 0 0 0 0 0 0 0 0 0 0 0 0 0 127 0" result="hardAlpha"/>
<feOffset dy="8"/>
<feGaussianBlur stdDeviation="8"/>
<feComposite in2="hardAlpha" operator="arithmetic" k2="-1" k3="1"/>
<feColorMatrix type="matrix" values="0 0 0 0 0.337255 0 0 0 0 0.407843 0 0 0 0 0.545098 0 0 0 0.5 0"/>
<feBlend mode="normal" in2="shape" result="effect2_innerShadow_727_62"/>
</filter>
<filter id="filter2_i_727_62" x="260.771" y="264.609" width="75.543" height="74.7773" filterUnits="userSpaceOnUse" color-interpolation-filters="sRGB">
<feFlood flood-opacity="0" result="BackgroundImageFix"/>
<feBlend mode="normal" in="SourceGraphic" in2="BackgroundImageFix" result="shape"/>
<feColorMatrix in="SourceAlpha" type="matrix" values="0 0 0 0 0 0 0 0 0 0 0 0 0 0 0 0 0 0 127 0" result="hardAlpha"/>
<feOffset dy="8"/>
<feGaussianBlur stdDeviation="8"/>
<feComposite in2="hardAlpha" operator="arithmetic" k2="-1" k3="1"/>
<feColorMatrix type="matrix" values="0 0 0 0 0.337255 0 0 0 0 0.407843 0 0 0 0 0.545098 0 0 0 0.5 0"/>
<feBlend mode="normal" in2="shape" result="effect1_innerShadow_727_62"/>
</filter>
<filter id="filter3_i_727_62" x="260.771" y="264.609" width="75.543" height="74.7773" filterUnits="userSpaceOnUse" color-interpolation-filters="sRGB">
<feFlood flood-opacity="0" result="BackgroundImageFix"/>
<feBlend mode="normal" in="SourceGraphic" in2="BackgroundImageFix" result="shape"/>
<feColorMatrix in="SourceAlpha" type="matrix" values="0 0 0 0 0 0 0 0 0 0 0 0 0 0 0 0 0 0 127 0" result="hardAlpha"/>
<feOffset dy="8"/>
<feGaussianBlur stdDeviation="8"/>
<feComposite in2="hardAlpha" operator="arithmetic" k2="-1" k3="1"/>
<feColorMatrix type="matrix" values="0 0 0 0 0.337255 0 0 0 0 0.407843 0 0 0 0 0.545098 0 0 0 0.5 0"/>
<feBlend mode="normal" in2="shape" result="effect1_innerShadow_727_62"/>
</filter>
<linearGradient id="paint0_linear_727_62" x1="43.4649" y1="6.63522" x2="31.3368" y2="17.2921" gradientUnits="userSpaceOnUse">
<stop stop-color="#32D989"/>
<stop offset="0.363756" stop-color="#49F1A1"/>
<stop offset="0.651856" stop-color="#32D989"/>
<stop offset="1" stop-color="#17A25F"/>
</linearGradient>
<radialGradient id="paint1_radial_727_62" cx="0" cy="0" r="1" gradientUnits="userSpaceOnUse" gradientTransform="translate(59.7104 36.5024) rotate(139.567) scale(16.4725 46.4635)">
<stop offset="0.313537" stop-color="white"/>
<stop offset="0.577507" stop-color="#FAFBFF"/>
<stop offset="1" stop-color="#F8FAFF"/>
<stop offset="1" stop-color="#E1E7F3"/>
</radialGradient>
<radialGradient id="paint2_radial_727_62" cx="0" cy="0" r="1" gradientUnits="userSpaceOnUse" gradientTransform="translate(48.3762 59.9025) rotate(70.251) scale(39.8821 16.4961)">
<stop stop-color="#C4CDDF"/>
<stop offset="1" stop-color="white"/>
</radialGradient>
<radialGradient id="paint3_radial_727_62" cx="0" cy="0" r="1" gradientUnits="userSpaceOnUse" gradientTransform="translate(87.3263 29.4198) rotate(126.345) scale(29.5278 80.749)">
<stop stop-color="#DEE5F1"/>
<stop offset="1" stop-color="white" stop-opacity="0"/>
</radialGradient>
<linearGradient id="paint4_linear_727_62" x1="219.64" y1="133.423" x2="142.322" y2="203.836" gradientUnits="userSpaceOnUse">
<stop stop-color="white"/>
<stop offset="0.796412" stop-color="white"/>
<stop offset="0.906758" stop-color="#EEF1F7"/>
<stop offset="1" stop-color="#C7D2E8"/>
</linearGradient>
<linearGradient id="paint5_linear_727_62" x1="254.727" y1="319.606" x2="248.928" y2="259.028" gradientUnits="userSpaceOnUse">
<stop stop-color="#16243C"/>
<stop offset="1" stop-color="#2A3650"/>
</linearGradient>
<linearGradient id="paint6_linear_727_62" x1="276.143" y1="230.845" x2="272.056" y2="301.538" gradientUnits="userSpaceOnUse">
<stop stop-color="white"/>
<stop offset="1" stop-color="white" stop-opacity="0"/>
</linearGradient>
<linearGradient id="paint7_linear_727_62" x1="258.787" y1="324.923" x2="290.597" y2="296.885" gradientUnits="userSpaceOnUse">
<stop stop-color="#222D3F"/>
<stop offset="0.281083" stop-color="#2D394F"/>
<stop offset="0.39374" stop-color="#5A6D91"/>
<stop offset="0.56133" stop-color="#35425C"/>
<stop offset="1" stop-color="#47587A"/>
</linearGradient>
<linearGradient id="paint8_linear_727_62" x1="275.25" y1="330.914" x2="270.486" y2="280.869" gradientUnits="userSpaceOnUse">
<stop stop-color="#212D42"/>
<stop offset="1" stop-color="#2A3650"/>
</linearGradient>
<linearGradient id="paint9_linear_727_62" x1="292.968" y1="257.601" x2="289.586" y2="315.992" gradientUnits="userSpaceOnUse">
<stop stop-color="white"/>
<stop offset="1" stop-color="#243148"/>
</linearGradient>
</defs>
</svg>
