<svg width="76" height="16" viewBox="0 0 76 16" fill="none" xmlns="http://www.w3.org/2000/svg">
<path d="M0.534307 0H10.7609V1.84615H6.73981V12.2243H4.52866V1.84615H0.525391V0H0.534307ZM10.324 3.37311H12.2142V5.08124H12.2499C12.3123 4.83968 12.4282 4.60676 12.5976 4.38246C12.767 4.15816 12.9721 3.94249 13.2128 3.76132C13.4535 3.57153 13.721 3.42487 14.0152 3.3041C14.3095 3.19195 14.6126 3.13156 14.9157 3.13156C15.1476 3.13156 15.317 3.14019 15.4061 3.14881C15.4953 3.15744 15.5844 3.1747 15.6825 3.18332V5.06398C15.5399 5.0381 15.3972 5.02085 15.2456 5.0036C15.0941 4.98634 14.9514 4.97771 14.8088 4.97771C14.47 4.97771 14.149 5.04673 13.8458 5.17613C13.5427 5.30554 13.2841 5.50395 13.0612 5.75413C12.8383 6.01294 12.66 6.32351 12.5263 6.70309C12.3925 7.08268 12.3301 7.51402 12.3301 8.00575V12.2157H10.3151V3.37311H10.324ZM24.9462 12.2243H22.9669V10.9907H22.9312C22.6816 11.4393 22.316 11.793 21.8256 12.0604C21.3352 12.3278 20.8359 12.4659 20.3277 12.4659C19.1241 12.4659 18.2503 12.1812 17.7154 11.6032C17.1804 11.0252 16.9129 10.1538 16.9129 8.98922V3.37311H18.9279V8.79943C18.9279 9.57585 19.0795 10.128 19.3916 10.4472C19.6947 10.7664 20.1316 10.9303 20.6844 10.9303C21.1123 10.9303 21.4601 10.8699 21.7454 10.7405C22.0307 10.6111 22.2625 10.4472 22.4319 10.2315C22.6102 10.0244 22.735 9.76564 22.8153 9.47232C22.8955 9.17901 22.9312 8.85981 22.9312 8.51474V3.38174H24.9462V12.2243ZM28.3788 9.38605C28.4413 9.95543 28.6642 10.3523 29.0475 10.5852C29.4398 10.8095 29.9035 10.9303 30.4474 10.9303C30.6346 10.9303 30.8486 10.913 31.0893 10.8871C31.33 10.8613 31.5618 10.8009 31.7669 10.7232C31.9809 10.6456 32.1503 10.5248 32.293 10.3695C32.4267 10.2142 32.4891 10.0158 32.4802 9.76564C32.4713 9.51546 32.3732 9.30841 32.1949 9.15313C32.0166 8.98922 31.7937 8.86844 31.5173 8.76492C31.2409 8.67002 30.9288 8.58375 30.5722 8.51474C30.2155 8.44572 29.8589 8.36808 29.4933 8.29044C29.1189 8.2128 28.7533 8.10927 28.4056 7.99713C28.0579 7.88498 27.7458 7.72969 27.4694 7.53127C27.193 7.34148 26.9701 7.0913 26.8096 6.78936C26.6402 6.48742 26.56 6.11646 26.56 5.66787C26.56 5.18476 26.6848 4.78792 26.9255 4.4601C27.1663 4.13228 27.4783 3.87347 27.8439 3.67505C28.2184 3.47664 28.6285 3.33861 29.0832 3.25234C29.5379 3.1747 29.9748 3.13156 30.3849 3.13156C30.8575 3.13156 31.3122 3.18332 31.7402 3.27822C32.1681 3.37311 32.5604 3.5284 32.9082 3.7527C33.2559 3.96837 33.5412 4.25306 33.773 4.59813C34.0048 4.94321 34.1475 5.36592 34.2099 5.85766H32.1057C32.0076 5.39181 31.7937 5.07261 31.4459 4.91733C31.0982 4.75342 30.697 4.67577 30.2512 4.67577C30.1085 4.67577 29.9391 4.6844 29.743 4.71028C29.5468 4.73616 29.3685 4.7793 29.1902 4.83968C29.0208 4.90007 28.8781 4.99497 28.7533 5.11574C28.6374 5.23652 28.575 5.3918 28.575 5.59022C28.575 5.83178 28.6642 6.02157 28.8336 6.16823C29.003 6.31488 29.2259 6.43566 29.5023 6.53918C29.7787 6.63408 30.0907 6.72035 30.4474 6.78936C30.804 6.85838 31.1695 6.93602 31.544 7.01366C31.9096 7.0913 32.2662 7.19483 32.6228 7.30697C32.9795 7.41912 33.2915 7.57441 33.5679 7.77283C33.8443 7.97124 34.0672 8.2128 34.2366 8.50611C34.406 8.79943 34.4952 9.17038 34.4952 9.60173C34.4952 10.128 34.3704 10.5679 34.1207 10.9389C33.8711 11.3012 33.5501 11.6032 33.1578 11.8275C32.7655 12.0518 32.3197 12.2243 31.8382 12.3278C31.3568 12.4313 30.8753 12.4831 30.4028 12.4831C29.8232 12.4831 29.2883 12.4227 28.7979 12.2933C28.3075 12.1639 27.8796 11.9741 27.5229 11.7239C27.1663 11.4651 26.881 11.1459 26.6759 10.7664C26.4708 10.3868 26.3638 9.92955 26.346 9.40331H28.3788V9.38605ZM35.0302 3.37311H36.5548V0.716032H38.5698V3.37311H40.3886V4.83106H38.5698V9.55859C38.5698 9.76564 38.5787 9.93818 38.5965 10.0935C38.6144 10.2401 38.659 10.3695 38.7214 10.473C38.7838 10.5766 38.8818 10.6542 39.0156 10.706C39.1493 10.7577 39.3187 10.7836 39.5505 10.7836C39.6932 10.7836 39.8359 10.7836 39.9785 10.775C40.1212 10.7664 40.2638 10.7491 40.4065 10.7146V12.2243C40.1836 12.2502 39.9607 12.2674 39.7556 12.2933C39.5416 12.3192 39.3276 12.3278 39.1047 12.3278C38.5698 12.3278 38.1418 12.2761 37.8209 12.1812C37.4999 12.0863 37.2413 11.9396 37.063 11.7498C36.8758 11.56 36.7599 11.3271 36.6885 11.0424C36.6261 10.7577 36.5815 10.4299 36.5726 10.0676V4.84831H35.048V3.37311H35.0302ZM41.8152 3.37311H43.7232V4.57225H43.7589C44.0442 4.05464 44.4365 3.69231 44.9447 3.46801C45.4529 3.24371 45.9968 3.13156 46.5942 3.13156C47.3163 3.13156 47.9405 3.25234 48.4754 3.50252C49.0104 3.74407 49.4562 4.08052 49.8128 4.51186C50.1695 4.94321 50.428 5.44357 50.6063 6.01294C50.7847 6.58232 50.8738 7.19482 50.8738 7.84184C50.8738 8.4371 50.7936 9.0151 50.6331 9.56722C50.4726 10.128 50.2319 10.6197 49.9109 11.051C49.5899 11.4824 49.1798 11.8188 48.6805 12.0776C48.1812 12.3364 47.6017 12.4659 46.924 12.4659C46.6298 12.4659 46.3356 12.44 46.0414 12.3882C45.7471 12.3365 45.4618 12.2502 45.1943 12.138C44.9269 12.0259 44.6683 11.8792 44.4454 11.6981C44.2136 11.5169 44.0264 11.3098 43.8659 11.0769H43.8302V15.4939H41.8152V3.37311ZM48.8588 7.80733C48.8588 7.4105 48.8053 7.02229 48.6983 6.6427C48.5913 6.26312 48.4308 5.9353 48.2169 5.64198C48.0029 5.34867 47.7354 5.11574 47.4233 4.94321C47.1024 4.77067 46.7368 4.67577 46.3267 4.67577C45.4797 4.67577 44.8377 4.96046 44.4097 5.52984C43.9818 6.09921 43.7678 6.85838 43.7678 7.80733C43.7678 8.25593 43.8213 8.67002 43.9372 9.04961C44.0531 9.42919 44.2136 9.75701 44.4454 10.0331C44.6683 10.3091 44.9358 10.5248 45.2478 10.6801C45.5599 10.844 45.9255 10.9216 46.3356 10.9216C46.7992 10.9216 47.1826 10.8267 47.5036 10.6456C47.8246 10.4644 48.0831 10.2229 48.2882 9.93818C48.4933 9.64486 48.6448 9.31704 48.734 8.94608C48.8142 8.57513 48.8588 8.19554 48.8588 7.80733ZM52.4163 0H54.4313V1.84615H52.4163V0ZM52.4163 3.37311H54.4313V12.2243H52.4163V3.37311ZM56.2323 0H58.2473V12.2243H56.2323V0ZM64.4261 12.4659C63.695 12.4659 63.0441 12.3451 62.4735 12.1122C61.9029 11.8792 61.4214 11.5514 61.0202 11.1459C60.6279 10.7318 60.3247 10.2401 60.1197 9.67074C59.9146 9.10137 59.8076 8.4716 59.8076 7.79008C59.8076 7.11718 59.9146 6.49605 60.1197 5.92667C60.3247 5.3573 60.6279 4.86556 61.0202 4.45147C61.4125 4.03738 61.9029 3.71819 62.4735 3.48526C63.0441 3.25234 63.695 3.13156 64.4261 3.13156C65.1572 3.13156 65.808 3.25234 66.3787 3.48526C66.9493 3.71819 67.4308 4.04601 67.832 4.45147C68.2243 4.86556 68.5274 5.3573 68.7325 5.92667C68.9376 6.49605 69.0445 7.11718 69.0445 7.79008C69.0445 8.4716 68.9376 9.10137 68.7325 9.67074C68.5274 10.2401 68.2243 10.7318 67.832 11.1459C67.4397 11.56 66.9493 11.8792 66.3787 12.1122C65.808 12.3451 65.1572 12.4659 64.4261 12.4659ZM64.4261 10.9216C64.8719 10.9216 65.2642 10.8267 65.5941 10.6456C65.924 10.4644 66.1914 10.2229 66.4054 9.92955C66.6194 9.63623 66.771 9.29979 66.878 8.92883C66.976 8.55787 67.0295 8.17829 67.0295 7.79008C67.0295 7.4105 66.976 7.03954 66.878 6.65996C66.7799 6.28038 66.6194 5.95255 66.4054 5.65924C66.1914 5.36592 65.924 5.133 65.5941 4.95183C65.2642 4.77067 64.8719 4.67577 64.4261 4.67577C63.9803 4.67577 63.588 4.77067 63.2581 4.95183C62.9282 5.133 62.6607 5.37455 62.4467 5.65924C62.2327 5.95255 62.0812 6.28038 61.9742 6.65996C61.8761 7.03954 61.8226 7.4105 61.8226 7.79008C61.8226 8.17829 61.8761 8.55787 61.9742 8.92883C62.0723 9.29979 62.2327 9.63623 62.4467 9.92955C62.6607 10.2229 62.9282 10.4644 63.2581 10.6456C63.588 10.8354 63.9803 10.9216 64.4261 10.9216ZM69.633 3.37311H71.1576V0.716032H73.1726V3.37311H74.9915V4.83106H73.1726V9.55859C73.1726 9.76564 73.1815 9.93818 73.1994 10.0935C73.2172 10.2401 73.2618 10.3695 73.3242 10.473C73.3866 10.5766 73.4847 10.6542 73.6184 10.706C73.7522 10.7577 73.9216 10.7836 74.1534 10.7836C74.2961 10.7836 74.4387 10.7836 74.5814 10.775C74.724 10.7664 74.8667 10.7491 75.0093 10.7146V12.2243C74.7864 12.2502 74.5635 12.2674 74.3585 12.2933C74.1445 12.3192 73.9305 12.3278 73.7076 12.3278C73.1726 12.3278 72.7447 12.2761 72.4237 12.1812C72.1027 12.0863 71.8442 11.9396 71.6658 11.7498C71.4786 11.56 71.3627 11.3271 71.2914 11.0424C71.229 10.7577 71.1844 10.4299 71.1755 10.0676V4.84831H69.6508V3.37311H69.633Z" fill="#1D212A"/>
</svg>
