<svg width="518" height="500" viewBox="0 0 518 500" fill="none" xmlns="http://www.w3.org/2000/svg">
<g clip-path="url(#clip0_789_0)">
<g clip-path="url(#clip1_789_0)">
<ellipse cx="305.055" cy="451.435" rx="481.055" ry="49.2396" fill="url(#paint0_radial_789_0)"/>
</g>
<g filter="url(#filter0_i_789_0)">
<rect width="306.144" height="194.162" rx="11.4983" transform="matrix(0.870702 0.491358 -0.634645 0.773322 211.504 132.122)" fill="url(#paint1_linear_789_0)"/>
</g>
<ellipse opacity="0.8" cx="18.8396" cy="15.6097" rx="18.8396" ry="15.6097" transform="matrix(0.870702 0.491358 -0.634645 0.773322 219.411 162.698)" fill="#8770FF"/>
<ellipse opacity="0.5" cx="18.8396" cy="15.6097" rx="18.8396" ry="15.6097" transform="matrix(0.870702 0.491358 -0.634645 0.773322 237.865 173.112)" fill="#8770FF"/>
<path d="M176.41 224.324C175.926 224.052 175.633 223.666 175.531 223.167C175.436 222.658 175.569 222.185 175.929 221.746C176.296 221.299 176.779 221.023 177.376 220.918C177.981 220.805 178.525 220.885 179.009 221.158C179.513 221.442 179.807 221.836 179.892 222.338C179.994 222.837 179.862 223.311 179.494 223.758C179.134 224.197 178.652 224.473 178.047 224.586C177.46 224.696 176.914 224.609 176.41 224.324ZM183.606 228.385C183.122 228.112 182.829 227.726 182.727 227.227C182.632 226.719 182.765 226.246 183.125 225.807C183.492 225.359 183.975 225.083 184.572 224.979C185.177 224.866 185.721 224.946 186.205 225.219C186.709 225.503 187.003 225.897 187.088 226.399C187.19 226.898 187.058 227.371 186.69 227.819C186.33 228.258 185.848 228.534 185.243 228.647C184.656 228.757 184.11 228.67 183.606 228.385ZM190.802 232.446C190.318 232.173 190.025 231.787 189.923 231.288C189.828 230.78 189.96 230.307 190.32 229.868C190.688 229.42 191.17 229.144 191.768 229.04C192.373 228.927 192.917 229.006 193.4 229.279C193.905 229.564 194.199 229.957 194.284 230.46C194.386 230.959 194.253 231.432 193.886 231.88C193.526 232.319 193.043 232.595 192.439 232.708C191.851 232.818 191.306 232.73 190.802 232.446ZM197.997 236.507C197.514 236.234 197.221 235.848 197.118 235.349C197.024 234.841 197.156 234.367 197.516 233.929C197.884 233.481 198.366 233.205 198.963 233.101C199.568 232.987 200.113 233.067 200.596 233.34C201.1 233.625 201.395 234.018 201.479 234.52C201.582 235.019 201.449 235.493 201.082 235.941C200.722 236.379 200.239 236.655 199.634 236.769C199.047 236.879 198.502 236.791 197.997 236.507ZM234.088 256.873C233.604 256.6 233.311 256.215 233.209 255.715C233.114 255.207 233.247 254.734 233.607 254.295C233.974 253.847 234.457 253.571 235.054 253.467C235.659 253.354 236.203 253.434 236.687 253.707C237.191 253.991 237.485 254.385 237.57 254.887C237.672 255.386 237.539 255.859 237.172 256.307C236.812 256.746 236.33 257.022 235.725 257.135C235.138 257.245 234.592 257.158 234.088 256.873ZM241.284 260.934C240.8 260.661 240.507 260.275 240.405 259.776C240.31 259.268 240.442 258.795 240.802 258.356C241.17 257.908 241.652 257.632 242.25 257.528C242.855 257.415 243.399 257.495 243.882 257.768C244.387 258.052 244.681 258.445 244.765 258.948C244.868 259.447 244.735 259.92 244.368 260.368C244.008 260.807 243.525 261.083 242.92 261.196C242.333 261.306 241.788 261.219 241.284 260.934ZM248.479 264.995C247.996 264.722 247.703 264.336 247.6 263.837C247.506 263.329 247.638 262.855 247.998 262.417C248.366 261.969 248.848 261.693 249.445 261.589C250.05 261.476 250.595 261.555 251.078 261.828C251.582 262.113 251.877 262.506 251.961 263.009C252.064 263.508 251.931 263.981 251.564 264.429C251.204 264.867 250.721 265.143 250.116 265.257C249.529 265.367 248.984 265.279 248.479 264.995ZM255.675 269.056C255.192 268.783 254.899 268.397 254.796 267.898C254.701 267.39 254.834 266.916 255.194 266.478C255.561 266.03 256.044 265.754 256.641 265.65C257.246 265.536 257.79 265.616 258.274 265.889C258.778 266.174 259.072 266.567 259.157 267.069C259.259 267.568 259.127 268.042 258.759 268.49C258.399 268.928 257.917 269.204 257.312 269.317C256.725 269.427 256.179 269.34 255.675 269.056ZM291.766 289.422C291.282 289.149 290.989 288.763 290.887 288.264C290.792 287.756 290.924 287.283 291.284 286.844C291.652 286.396 292.134 286.12 292.732 286.016C293.336 285.903 293.881 285.983 294.364 286.256C294.869 286.54 295.163 286.934 295.247 287.436C295.35 287.935 295.217 288.408 294.85 288.856C294.49 289.295 294.007 289.571 293.402 289.684C292.815 289.794 292.27 289.707 291.766 289.422ZM298.961 293.483C298.478 293.21 298.185 292.824 298.082 292.325C297.988 291.817 298.12 291.344 298.48 290.905C298.848 290.457 299.33 290.181 299.927 290.077C300.532 289.964 301.076 290.044 301.56 290.316C302.064 290.601 302.359 290.994 302.443 291.497C302.546 291.996 302.413 292.469 302.046 292.917C301.685 293.356 301.203 293.632 300.598 293.745C300.011 293.855 299.466 293.768 298.961 293.483ZM306.157 297.544C305.673 297.271 305.38 296.885 305.278 296.386C305.183 295.878 305.316 295.404 305.676 294.966C306.043 294.518 306.526 294.242 307.123 294.138C307.728 294.024 308.272 294.104 308.756 294.377C309.26 294.662 309.554 295.055 309.639 295.557C309.741 296.057 309.609 296.53 309.241 296.978C308.881 297.416 308.399 297.692 307.794 297.806C307.207 297.916 306.661 297.828 306.157 297.544ZM313.353 301.605C312.869 301.332 312.576 300.946 312.474 300.447C312.379 299.939 312.512 299.465 312.872 299.026C313.239 298.579 313.722 298.303 314.319 298.198C314.924 298.085 315.468 298.165 315.952 298.438C316.456 298.722 316.75 299.116 316.835 299.618C316.937 300.117 316.805 300.591 316.437 301.038C316.077 301.477 315.595 301.753 314.99 301.866C314.403 301.976 313.857 301.889 313.353 301.605ZM359.553 318.871L353.904 315.683L351.024 319.193C351.543 319.018 352.133 318.969 352.792 319.047C353.458 319.116 354.079 319.312 354.656 319.638C355.499 320.114 356.061 320.658 356.341 321.271C356.629 321.874 356.688 322.49 356.52 323.117C356.359 323.735 356.05 324.322 355.593 324.88C355.068 325.52 354.452 326.021 353.747 326.386C353.06 326.746 352.309 326.918 351.496 326.9C350.692 326.888 349.874 326.647 349.041 326.177C347.981 325.579 347.32 324.852 347.059 323.996C346.806 323.13 346.948 322.241 347.487 321.328L348.552 321.929C348.19 322.608 348.117 323.248 348.33 323.85C348.544 324.452 349.006 324.953 349.716 325.354C350.611 325.859 351.476 326.007 352.311 325.796C353.164 325.582 353.91 325.087 354.547 324.31C355.17 323.551 355.422 322.831 355.304 322.15C355.193 321.459 354.706 320.869 353.842 320.382C353.245 320.045 352.619 319.872 351.964 319.863C351.308 319.855 350.7 320 350.139 320.298L349.12 319.723L353.587 314.281L360.239 318.035L359.553 318.871ZM368.711 326.346C369.46 325.03 369.17 323.998 367.843 323.249C366.835 322.68 365.793 322.6 364.719 323.01C363.645 323.42 362.48 324.427 361.223 326.032C361.879 325.599 362.622 325.39 363.454 325.405C364.303 325.416 365.103 325.634 365.854 326.057C366.934 326.667 367.545 327.446 367.685 328.394C367.843 329.339 367.498 330.328 366.651 331.361C366.156 331.964 365.572 332.437 364.899 332.779C364.244 333.119 363.524 333.28 362.739 333.265C361.964 333.256 361.175 333.024 360.373 332.572C358.839 331.706 358.136 330.674 358.262 329.475C358.398 328.282 359.119 326.89 360.424 325.3C363.199 321.918 365.893 320.965 368.507 322.44C369.494 322.997 370.073 323.678 370.241 324.482C370.417 325.276 370.241 326.086 369.714 326.912L368.711 326.346ZM364.978 326.767C364.495 326.494 363.966 326.322 363.391 326.252C362.816 326.182 362.244 326.246 361.673 326.446C361.121 326.642 360.635 326.996 360.215 327.508C359.607 328.248 359.348 329.005 359.437 329.777C359.526 330.549 360.043 331.202 360.99 331.737C361.782 332.184 362.591 332.326 363.417 332.164C364.243 332.001 364.96 331.55 365.567 330.81C366.22 330.015 366.498 329.262 366.403 328.553C366.307 327.844 365.832 327.249 364.978 326.767ZM367.907 335.66C370.836 335.468 373.223 335.163 375.07 334.748C376.934 334.329 378.26 333.64 379.047 332.68C379.565 332.05 379.797 331.446 379.745 330.868C379.71 330.286 379.291 329.769 378.488 329.316C377.706 328.875 376.919 328.752 376.127 328.947C375.353 329.138 374.644 329.58 374 330.273L372.95 329.681C373.844 328.701 374.839 328.113 375.935 327.915C377.048 327.715 378.124 327.907 379.163 328.494C380.162 329.057 380.763 329.764 380.968 330.615C381.18 331.457 380.911 332.335 380.161 333.249C379.254 334.355 377.853 335.135 375.959 335.591C374.082 336.043 371.983 336.336 369.66 336.469L375.371 339.692L374.707 340.5L367.345 336.346L367.907 335.66ZM383.842 335.045C384.597 334.254 385.493 333.804 386.531 333.695C387.587 333.582 388.635 333.819 389.674 334.405C390.364 334.794 390.865 335.238 391.179 335.736C391.493 336.234 391.616 336.745 391.548 337.268C391.498 337.788 391.278 338.285 390.888 338.761C390.415 339.336 389.816 339.727 389.09 339.932C388.365 340.138 387.611 340.094 386.828 339.799L386.772 339.868C387.398 340.408 387.747 341.019 387.819 341.702C387.898 342.375 387.65 343.064 387.072 343.768C386.427 344.554 385.6 345.029 384.591 345.195C383.599 345.358 382.543 345.123 381.421 344.49C380.351 343.886 379.674 343.143 379.389 342.26C379.112 341.368 379.297 340.437 379.944 339.465L380.994 340.057C380.584 340.721 380.463 341.382 380.632 342.039C380.808 342.686 381.292 343.234 382.085 343.681C382.867 344.122 383.614 344.276 384.325 344.143C385.047 344.015 385.64 343.668 386.105 343.102C387.245 341.713 386.689 340.382 384.435 339.111L384.096 338.919L384.759 338.11L385.114 338.311C387.214 339.495 388.762 339.48 389.759 338.264C390.194 337.734 390.348 337.199 390.219 336.658C390.098 336.109 389.677 335.631 388.957 335.224C388.257 334.829 387.541 334.666 386.808 334.733C386.093 334.798 385.454 335.099 384.892 335.638L383.842 335.045Z" fill="white"/>
<path d="M160.203 252.067C159.94 251.918 159.67 251.825 159.392 251.787C159.119 251.749 158.846 251.764 158.573 251.833C158.304 251.902 158.042 252.021 157.788 252.191C157.534 252.361 157.297 252.58 157.077 252.848C156.786 253.203 156.594 253.547 156.503 253.879C156.415 254.211 156.436 254.518 156.567 254.801C156.699 255.084 156.953 255.332 157.326 255.543C157.539 255.663 157.752 255.76 157.964 255.835C158.18 255.909 158.397 255.972 158.615 256.024L158.263 256.452C158.042 256.412 157.824 256.352 157.611 256.271C157.396 256.192 157.157 256.078 156.894 255.93C156.41 255.656 156.077 255.339 155.897 254.977C155.721 254.615 155.685 254.225 155.789 253.807C155.896 253.39 156.132 252.96 156.496 252.516C156.759 252.196 157.049 251.932 157.366 251.724C157.686 251.515 158.023 251.369 158.374 251.285C158.728 251.202 159.089 251.189 159.457 251.244C159.829 251.298 160.198 251.429 160.565 251.636C160.807 251.772 161.022 251.925 161.211 252.094C161.4 252.262 161.552 252.437 161.667 252.618L161.104 252.91C161.002 252.762 160.878 252.615 160.732 252.467C160.59 252.319 160.413 252.186 160.203 252.067ZM163.104 254.632C163.53 254.872 163.777 255.135 163.844 255.422C163.911 255.708 163.791 256.037 163.486 256.41L161.716 258.566L161.322 258.344L161.602 257.816L161.576 257.801C161.381 257.861 161.197 257.899 161.023 257.917C160.851 257.933 160.677 257.921 160.501 257.88C160.328 257.839 160.138 257.76 159.932 257.644C159.714 257.521 159.549 257.378 159.435 257.215C159.323 257.053 159.274 256.876 159.289 256.684C159.306 256.493 159.4 256.292 159.573 256.082C159.833 255.766 160.173 255.602 160.595 255.592C161.017 255.581 161.523 255.731 162.114 256.042L162.749 256.367L162.908 256.173C163.133 255.899 163.224 255.669 163.182 255.484C163.14 255.3 162.998 255.139 162.757 255.003C162.57 254.898 162.372 254.821 162.163 254.774C161.954 254.726 161.746 254.693 161.54 254.672L161.673 254.214C161.894 254.231 162.131 254.273 162.382 254.338C162.633 254.404 162.874 254.502 163.104 254.632ZM162.464 256.702L161.903 256.415C161.445 256.179 161.078 256.066 160.802 256.077C160.527 256.088 160.303 256.198 160.132 256.406C159.983 256.587 159.935 256.756 159.988 256.913C160.04 257.07 160.169 257.206 160.373 257.321C160.69 257.5 161.014 257.568 161.344 257.526C161.674 257.484 161.968 257.306 162.224 256.994L162.464 256.702ZM167.105 256.881C167.176 256.921 167.248 256.967 167.32 257.019C167.393 257.069 167.456 257.117 167.507 257.163L167.073 257.57C167.025 257.524 166.969 257.476 166.904 257.428C166.838 257.38 166.774 257.338 166.711 257.302C166.568 257.221 166.41 257.171 166.239 257.151C166.072 257.13 165.901 257.14 165.727 257.183C165.553 257.224 165.384 257.296 165.219 257.401C165.055 257.503 164.906 257.636 164.772 257.8L163.375 259.502L162.831 259.195L165.434 256.023L165.884 256.277L165.463 256.894L165.486 256.907C165.656 256.831 165.833 256.774 166.016 256.737C166.202 256.697 166.386 256.687 166.571 256.706C166.757 256.727 166.935 256.785 167.105 256.881ZM166.785 261.512C166.333 261.256 166.087 260.917 166.047 260.494C166.009 260.071 166.212 259.59 166.655 259.05C167.103 258.503 167.576 258.168 168.074 258.042C168.573 257.914 169.046 257.976 169.493 258.229C169.683 258.336 169.829 258.451 169.934 258.575C170.039 258.699 170.112 258.828 170.152 258.96C170.194 259.091 170.211 259.224 170.203 259.358L170.242 259.38C170.282 259.315 170.341 259.228 170.418 259.119C170.495 259.01 170.56 258.922 170.614 258.857L171.657 257.586L172.198 257.891L168.501 262.395L168.065 262.149L168.354 261.651L168.331 261.638C168.186 261.695 168.03 261.732 167.862 261.751C167.697 261.77 167.523 261.763 167.342 261.728C167.164 261.693 166.979 261.621 166.785 261.512ZM167.198 261.16C167.58 261.376 167.93 261.432 168.247 261.328C168.564 261.225 168.878 260.983 169.19 260.603L169.261 260.516C169.592 260.113 169.771 259.76 169.796 259.458C169.823 259.158 169.638 258.895 169.241 258.671C168.908 258.483 168.566 258.456 168.214 258.591C167.864 258.724 167.528 258.986 167.206 259.377C166.886 259.767 166.721 260.114 166.709 260.418C166.7 260.724 166.863 260.971 167.198 261.16ZM175.075 266.105L174.521 265.792L176.157 263.798L173.654 262.385L172.018 264.38L171.464 264.067L174.937 259.835L175.491 260.148L174.011 261.951L176.514 263.364L177.994 261.56L178.548 261.873L175.075 266.105ZM180.69 266.944C180.476 267.205 180.247 267.416 180.003 267.577C179.759 267.739 179.508 267.85 179.249 267.91C178.99 267.97 178.727 267.98 178.461 267.94C178.199 267.899 177.94 267.806 177.683 267.662C177.444 267.527 177.255 267.366 177.115 267.18C176.979 266.993 176.896 266.788 176.866 266.565C176.839 266.344 176.868 266.108 176.956 265.858C177.046 265.609 177.197 265.354 177.411 265.094C177.696 264.747 178.005 264.489 178.337 264.32C178.67 264.15 179.012 264.071 179.362 264.082C179.716 264.092 180.063 264.194 180.405 264.386C180.731 264.57 180.962 264.795 181.099 265.062C181.239 265.33 181.275 265.624 181.209 265.945C181.146 266.266 180.973 266.599 180.69 266.944ZM177.972 265.41C177.763 265.665 177.619 265.907 177.542 266.138C177.464 266.368 177.463 266.579 177.537 266.77C177.612 266.962 177.774 267.128 178.024 267.269C178.272 267.409 178.517 267.473 178.759 267.46C179.004 267.448 179.241 267.371 179.471 267.226C179.701 267.082 179.92 266.883 180.129 266.628C180.337 266.375 180.477 266.135 180.552 265.909C180.628 265.681 180.628 265.472 180.551 265.282C180.475 265.092 180.311 264.926 180.059 264.784C179.687 264.574 179.325 264.53 178.973 264.65C178.622 264.771 178.288 265.024 177.972 265.41ZM180.863 269.371L180.318 269.064L184.015 264.56L184.559 264.867L180.863 269.371ZM183.23 270.792C182.778 270.537 182.532 270.197 182.492 269.774C182.454 269.351 182.657 268.87 183.1 268.33C183.548 267.784 184.021 267.448 184.518 267.322C185.017 267.194 185.491 267.257 185.938 267.509C186.127 267.616 186.274 267.731 186.379 267.855C186.484 267.979 186.556 268.108 186.597 268.241C186.639 268.372 186.656 268.504 186.648 268.638L186.687 268.66C186.727 268.595 186.786 268.508 186.863 268.399C186.939 268.29 187.005 268.203 187.059 268.137L188.101 266.866L188.642 267.172L184.946 271.675L184.509 271.429L184.799 270.932L184.776 270.919C184.631 270.975 184.475 271.013 184.307 271.031C184.141 271.051 183.968 271.043 183.787 271.008C183.609 270.973 183.423 270.901 183.23 270.792ZM183.643 270.44C184.025 270.656 184.375 270.712 184.692 270.609C185.009 270.505 185.323 270.263 185.635 269.883L185.706 269.796C186.037 269.393 186.215 269.04 186.241 268.738C186.268 268.438 186.083 268.175 185.686 267.951C185.353 267.763 185.011 267.737 184.659 267.871C184.308 268.004 183.973 268.266 183.651 268.658C183.331 269.048 183.166 269.395 183.154 269.699C183.145 270.004 183.308 270.251 183.643 270.44ZM190.12 269.869C190.424 270.04 190.635 270.247 190.755 270.49C190.874 270.732 190.902 270.993 190.84 271.275C190.779 271.554 190.631 271.837 190.395 272.125L190.15 272.423L187.683 271.031C187.384 271.407 187.256 271.749 187.298 272.058C187.34 272.367 187.544 272.625 187.912 272.832C188.138 272.96 188.353 273.054 188.556 273.116C188.76 273.177 188.985 273.225 189.23 273.259L188.884 273.681C188.645 273.651 188.423 273.602 188.218 273.534C188.015 273.468 187.793 273.367 187.552 273.23C187.208 273.037 186.959 272.806 186.804 272.538C186.653 272.269 186.606 271.974 186.662 271.653C186.719 271.332 186.891 270.997 187.177 270.648C187.458 270.306 187.764 270.047 188.096 269.87C188.433 269.693 188.774 269.603 189.119 269.601C189.467 269.599 189.8 269.688 190.12 269.869ZM189.79 270.259C189.501 270.096 189.202 270.05 188.893 270.121C188.583 270.192 188.289 270.368 188.009 270.651L189.899 271.718C190.052 271.527 190.155 271.343 190.207 271.163C190.262 270.983 190.258 270.816 190.192 270.663C190.128 270.509 189.994 270.374 189.79 270.259ZM194.115 272.123C194.187 272.164 194.259 272.21 194.331 272.262C194.404 272.312 194.466 272.36 194.518 272.406L194.083 272.813C194.036 272.766 193.979 272.719 193.914 272.671C193.849 272.622 193.785 272.581 193.722 272.545C193.578 272.464 193.421 272.414 193.25 272.393C193.083 272.372 192.912 272.383 192.737 272.426C192.564 272.466 192.395 272.539 192.23 272.643C192.066 272.746 191.917 272.879 191.782 273.043L190.385 274.745L189.841 274.438L192.445 271.265L192.894 271.519L192.473 272.137L192.496 272.15C192.667 272.074 192.844 272.017 193.027 271.979C193.212 271.94 193.397 271.93 193.581 271.949C193.768 271.97 193.946 272.028 194.115 272.123Z" fill="#B6BFD9"/>
<path d="M341.64 360.163L338.988 358.666L342.461 354.434L345.113 355.931L344.757 356.366L342.658 355.181L341.535 356.55L343.513 357.667L343.161 358.095L341.183 356.979L339.898 358.545L341.997 359.729L341.64 360.163ZM344.798 359.569L344.834 357.324L345.453 357.673L345.392 359.426L347.333 358.734L347.946 359.08L345.44 359.932L345.411 362.291L344.792 361.942L344.853 360.083L342.784 360.809L342.172 360.463L344.798 359.569ZM350.438 360.402C350.883 360.653 351.127 360.989 351.169 361.411C351.21 361.833 351.007 362.317 350.559 362.863C350.263 363.224 349.953 363.492 349.631 363.669C349.308 363.845 348.984 363.933 348.66 363.934C348.337 363.935 348.026 363.852 347.726 363.682C347.537 363.576 347.389 363.46 347.282 363.334C347.175 363.209 347.102 363.08 347.061 362.947C347.021 362.814 347.004 362.684 347.009 362.558L346.97 362.536C346.915 362.614 346.848 362.709 346.77 362.82C346.693 362.933 346.623 363.028 346.558 363.108L345.489 364.41L344.945 364.103L348.712 359.512L349.159 359.764L348.845 360.274L348.871 360.288C349.02 360.231 349.177 360.191 349.342 360.168C349.508 360.144 349.682 360.149 349.864 360.183C350.049 360.217 350.24 360.29 350.438 360.402ZM350.011 360.753C349.763 360.614 349.528 360.543 349.307 360.542C349.087 360.543 348.873 360.608 348.664 360.739C348.457 360.867 348.246 361.058 348.033 361.31L347.957 361.403C347.737 361.671 347.583 361.916 347.496 362.138C347.412 362.361 347.406 362.564 347.479 362.746C347.554 362.93 347.721 363.095 347.979 363.241C348.201 363.366 348.429 363.417 348.664 363.394C348.899 363.371 349.13 363.286 349.357 363.137C349.587 362.988 349.804 362.789 350.007 362.542C350.314 362.168 350.475 361.824 350.491 361.511C350.51 361.197 350.35 360.945 350.011 360.753ZM353.34 362.124L350.736 365.296L350.195 364.991L352.799 361.819L353.34 362.124ZM354.05 360.788C354.139 360.838 354.193 360.907 354.214 360.995C354.238 361.082 354.205 361.179 354.117 361.288C354.03 361.394 353.932 361.454 353.824 361.47C353.718 361.486 353.621 361.469 353.532 361.419C353.438 361.366 353.382 361.296 353.361 361.209C353.343 361.122 353.378 361.026 353.465 360.92C353.554 360.812 353.649 360.75 353.751 360.734C353.857 360.717 353.956 360.735 354.05 360.788ZM356.157 363.629C356.229 363.67 356.301 363.716 356.373 363.768C356.446 363.818 356.509 363.866 356.56 363.911L356.126 364.319C356.078 364.272 356.022 364.225 355.956 364.176C355.891 364.128 355.827 364.086 355.764 364.051C355.62 363.97 355.463 363.919 355.292 363.899C355.125 363.878 354.954 363.889 354.779 363.931C354.606 363.972 354.437 364.045 354.272 364.149C354.108 364.251 353.959 364.385 353.824 364.549L352.428 366.251L351.883 365.944L354.487 362.771L354.937 363.025L354.516 363.643L354.538 363.656C354.709 363.58 354.886 363.523 355.069 363.485C355.254 363.446 355.439 363.436 355.623 363.455C355.81 363.475 355.988 363.534 356.157 363.629ZM358.641 365.031C358.945 365.202 359.157 365.409 359.276 365.651C359.395 365.894 359.423 366.155 359.361 366.436C359.3 366.716 359.152 366.999 358.916 367.287L358.671 367.585L356.204 366.192C355.905 366.569 355.777 366.911 355.819 367.22C355.861 367.529 356.066 367.787 356.433 367.994C356.659 368.122 356.874 368.216 357.078 368.278C357.281 368.339 357.506 368.387 357.752 368.421L357.405 368.843C357.166 368.813 356.944 368.764 356.739 368.696C356.536 368.63 356.314 368.528 356.073 368.392C355.729 368.199 355.48 367.968 355.325 367.699C355.174 367.431 355.127 367.136 355.183 366.815C355.24 366.494 355.412 366.159 355.698 365.81C355.979 365.468 356.285 365.209 356.618 365.032C356.954 364.855 357.295 364.765 357.64 364.762C357.988 364.761 358.321 364.85 358.641 365.031ZM358.311 365.421C358.022 365.258 357.723 365.211 357.414 365.283C357.104 365.354 356.81 365.53 356.53 365.813L358.42 366.88C358.573 366.689 358.676 366.504 358.728 366.325C358.784 366.145 358.779 365.978 358.713 365.825C358.649 365.671 358.515 365.536 358.311 365.421ZM361.386 370.035C361.219 370.238 361.022 370.376 360.792 370.45C360.567 370.523 360.319 370.535 360.049 370.484C359.782 370.435 359.501 370.327 359.208 370.162C358.958 370.021 358.756 369.881 358.602 369.743C358.448 369.606 358.329 369.466 358.244 369.326L358.608 368.883C358.701 369.028 358.827 369.184 358.986 369.351C359.146 369.517 359.331 369.659 359.542 369.778C359.85 369.952 360.11 370.034 360.322 370.024C360.534 370.014 360.703 369.932 360.828 369.78C360.899 369.693 360.933 369.601 360.931 369.503C360.932 369.405 360.892 369.288 360.813 369.153C360.735 369.016 360.611 368.845 360.443 368.639C360.278 368.433 360.143 368.246 360.037 368.076C359.936 367.906 359.884 367.74 359.883 367.578C359.884 367.418 359.957 367.25 360.101 367.074C360.321 366.806 360.612 366.669 360.972 366.664C361.336 366.658 361.717 366.767 362.115 366.991C362.33 367.112 362.515 367.245 362.67 367.389C362.829 367.533 362.964 367.682 363.075 367.838L362.576 368.12C362.474 367.98 362.356 367.844 362.22 367.711C362.085 367.578 361.93 367.463 361.756 367.365C361.506 367.224 361.284 367.152 361.089 367.149C360.896 367.148 360.748 367.21 360.643 367.338C360.562 367.436 360.526 367.534 360.535 367.632C360.545 367.732 360.596 367.848 360.687 367.981C360.778 368.114 360.905 368.282 361.067 368.483C361.23 368.683 361.361 368.868 361.459 369.039C361.559 369.208 361.606 369.373 361.601 369.534C361.6 369.695 361.528 369.862 361.386 370.035Z" fill="#32D989"/>
<path d="M151.166 265.006L151.681 263.332L149.771 262.254L148.086 263.268L147.525 262.952L152.877 259.755L153.375 260.036L151.739 265.33L151.166 265.006ZM151.874 262.801L152.411 261.152C152.427 261.11 152.452 261.041 152.486 260.945C152.523 260.85 152.561 260.751 152.6 260.649C152.64 260.547 152.671 260.464 152.694 260.401C152.607 260.468 152.519 260.534 152.428 260.598C152.34 260.662 152.257 260.721 152.178 260.775C152.1 260.827 152.033 260.871 151.978 260.908L150.316 261.922L151.874 262.801ZM152.863 265.964L152.319 265.657L156.015 261.153L156.56 261.461L152.863 265.964ZM158.245 262.411L157.321 263.537C157.214 263.667 157.107 263.79 156.999 263.906C156.892 264.024 156.809 264.116 156.75 264.181L156.779 264.197C156.994 264.11 157.234 264.069 157.5 264.075C157.765 264.08 158.041 264.164 158.328 264.326C158.775 264.579 159.019 264.918 159.057 265.343C159.099 265.768 158.898 266.252 158.453 266.794C158.16 267.151 157.852 267.417 157.53 267.594C157.207 267.77 156.883 267.859 156.559 267.859C156.234 267.859 155.921 267.774 155.619 267.604C155.336 267.445 155.142 267.267 155.035 267.071C154.933 266.875 154.888 266.682 154.901 266.492L154.858 266.468L154.398 266.831L154.007 266.61L157.704 262.106L158.245 262.411ZM157.91 264.679C157.651 264.533 157.409 264.462 157.182 264.467C156.957 264.47 156.737 264.543 156.52 264.687C156.308 264.829 156.088 265.039 155.862 265.315L155.841 265.341C155.513 265.74 155.337 266.088 155.312 266.385C155.29 266.68 155.476 266.939 155.872 267.162C156.204 267.35 156.541 267.382 156.884 267.259C157.229 267.137 157.566 266.876 157.895 266.475C158.231 266.065 158.401 265.711 158.405 265.411C158.412 265.113 158.246 264.869 157.91 264.679ZM162.12 266.462C162.425 266.634 162.636 266.841 162.755 267.083C162.874 267.325 162.903 267.587 162.841 267.868C162.78 268.147 162.632 268.43 162.396 268.718L162.151 269.016L159.684 267.624C159.385 268 159.256 268.342 159.299 268.651C159.341 268.96 159.545 269.218 159.912 269.426C160.138 269.553 160.353 269.648 160.557 269.709C160.761 269.77 160.986 269.818 161.231 269.852L160.884 270.275C160.646 270.244 160.424 270.195 160.218 270.128C160.016 270.061 159.793 269.96 159.552 269.824C159.209 269.63 158.96 269.399 158.805 269.131C158.654 268.862 158.606 268.567 158.663 268.246C158.72 267.925 158.891 267.59 159.178 267.241C159.458 266.899 159.765 266.64 160.097 266.464C160.434 266.286 160.774 266.196 161.12 266.194C161.468 266.192 161.801 266.282 162.12 266.462ZM161.791 266.852C161.502 266.689 161.203 266.643 160.893 266.714C160.584 266.785 160.289 266.962 160.01 267.244L161.9 268.311C162.053 268.121 162.155 267.936 162.207 267.756C162.263 267.576 162.258 267.409 162.193 267.257C162.129 267.102 161.995 266.967 161.791 266.852ZM166.116 268.717C166.188 268.757 166.259 268.803 166.331 268.855C166.405 268.905 166.467 268.953 166.519 268.999L166.084 269.406C166.037 269.36 165.98 269.312 165.915 269.264C165.85 269.216 165.785 269.174 165.722 269.138C165.579 269.057 165.422 269.007 165.251 268.987C165.084 268.966 164.913 268.976 164.738 269.019C164.565 269.06 164.395 269.132 164.23 269.237C164.067 269.339 163.918 269.472 163.783 269.636L162.386 271.338L161.842 271.031L164.445 267.859L164.895 268.113L164.474 268.73L164.497 268.743C164.667 268.667 164.844 268.61 165.028 268.573C165.213 268.533 165.398 268.523 165.582 268.542C165.769 268.563 165.947 268.621 166.116 268.717ZM166.002 272.888C166.091 272.938 166.188 272.983 166.293 273.022C166.397 273.061 166.487 273.088 166.561 273.101L166.255 273.475C166.171 273.464 166.066 273.436 165.939 273.39C165.813 273.344 165.698 273.292 165.591 273.232C165.402 273.125 165.254 272.999 165.148 272.854C165.042 272.707 165.001 272.537 165.023 272.344C165.047 272.151 165.162 271.931 165.366 271.682L166.91 269.8L166.402 269.513L166.594 269.279L167.26 269.379L168.041 268.812L168.367 268.996L167.763 269.731L168.809 270.321L168.5 270.698L167.454 270.107L165.922 271.974C165.759 272.173 165.688 272.35 165.71 272.506C165.733 272.664 165.831 272.791 166.002 272.888ZM173.971 272.23C173.708 272.082 173.438 271.989 173.16 271.951C172.887 271.912 172.614 271.928 172.341 271.997C172.072 272.065 171.81 272.184 171.556 272.354C171.302 272.524 171.065 272.744 170.845 273.012C170.554 273.367 170.362 273.711 170.271 274.043C170.183 274.375 170.204 274.682 170.335 274.964C170.467 275.248 170.721 275.495 171.094 275.706C171.307 275.826 171.52 275.924 171.732 275.998C171.948 276.072 172.165 276.135 172.383 276.188L172.031 276.616C171.81 276.576 171.592 276.515 171.379 276.434C171.164 276.355 170.925 276.242 170.662 276.093C170.178 275.82 169.845 275.502 169.665 275.141C169.489 274.779 169.453 274.389 169.558 273.971C169.664 273.554 169.9 273.124 170.264 272.68C170.527 272.359 170.817 272.095 171.134 271.887C171.454 271.679 171.791 271.532 172.142 271.449C172.496 271.366 172.857 271.352 173.225 271.407C173.597 271.462 173.966 271.593 174.334 271.8C174.575 271.936 174.79 272.088 174.979 272.257C175.168 272.426 175.32 272.601 175.435 272.782L174.872 273.073C174.77 272.926 174.646 272.778 174.5 272.631C174.358 272.483 174.181 272.349 173.971 272.23ZM177.276 277.412C177.062 277.672 176.834 277.883 176.59 278.045C176.346 278.207 176.094 278.317 175.835 278.377C175.576 278.437 175.314 278.447 175.048 278.407C174.786 278.367 174.526 278.274 174.27 278.129C174.031 277.994 173.842 277.834 173.702 277.648C173.566 277.461 173.483 277.256 173.453 277.033C173.425 276.811 173.455 276.575 173.543 276.325C173.632 276.077 173.784 275.822 173.998 275.562C174.283 275.214 174.591 274.956 174.923 274.788C175.257 274.618 175.599 274.538 175.949 274.549C176.303 274.56 176.65 274.661 176.991 274.854C177.317 275.038 177.549 275.263 177.686 275.53C177.825 275.798 177.862 276.092 177.795 276.413C177.733 276.734 177.56 277.066 177.276 277.412ZM174.558 275.878C174.349 276.133 174.206 276.375 174.128 276.605C174.051 276.835 174.049 277.046 174.124 277.238C174.199 277.43 174.361 277.596 174.611 277.737C174.858 277.877 175.104 277.94 175.346 277.928C175.591 277.916 175.828 277.838 176.058 277.694C176.287 277.55 176.507 277.35 176.716 277.095C176.923 276.843 177.064 276.603 177.138 276.377C177.214 276.149 177.214 275.94 177.138 275.75C177.062 275.56 176.898 275.394 176.646 275.252C176.274 275.042 175.912 274.997 175.559 275.117C175.209 275.238 174.875 275.492 174.558 275.878ZM181.179 277.217C181.251 277.258 181.323 277.304 181.394 277.356C181.468 277.406 181.53 277.454 181.582 277.499L181.147 277.907C181.1 277.86 181.043 277.813 180.978 277.764C180.913 277.716 180.848 277.674 180.785 277.639C180.642 277.558 180.485 277.507 180.314 277.487C180.147 277.466 179.976 277.477 179.801 277.519C179.628 277.56 179.459 277.633 179.293 277.737C179.13 277.84 178.981 277.973 178.846 278.137L177.449 279.839L176.905 279.532L179.509 276.359L179.958 276.613L179.537 277.231L179.56 277.244C179.73 277.168 179.907 277.111 180.091 277.073C180.276 277.034 180.461 277.024 180.645 277.043C180.832 277.063 181.01 277.122 181.179 277.217ZM181.065 281.388C181.154 281.438 181.251 281.483 181.356 281.522C181.46 281.562 181.55 281.588 181.624 281.602L181.318 281.975C181.234 281.965 181.129 281.936 181.002 281.89C180.877 281.845 180.761 281.792 180.654 281.732C180.465 281.625 180.317 281.5 180.211 281.355C180.105 281.208 180.064 281.038 180.086 280.844C180.111 280.652 180.225 280.431 180.429 280.182L181.973 278.301L181.465 278.014L181.657 277.779L182.323 277.88L183.104 277.312L183.43 277.496L182.826 278.231L183.872 278.822L183.564 279.198L182.517 278.608L180.985 280.475C180.822 280.673 180.751 280.851 180.773 281.007C180.796 281.164 180.894 281.291 181.065 281.388ZM185.16 279.548L182.556 282.721L182.015 282.415L184.619 279.243L185.16 279.548ZM185.87 278.213C185.959 278.263 186.013 278.332 186.034 278.419C186.058 278.506 186.025 278.604 185.937 278.712C185.849 278.818 185.752 278.879 185.644 278.894C185.538 278.911 185.441 278.894 185.352 278.844C185.258 278.791 185.201 278.721 185.181 278.633C185.163 278.547 185.198 278.45 185.285 278.344C185.373 278.236 185.469 278.174 185.571 278.158C185.677 278.142 185.776 278.16 185.87 278.213ZM186.727 283.804C186.56 284.006 186.363 284.145 186.133 284.218C185.908 284.292 185.66 284.303 185.39 284.252C185.123 284.203 184.842 284.095 184.549 283.93C184.299 283.789 184.097 283.649 183.943 283.512C183.789 283.374 183.67 283.235 183.585 283.094L183.949 282.651C184.042 282.797 184.168 282.953 184.327 283.119C184.487 283.285 184.672 283.428 184.883 283.546C185.191 283.721 185.451 283.802 185.663 283.792C185.875 283.782 186.044 283.7 186.169 283.548C186.24 283.461 186.274 283.369 186.272 283.272C186.273 283.173 186.233 283.057 186.154 282.921C186.076 282.784 185.952 282.613 185.784 282.408C185.619 282.202 185.484 282.014 185.378 281.844C185.276 281.674 185.225 281.508 185.224 281.346C185.225 281.186 185.298 281.018 185.442 280.843C185.662 280.574 185.953 280.438 186.313 280.432C186.677 280.426 187.058 280.535 187.456 280.759C187.671 280.881 187.856 281.013 188.011 281.158C188.17 281.301 188.305 281.45 188.416 281.606L187.917 281.888C187.815 281.749 187.697 281.612 187.561 281.479C187.425 281.346 187.271 281.231 187.097 281.133C186.847 280.992 186.625 280.92 186.43 280.917C186.237 280.916 186.089 280.979 185.984 281.106C185.903 281.205 185.867 281.303 185.876 281.401C185.886 281.5 185.937 281.616 186.028 281.749C186.119 281.883 186.246 282.05 186.408 282.252C186.571 282.451 186.702 282.636 186.8 282.808C186.9 282.977 186.947 283.142 186.942 283.303C186.941 283.463 186.869 283.63 186.727 283.804Z" fill="white"/>
<path d="M337.042 371.313L336.514 371.015L338.975 368.016C339.068 367.902 339.148 367.805 339.215 367.724C339.285 367.642 339.349 367.568 339.407 367.502C339.468 367.434 339.531 367.367 339.596 367.299C339.478 367.323 339.372 367.341 339.277 367.352C339.183 367.361 339.067 367.373 338.928 367.388L338.065 367.469L338.05 366.982L340.065 366.827L340.515 367.081L337.042 371.313ZM343.969 371.669C343.758 371.925 343.533 372.163 343.292 372.383C343.053 372.604 342.799 372.792 342.528 372.948C342.26 373.104 341.979 373.215 341.684 373.28C341.389 373.345 341.079 373.352 340.755 373.302C340.434 373.251 340.101 373.128 339.756 372.933C339.662 372.88 339.561 372.814 339.451 372.735C339.339 372.658 339.253 372.589 339.193 372.526L339.535 372.11C339.595 372.18 339.673 372.254 339.769 372.33C339.866 372.405 339.967 372.472 340.071 372.531C340.478 372.76 340.86 372.863 341.219 372.84C341.58 372.815 341.921 372.698 342.242 372.489C342.564 372.279 342.868 372.01 343.155 371.684L343.116 371.662C342.975 371.718 342.819 371.755 342.647 371.774C342.48 371.792 342.301 371.783 342.112 371.747C341.924 371.709 341.73 371.633 341.53 371.52C341.254 371.365 341.054 371.178 340.93 370.962C340.808 370.746 340.768 370.51 340.81 370.254C340.854 369.999 340.986 369.737 341.208 369.467C341.447 369.175 341.716 368.958 342.014 368.816C342.316 368.673 342.627 368.607 342.948 368.619C343.269 368.631 343.583 368.723 343.889 368.896C344.124 369.028 344.306 369.189 344.437 369.379C344.567 369.568 344.639 369.783 344.653 370.022C344.67 370.26 344.623 370.517 344.511 370.793C344.402 371.07 344.221 371.362 343.969 371.669ZM343.554 369.304C343.265 369.141 342.961 369.093 342.643 369.159C342.327 369.226 342.031 369.429 341.754 369.766C341.524 370.046 341.42 370.31 341.441 370.56C341.462 370.809 341.634 371.024 341.955 371.206C342.177 371.331 342.401 371.399 342.626 371.411C342.854 371.423 343.061 371.394 343.248 371.321C343.437 371.25 343.584 371.15 343.688 371.023C343.793 370.896 343.877 370.754 343.941 370.598C344.008 370.444 344.043 370.287 344.046 370.128C344.051 369.967 344.015 369.815 343.938 369.673C343.862 369.529 343.734 369.406 343.554 369.304ZM348.186 371.41L342.941 374.641L342.406 374.34L347.655 371.11L348.186 371.41ZM348.24 377.632L345.118 375.87L345.448 375.468L347.665 375.038C348.076 374.959 348.43 374.882 348.727 374.807C349.026 374.733 349.284 374.64 349.5 374.527C349.718 374.413 349.906 374.259 350.064 374.066C350.261 373.827 350.33 373.599 350.272 373.383C350.218 373.166 350.061 372.984 349.8 372.837C349.572 372.709 349.341 372.629 349.108 372.599C348.875 372.57 348.614 372.566 348.325 372.589L348.301 372.102C348.505 372.078 348.71 372.071 348.918 372.081C349.128 372.093 349.336 372.125 349.54 372.178C349.746 372.233 349.946 372.314 350.14 372.423C350.433 372.589 350.649 372.777 350.787 372.988C350.926 373.199 350.984 373.421 350.961 373.654C350.941 373.888 350.835 374.12 350.645 374.352C350.462 374.576 350.241 374.756 349.982 374.893C349.726 375.027 349.43 375.138 349.094 375.226C348.76 375.311 348.386 375.391 347.972 375.465L346.183 375.798L346.166 375.818L348.601 377.192L348.24 377.632ZM352.059 379.787L348.937 378.025L349.267 377.623L351.485 377.193C351.896 377.114 352.25 377.038 352.547 376.962C352.846 376.888 353.104 376.795 353.32 376.683C353.537 376.568 353.726 376.415 353.884 376.222C354.08 375.983 354.15 375.755 354.092 375.539C354.038 375.322 353.88 375.14 353.619 374.993C353.391 374.864 353.161 374.785 352.928 374.755C352.695 374.725 352.434 374.722 352.144 374.745L352.12 374.257C352.324 374.234 352.53 374.227 352.738 374.237C352.948 374.248 353.155 374.28 353.359 374.334C353.566 374.388 353.766 374.47 353.959 374.579C354.252 374.744 354.468 374.933 354.607 375.143C354.745 375.354 354.803 375.576 354.781 375.809C354.76 376.043 354.655 376.276 354.465 376.507C354.281 376.731 354.06 376.912 353.802 377.048C353.545 377.183 353.249 377.294 352.914 377.381C352.58 377.466 352.206 377.546 351.792 377.621L350.003 377.953L349.986 377.973L352.42 379.347L352.059 379.787Z" fill="white"/>
<g clip-path="url(#clip2_789_0)" filter="url(#filter1_dddd_789_0)">
<rect width="296.973" height="192.771" rx="12.7763" transform="matrix(0.886896 -0.46172 0.681582 0.731956 53.8828 145.488)" fill="white"/>
<path d="M156.227 205.086C155.758 205.33 155.228 205.404 154.636 205.309C154.037 205.206 153.553 204.957 153.185 204.562C152.81 204.158 152.665 203.733 152.751 203.285C152.83 202.828 153.103 202.478 153.572 202.234C154.06 201.98 154.6 201.907 155.189 202.015C155.781 202.111 156.265 202.36 156.64 202.763C157.008 203.158 157.153 203.584 157.074 204.04C156.998 204.483 156.716 204.831 156.227 205.086ZM163.2 201.456C162.732 201.7 162.201 201.774 161.61 201.679C161.01 201.576 160.526 201.326 160.158 200.931C159.783 200.528 159.638 200.103 159.724 199.654C159.803 199.198 160.076 198.848 160.545 198.604C161.034 198.35 161.573 198.277 162.162 198.385C162.754 198.48 163.238 198.729 163.614 199.133C163.981 199.528 164.126 199.953 164.048 200.41C163.971 200.853 163.689 201.201 163.2 201.456ZM170.174 197.825C169.705 198.069 169.175 198.144 168.583 198.049C167.983 197.945 167.5 197.696 167.132 197.301C166.756 196.898 166.612 196.472 166.698 196.024C166.776 195.568 167.05 195.218 167.518 194.974C168.007 194.719 168.546 194.646 169.136 194.755C169.728 194.85 170.211 195.099 170.587 195.502C170.955 195.897 171.099 196.323 171.021 196.779C170.945 197.222 170.662 197.571 170.174 197.825ZM177.147 194.195C176.678 194.439 176.148 194.513 175.556 194.418C174.956 194.315 174.473 194.066 174.105 193.671C173.729 193.268 173.585 192.842 173.671 192.394C173.749 191.938 174.023 191.587 174.492 191.343C174.98 191.089 175.519 191.016 176.109 191.125C176.701 191.22 177.185 191.469 177.56 191.872C177.928 192.267 178.073 192.693 177.994 193.149C177.918 193.592 177.636 193.941 177.147 194.195ZM212.121 175.987C211.653 176.231 211.122 176.306 210.53 176.211C209.931 176.107 209.447 175.858 209.079 175.463C208.704 175.06 208.559 174.634 208.645 174.186C208.724 173.73 208.997 173.38 209.466 173.136C209.955 172.881 210.494 172.808 211.083 172.917C211.675 173.012 212.159 173.261 212.534 173.664C212.902 174.059 213.047 174.485 212.968 174.941C212.892 175.384 212.61 175.733 212.121 175.987ZM219.094 172.357C218.626 172.601 218.096 172.675 217.504 172.58C216.904 172.477 216.42 172.228 216.052 171.833C215.677 171.43 215.532 171.004 215.618 170.556C215.697 170.1 215.971 169.749 216.439 169.505C216.928 169.251 217.467 169.178 218.057 169.287C218.648 169.382 219.132 169.631 219.508 170.034C219.875 170.429 220.02 170.855 219.942 171.311C219.865 171.754 219.583 172.103 219.094 172.357ZM226.068 168.727C225.599 168.971 225.069 169.045 224.477 168.95C223.877 168.847 223.394 168.598 223.026 168.203C222.65 167.799 222.506 167.374 222.592 166.926C222.67 166.469 222.944 166.119 223.412 165.875C223.901 165.621 224.44 165.548 225.03 165.656C225.622 165.751 226.105 166.001 226.481 166.404C226.849 166.799 226.993 167.225 226.915 167.681C226.839 168.124 226.556 168.472 226.068 168.727ZM233.041 165.096C232.572 165.34 232.042 165.415 231.45 165.32C230.851 165.216 230.367 164.967 229.999 164.572C229.623 164.169 229.479 163.743 229.565 163.295C229.643 162.839 229.917 162.489 230.386 162.245C230.874 161.991 231.413 161.918 232.003 162.026C232.595 162.121 233.079 162.37 233.454 162.774C233.822 163.169 233.967 163.594 233.888 164.051C233.812 164.493 233.53 164.842 233.041 165.096ZM268.015 146.889C267.547 147.133 267.016 147.207 266.424 147.112C265.825 147.009 265.341 146.76 264.973 146.365C264.598 145.961 264.453 145.536 264.539 145.088C264.618 144.631 264.891 144.281 265.36 144.037C265.849 143.783 266.388 143.71 266.977 143.818C267.569 143.913 268.053 144.163 268.428 144.566C268.796 144.961 268.941 145.387 268.862 145.843C268.786 146.286 268.504 146.634 268.015 146.889ZM274.989 143.258C274.52 143.502 273.99 143.577 273.398 143.482C272.798 143.378 272.314 143.129 271.947 142.734C271.571 142.331 271.426 141.905 271.513 141.457C271.591 141.001 271.865 140.651 272.333 140.407C272.822 140.153 273.361 140.08 273.951 140.188C274.542 140.283 275.026 140.532 275.402 140.936C275.77 141.331 275.914 141.756 275.836 142.213C275.76 142.655 275.477 143.004 274.989 143.258ZM281.962 139.628C281.493 139.872 280.963 139.947 280.371 139.851C279.771 139.748 279.288 139.499 278.92 139.104C278.544 138.701 278.4 138.275 278.486 137.827C278.564 137.371 278.838 137.021 279.307 136.777C279.795 136.522 280.334 136.449 280.924 136.558C281.516 136.653 281.999 136.902 282.375 137.305C282.743 137.7 282.887 138.126 282.809 138.582C282.733 139.025 282.45 139.374 281.962 139.628ZM288.935 135.998C288.466 136.242 287.936 136.316 287.344 136.221C286.745 136.118 286.261 135.869 285.893 135.474C285.518 135.07 285.373 134.645 285.459 134.197C285.538 133.74 285.811 133.39 286.28 133.146C286.768 132.892 287.307 132.819 287.897 132.928C288.489 133.023 288.973 133.272 289.348 133.675C289.716 134.07 289.861 134.496 289.782 134.952C289.706 135.395 289.424 135.743 288.935 135.998ZM322.247 119.535L321.638 118.881L321.45 109.998L322.692 109.351L328.232 115.301L329.833 114.468L330.534 115.221L328.933 116.054L330.887 118.153L329.855 118.69L327.901 116.592L322.247 119.535ZM322.59 110.816L322.758 118.151L327.245 115.815L322.59 110.816ZM333.047 104.987L327.573 107.837L330.515 110.997C330.496 110.579 330.642 110.155 330.952 109.725C331.254 109.287 331.685 108.922 332.243 108.631C333.061 108.206 333.859 107.998 334.638 108.008C335.41 108.009 336.117 108.172 336.76 108.497C337.395 108.814 337.947 109.224 338.414 109.726C338.951 110.302 339.303 110.894 339.47 111.504C339.64 112.099 339.577 112.676 339.282 113.233C338.996 113.785 338.45 114.271 337.642 114.692C336.615 115.226 335.579 115.442 334.535 115.338C333.483 115.225 332.538 114.831 331.701 114.155L332.733 113.618C333.369 114.093 334.059 114.357 334.803 114.41C335.548 114.462 336.264 114.309 336.952 113.951C337.82 113.499 338.277 112.949 338.325 112.301C338.376 111.64 338.075 110.959 337.424 110.26C336.788 109.577 336.069 109.163 335.268 109.018C334.459 108.864 333.636 109.006 332.798 109.442C332.22 109.743 331.815 110.119 331.583 110.57C331.351 111.02 331.307 111.489 331.45 111.977L330.463 112.491L325.899 107.59L332.346 104.234L333.047 104.987ZM343.002 101.912C341.786 100.956 340.535 100.813 339.249 101.483C338.272 101.992 337.83 102.686 337.924 103.566C338.018 104.446 338.747 105.587 340.113 106.99C339.853 106.392 339.871 105.808 340.169 105.238C340.469 104.654 340.984 104.173 341.711 103.794C342.758 103.249 343.835 103.085 344.942 103.303C346.05 103.508 347.037 104.076 347.903 105.006C348.409 105.549 348.739 106.11 348.894 106.689C349.051 107.255 348.988 107.807 348.704 108.346C348.431 108.879 347.905 109.348 347.128 109.753C345.642 110.527 344.251 110.67 342.954 110.185C341.668 109.693 340.358 108.732 339.025 107.3C336.189 104.255 336.038 102.073 338.571 100.755C339.528 100.256 340.484 100.083 341.439 100.233C342.386 100.376 343.231 100.767 343.974 101.406L343.002 101.912ZM342.207 104.635C341.738 104.879 341.367 105.189 341.094 105.563C340.821 105.937 340.699 106.355 340.729 106.816C340.76 107.264 340.991 107.718 341.42 108.179C342.041 108.846 342.797 109.277 343.69 109.472C344.582 109.667 345.487 109.526 346.405 109.048C347.172 108.649 347.606 108.136 347.704 107.51C347.803 106.885 347.542 106.239 346.921 105.572C346.254 104.856 345.509 104.413 344.684 104.244C343.86 104.074 343.034 104.205 342.207 104.635ZM350.279 101.239C349.508 101.397 348.793 101.384 348.134 101.201C347.486 101.014 346.928 100.669 346.46 100.167C346.046 99.7223 345.813 99.2572 345.761 98.7714C345.71 98.2722 345.857 97.7862 346.202 97.3136C346.539 96.8327 347.076 96.4002 347.814 96.0161C348.552 95.6319 349.281 95.4051 350.001 95.3357C350.714 95.2581 351.369 95.3262 351.968 95.5399C352.569 95.7402 353.076 96.0625 353.49 96.5069C353.95 97.0007 354.184 97.5142 354.192 98.0477C354.21 98.5759 353.983 99.0791 353.51 99.5573C354.319 99.3442 355.101 99.3339 355.858 99.5265C356.614 99.719 357.257 100.099 357.786 100.667C358.276 101.194 358.546 101.738 358.595 102.299C358.646 102.847 358.482 103.378 358.103 103.893C357.734 104.403 357.17 104.855 356.412 105.25C355.654 105.644 354.887 105.885 354.109 105.972C353.341 106.054 352.618 105.985 351.939 105.764C351.262 105.53 350.678 105.149 350.188 104.623C349.659 104.055 349.405 103.472 349.426 102.875C349.447 102.277 349.732 101.732 350.279 101.239ZM352.565 97.1351C352.059 96.592 351.444 96.2891 350.719 96.2264C349.995 96.1638 349.249 96.3323 348.481 96.732C347.713 97.1317 347.243 97.5965 347.07 98.1264C346.889 98.648 347.056 99.1846 347.569 99.7359C348.044 100.246 348.653 100.534 349.395 100.6C350.138 100.666 350.883 100.504 351.63 100.114C352.378 99.725 352.84 99.2587 353.015 98.7154C353.19 98.1721 353.04 97.6454 352.565 97.1351ZM352.251 100.781C351.433 101.207 350.907 101.707 350.672 102.281C350.437 102.856 350.607 103.451 351.182 104.069C351.734 104.661 352.416 104.996 353.229 105.074C354.041 105.152 354.876 104.968 355.734 104.521C356.582 104.08 357.098 103.561 357.282 102.964C357.459 102.359 357.275 101.764 356.731 101.18C356.164 100.571 355.479 100.249 354.677 100.214C353.878 100.166 353.069 100.355 352.251 100.781Z" fill="#1D212A"/>
<path d="M175.654 228.404C175.085 228.7 174.781 229.091 174.743 229.577C174.705 230.059 174.939 230.572 175.445 231.116C175.966 231.675 176.527 232.025 177.128 232.166C177.729 232.304 178.324 232.22 178.912 231.914C179.273 231.726 179.635 231.458 179.998 231.11L180.404 231.546C180.148 231.844 179.757 232.13 179.231 232.404C178.468 232.801 177.702 232.916 176.931 232.751C176.162 232.584 175.45 232.149 174.795 231.446C174.385 231.005 174.125 230.568 174.015 230.133C173.907 229.698 173.958 229.293 174.166 228.918C174.377 228.542 174.737 228.221 175.247 227.956C175.79 227.673 176.341 227.508 176.899 227.46L177.041 228.02C176.508 228.072 176.045 228.2 175.654 228.404ZM183.932 229.869L183.391 229.474L183.362 229.489C183.356 229.791 183.289 230.028 183.163 230.201C183.037 230.37 182.83 230.53 182.542 230.68C182.157 230.88 181.779 230.956 181.407 230.906C181.037 230.856 180.712 230.68 180.43 230.378C179.828 229.731 180.139 229.065 181.364 228.382L182.006 228.021L181.821 227.823C181.587 227.571 181.349 227.421 181.106 227.371C180.863 227.317 180.598 227.366 180.31 227.516C179.987 227.684 179.697 227.956 179.441 228.333L178.915 228.055C179.026 227.87 179.173 227.694 179.354 227.528C179.538 227.36 179.744 227.216 179.973 227.097C180.435 226.856 180.857 226.763 181.236 226.816C181.619 226.869 181.984 227.083 182.332 227.457L184.368 229.643L183.932 229.869ZM182.286 230.219C182.652 230.028 182.861 229.796 182.915 229.522C182.971 229.247 182.86 228.961 182.582 228.663L182.313 228.374L181.744 228.7C181.29 228.957 181.008 229.193 180.9 229.408C180.793 229.621 180.843 229.839 181.052 230.063C181.215 230.238 181.403 230.338 181.616 230.363C181.831 230.387 182.054 230.339 182.286 230.219ZM184.316 224.827C184.488 224.738 184.654 224.669 184.812 224.621L185.15 225.113C184.962 225.168 184.807 225.227 184.684 225.291C184.37 225.454 184.199 225.699 184.171 226.027C184.145 226.352 184.278 226.672 184.57 226.986L186.17 228.704L185.582 229.01L182.6 225.807L183.085 225.555L183.704 226.113L183.733 226.098C183.683 225.815 183.707 225.564 183.804 225.345C183.902 225.126 184.073 224.954 184.316 224.827ZM190.784 225.664L190.752 225.681C190.784 226.148 190.529 226.522 189.989 226.803C189.481 227.067 188.952 227.13 188.402 226.991C187.855 226.851 187.335 226.517 186.843 225.989C186.352 225.461 186.111 224.977 186.123 224.537C186.134 224.098 186.392 223.746 186.897 223.483C187.424 223.209 187.974 223.157 188.549 223.326L188.595 223.302L188.355 223.084L188.132 222.867L186.918 221.563L187.506 221.257L191.74 225.805L191.262 226.053L190.784 225.664ZM189.685 226.358C190.086 226.149 190.293 225.909 190.305 225.636C190.318 225.36 190.138 225.022 189.764 224.62L189.669 224.518C189.246 224.064 188.853 223.788 188.489 223.691C188.126 223.591 187.744 223.646 187.343 223.855C186.998 224.034 186.837 224.283 186.86 224.601C186.883 224.915 187.082 225.274 187.458 225.678C187.839 226.087 188.217 226.348 188.593 226.462C188.969 226.576 189.333 226.541 189.685 226.358ZM198.893 222.081L198.291 222.394L196.419 220.384L193.692 221.803L195.564 223.814L194.962 224.127L190.984 219.854L191.586 219.541L193.278 221.359L196.005 219.939L194.312 218.122L194.914 217.808L198.893 222.081ZM202.084 218.037C202.57 218.56 202.791 219.051 202.746 219.511C202.699 219.969 202.395 220.344 201.833 220.637C201.486 220.817 201.116 220.911 200.721 220.916C200.327 220.922 199.94 220.837 199.559 220.662C199.179 220.487 198.832 220.231 198.518 219.894C198.032 219.372 197.812 218.883 197.858 218.428C197.902 217.971 198.205 217.597 198.767 217.304C199.31 217.021 199.879 216.946 200.475 217.078C201.074 217.209 201.61 217.529 202.084 218.037ZM199.127 219.577C199.508 219.986 199.897 220.246 200.295 220.357C200.693 220.468 201.084 220.424 201.469 220.223C201.854 220.023 202.047 219.765 202.047 219.449C202.048 219.131 201.857 218.766 201.475 218.355C201.095 217.947 200.708 217.691 200.311 217.585C199.915 217.476 199.522 217.523 199.133 217.725C198.748 217.926 198.555 218.181 198.553 218.492C198.551 218.802 198.742 219.164 199.127 219.577ZM205.199 218.798L204.612 219.104L200.377 214.556L200.965 214.25L205.199 218.798ZM208.687 216.344L208.656 216.36C208.687 216.827 208.433 217.201 207.892 217.483C207.384 217.747 206.856 217.81 206.306 217.671C205.758 217.53 205.238 217.196 204.747 216.668C204.255 216.14 204.015 215.657 204.026 215.217C204.037 214.777 204.295 214.426 204.801 214.163C205.327 213.889 205.878 213.836 206.452 214.006L206.498 213.982L206.259 213.764L206.035 213.546L204.821 212.243L205.409 211.937L209.643 216.484L209.165 216.733L208.687 216.344ZM207.588 217.038C207.989 216.829 208.196 216.588 208.209 216.315C208.222 216.04 208.041 215.701 207.668 215.3L207.573 215.197C207.15 214.743 206.757 214.468 206.393 214.371C206.03 214.271 205.647 214.325 205.246 214.534C204.901 214.713 204.74 214.962 204.763 215.28C204.786 215.595 204.986 215.954 205.361 216.357C205.742 216.766 206.121 217.028 206.497 217.142C206.872 217.255 207.236 217.221 207.588 217.038ZM212.587 215.038C212.014 215.337 211.426 215.429 210.825 215.314C210.226 215.197 209.688 214.883 209.211 214.371C208.73 213.854 208.501 213.364 208.525 212.901C208.552 212.436 208.824 212.068 209.344 211.798C209.83 211.544 210.338 211.477 210.868 211.594C211.396 211.71 211.862 211.984 212.265 212.416L212.55 212.723L209.877 214.115C210.239 214.485 210.619 214.711 211.018 214.792C211.419 214.873 211.817 214.81 212.214 214.603C212.632 214.386 212.978 214.099 213.252 213.742L213.655 214.174C213.516 214.357 213.368 214.512 213.21 214.64C213.057 214.769 212.849 214.902 212.587 215.038ZM209.715 212.208C209.403 212.37 209.232 212.583 209.202 212.848C209.174 213.111 209.281 213.4 209.524 213.713L211.553 212.657C211.268 212.351 210.967 212.16 210.652 212.084C210.334 212.007 210.022 212.048 209.715 212.208ZM213.699 209.53C213.871 209.44 214.037 209.372 214.196 209.324L214.533 209.816C214.346 209.871 214.19 209.93 214.068 209.994C213.754 210.157 213.582 210.402 213.554 210.73C213.528 211.055 213.661 211.375 213.953 211.689L215.553 213.407L214.966 213.713L211.983 210.51L212.468 210.258L213.088 210.816L213.116 210.801C213.066 210.518 213.09 210.267 213.188 210.048C213.286 209.829 213.456 209.657 213.699 209.53Z" fill="#B6BFD9"/>
<path d="M188.106 238.212C188.763 238.917 189.033 239.578 188.916 240.194C188.8 240.807 188.307 241.34 187.435 241.794L186.001 242.541L182.023 238.268L183.609 237.442C184.414 237.023 185.211 236.881 186 237.017C186.789 237.153 187.491 237.552 188.106 238.212ZM187.485 238.561C186.966 238.004 186.405 237.673 185.802 237.567C185.202 237.461 184.568 237.581 183.899 237.929L183.025 238.384L186.203 241.798L186.936 241.416C187.654 241.042 188.058 240.616 188.149 240.138C188.238 239.658 188.017 239.132 187.485 238.561ZM196.15 237.257L194.21 235.174C193.972 234.918 193.728 234.762 193.478 234.704C193.226 234.644 192.961 234.687 192.682 234.832C192.316 235.022 192.127 235.25 192.113 235.514C192.1 235.778 192.261 236.091 192.597 236.451L194.263 238.24L193.675 238.546L191.734 236.462C191.497 236.207 191.253 236.05 191.003 235.993C190.751 235.933 190.484 235.976 190.203 236.122C189.835 236.314 189.65 236.546 189.648 236.819C189.647 237.089 189.84 237.431 190.226 237.846L191.791 239.526L191.203 239.833L188.221 236.63L188.699 236.381L189.202 236.769L189.231 236.755C189.197 236.541 189.239 236.338 189.358 236.146C189.479 235.953 189.665 235.791 189.915 235.66C190.522 235.345 191.087 235.319 191.611 235.585L191.64 235.57C191.599 235.342 191.644 235.122 191.772 234.911C191.901 234.699 192.106 234.52 192.387 234.374C192.826 234.145 193.241 234.068 193.633 234.142C194.025 234.213 194.411 234.453 194.792 234.862L196.738 236.951L196.15 237.257ZM198.54 236.013L197.952 236.319L194.97 233.116L195.558 232.81L198.54 236.013ZM194.112 232.274C194.009 232.163 193.966 232.065 193.985 231.98C194.002 231.893 194.06 231.823 194.16 231.772C194.254 231.722 194.36 231.706 194.477 231.723C194.595 231.74 194.704 231.803 194.806 231.912C194.908 232.022 194.95 232.121 194.932 232.211C194.912 232.3 194.855 232.368 194.761 232.417C194.662 232.469 194.555 232.486 194.44 232.468C194.323 232.447 194.214 232.383 194.112 232.274ZM200.722 234.369C200.826 234.315 200.92 234.257 201.006 234.195C201.09 234.131 201.154 234.078 201.198 234.034L201.544 234.406C201.504 234.464 201.428 234.534 201.318 234.614C201.211 234.696 201.109 234.762 201.009 234.814C200.259 235.205 199.58 235.074 198.972 234.421L197.198 232.516L196.642 232.805L196.424 232.571L196.792 232.08L196.403 231.268L196.743 231.091L197.434 231.833L198.56 231.247L198.911 231.624L197.785 232.21L199.541 234.095C199.72 234.288 199.914 234.407 200.121 234.452C200.328 234.498 200.528 234.47 200.722 234.369ZM201.084 229.846C201.256 229.756 201.422 229.688 201.58 229.64L201.918 230.132C201.73 230.187 201.575 230.246 201.452 230.31C201.138 230.473 200.967 230.718 200.939 231.045C200.913 231.371 201.046 231.691 201.338 232.005L202.938 233.723L202.35 234.029L199.368 230.826L199.853 230.574L200.473 231.132L200.501 231.117C200.451 230.834 200.475 230.583 200.572 230.364C200.67 230.145 200.841 229.973 201.084 229.846ZM201.712 229.606L202.342 229.278L204.893 230.662C205.468 230.982 205.863 231.223 206.081 231.384L206.109 231.37C206.047 231.254 205.953 231.051 205.827 230.761C205.701 230.468 205.333 229.561 204.722 228.039L205.352 227.711L207.08 232.226C207.251 232.673 207.295 233.029 207.213 233.294C207.135 233.561 206.935 233.777 206.614 233.944C206.435 234.038 206.242 234.113 206.037 234.171L205.675 233.783C205.826 233.738 205.982 233.674 206.143 233.591C206.547 233.381 206.66 233.044 206.484 232.58L206.276 232.012L201.712 229.606ZM214.677 227.612L213.968 227.981L210.152 226.891L209.98 227.571L211.539 229.245L210.937 229.559L206.959 225.286L207.561 224.973L209.534 227.092L209.908 223.751L210.62 223.38L210.266 226.32L214.677 227.612ZM217.69 226.043L217.149 225.648L217.12 225.663C217.114 225.965 217.047 226.202 216.92 226.375C216.795 226.544 216.588 226.704 216.3 226.854C215.915 227.054 215.536 227.13 215.165 227.08C214.795 227.03 214.47 226.854 214.188 226.552C213.586 225.905 213.897 225.239 215.122 224.556L215.764 224.195L215.579 223.997C215.345 223.745 215.106 223.595 214.864 223.545C214.621 223.491 214.356 223.54 214.068 223.69C213.745 223.858 213.455 224.13 213.199 224.507L212.673 224.229C212.784 224.044 212.93 223.868 213.112 223.702C213.295 223.534 213.502 223.39 213.731 223.271C214.193 223.03 214.615 222.936 214.994 222.99C215.376 223.043 215.742 223.257 216.09 223.631L218.125 225.817L217.69 226.043ZM216.044 226.393C216.41 226.202 216.619 225.97 216.673 225.696C216.729 225.421 216.618 225.135 216.34 224.837L216.071 224.547L215.502 224.874C215.047 225.131 214.766 225.367 214.658 225.582C214.551 225.795 214.601 226.013 214.81 226.237C214.973 226.412 215.161 226.512 215.374 226.537C215.589 226.561 215.812 226.513 216.044 226.393ZM221.996 223.802L220.066 221.73C219.823 221.469 219.57 221.311 219.306 221.258C219.042 221.204 218.757 221.257 218.45 221.417C218.044 221.628 217.831 221.874 217.811 222.153C217.791 222.433 217.975 222.781 218.363 223.198L219.928 224.878L219.34 225.184L216.358 221.981L216.836 221.733L217.339 222.121L217.368 222.106C217.341 221.886 217.397 221.676 217.534 221.477C217.669 221.277 217.871 221.107 218.137 220.968C218.605 220.725 219.044 220.635 219.454 220.699C219.862 220.761 220.257 220.997 220.638 221.406L222.584 223.496L221.996 223.802ZM226.036 221.06L226.004 221.077C226.036 221.544 225.781 221.918 225.241 222.199C224.733 222.463 224.204 222.526 223.654 222.387C223.107 222.247 222.587 221.913 222.096 221.385C221.604 220.857 221.364 220.373 221.375 219.933C221.386 219.494 221.644 219.142 222.149 218.879C222.676 218.605 223.226 218.553 223.801 218.722L223.847 218.698L223.607 218.48L223.384 218.263L222.17 216.959L222.758 216.653L226.992 221.201L226.514 221.449L226.036 221.06ZM224.937 221.754C225.338 221.545 225.545 221.305 225.558 221.032C225.571 220.756 225.39 220.418 225.017 220.016L224.921 219.914C224.499 219.46 224.105 219.184 223.742 219.087C223.378 218.987 222.996 219.042 222.595 219.251C222.25 219.43 222.089 219.679 222.112 219.997C222.135 220.311 222.335 220.67 222.71 221.074C223.091 221.483 223.469 221.744 223.845 221.858C224.221 221.972 224.585 221.937 224.937 221.754Z" fill="#1D212A"/>
</g>
<rect x="3.13901" y="0.540416" width="292.88" height="188.535" rx="11.2958" transform="matrix(0.887222 -0.461094 0.682284 0.731302 53.3183 148.128)" fill="url(#paint2_linear_789_0)" stroke="url(#paint3_linear_789_0)" stroke-width="4"/>
<ellipse opacity="0.8" cx="19.2078" cy="16.4645" rx="19.2078" ry="16.4645" transform="matrix(0.887222 -0.461094 0.682284 0.731302 101.195 160.602)" fill="#8770FF"/>
<ellipse opacity="0.5" cx="19.2078" cy="16.4645" rx="19.2078" ry="16.4645" transform="matrix(0.887222 -0.461094 0.682284 0.731302 120.367 150.638)" fill="#8770FF"/>
<path d="M155.676 206.01C155.207 206.254 154.677 206.328 154.085 206.233C153.485 206.13 153 205.881 152.632 205.486C152.256 205.083 152.111 204.658 152.197 204.211C152.276 203.755 152.549 203.405 153.018 203.161C153.507 202.907 154.046 202.835 154.636 202.943C155.229 203.038 155.713 203.287 156.089 203.69C156.457 204.085 156.602 204.51 156.523 204.966C156.447 205.408 156.165 205.756 155.676 206.01ZM162.652 202.385C162.183 202.629 161.653 202.703 161.06 202.608C160.46 202.505 159.976 202.256 159.608 201.861C159.232 201.458 159.087 201.033 159.173 200.585C159.252 200.129 159.525 199.78 159.994 199.536C160.483 199.282 161.022 199.209 161.612 199.318C162.205 199.413 162.689 199.662 163.064 200.065C163.433 200.459 163.578 200.885 163.499 201.34C163.423 201.783 163.141 202.131 162.652 202.385ZM169.628 198.76C169.159 199.003 168.628 199.078 168.036 198.982C167.436 198.879 166.952 198.63 166.584 198.236C166.208 197.833 166.063 197.407 166.149 196.96C166.227 196.504 166.501 196.154 166.97 195.911C167.459 195.657 167.998 195.584 168.588 195.692C169.18 195.787 169.664 196.036 170.04 196.439C170.409 196.834 170.553 197.259 170.475 197.715C170.399 198.157 170.117 198.506 169.628 198.76ZM176.604 195.134C176.135 195.378 175.604 195.452 175.012 195.357C174.412 195.254 173.928 195.005 173.56 194.61C173.184 194.207 173.039 193.782 173.125 193.334C173.203 192.879 173.477 192.529 173.946 192.285C174.434 192.031 174.974 191.958 175.564 192.067C176.156 192.162 176.64 192.411 177.016 192.814C177.384 193.209 177.529 193.634 177.451 194.09C177.375 194.532 177.092 194.88 176.604 195.134ZM211.591 176.951C211.122 177.195 210.591 177.269 209.999 177.174C209.399 177.071 208.915 176.822 208.547 176.427C208.171 176.024 208.026 175.599 208.112 175.151C208.19 174.696 208.464 174.346 208.933 174.102C209.422 173.848 209.961 173.775 210.551 173.884C211.143 173.979 211.627 174.228 212.003 174.631C212.371 175.026 212.516 175.451 212.438 175.907C212.362 176.349 212.08 176.697 211.591 176.951ZM218.567 173.326C218.098 173.57 217.567 173.644 216.975 173.549C216.375 173.445 215.891 173.196 215.523 172.802C215.147 172.399 215.002 171.974 215.088 171.526C215.166 171.07 215.44 170.721 215.909 170.477C216.397 170.223 216.937 170.15 217.527 170.259C218.119 170.354 218.603 170.603 218.979 171.006C219.347 171.4 219.492 171.825 219.414 172.281C219.338 172.724 219.055 173.072 218.567 173.326ZM225.542 169.7C225.074 169.944 224.543 170.018 223.951 169.923C223.351 169.82 222.867 169.571 222.499 169.176C222.123 168.774 221.978 168.348 222.064 167.901C222.142 167.445 222.416 167.095 222.884 166.852C223.373 166.598 223.913 166.525 224.503 166.633C225.095 166.728 225.579 166.977 225.955 167.38C226.323 167.775 226.468 168.2 226.39 168.656C226.314 169.098 226.031 169.446 225.542 169.7ZM232.518 166.075C232.049 166.319 231.519 166.393 230.927 166.298C230.327 166.195 229.843 165.946 229.474 165.551C229.098 165.148 228.953 164.723 229.04 164.275C229.118 163.82 229.391 163.47 229.86 163.226C230.349 162.972 230.888 162.899 231.478 163.008C232.071 163.103 232.555 163.352 232.931 163.755C233.299 164.149 233.444 164.575 233.366 165.03C233.289 165.473 233.007 165.821 232.518 166.075ZM267.505 147.892C267.037 148.136 266.506 148.21 265.914 148.115C265.314 148.012 264.83 147.763 264.461 147.368C264.086 146.965 263.941 146.54 264.027 146.092C264.105 145.637 264.379 145.287 264.847 145.043C265.336 144.789 265.876 144.716 266.466 144.825C267.058 144.92 267.542 145.169 267.918 145.572C268.286 145.966 268.431 146.392 268.353 146.847C268.277 147.29 267.994 147.638 267.505 147.892ZM274.481 144.267C274.012 144.51 273.482 144.585 272.89 144.49C272.29 144.386 271.805 144.137 271.437 143.743C271.061 143.34 270.916 142.915 271.002 142.467C271.081 142.011 271.354 141.661 271.823 141.418C272.312 141.164 272.851 141.091 273.441 141.199C274.034 141.295 274.518 141.544 274.894 141.946C275.262 142.341 275.407 142.766 275.328 143.222C275.252 143.665 274.97 144.013 274.481 144.267ZM281.457 140.641C280.988 140.885 280.458 140.959 279.865 140.864C279.265 140.761 278.781 140.512 278.413 140.117C278.037 139.714 277.892 139.289 277.978 138.842C278.057 138.386 278.33 138.036 278.799 137.792C279.288 137.538 279.827 137.466 280.417 137.574C281.01 137.669 281.494 137.918 281.869 138.321C282.238 138.716 282.383 139.141 282.304 139.597C282.228 140.039 281.946 140.387 281.457 140.641ZM288.433 137.016C287.964 137.26 287.433 137.334 286.841 137.239C286.241 137.136 285.757 136.887 285.389 136.492C285.013 136.089 284.868 135.664 284.954 135.216C285.032 134.76 285.306 134.411 285.775 134.167C286.264 133.913 286.803 133.84 287.393 133.949C287.985 134.044 288.469 134.293 288.845 134.696C289.214 135.09 289.358 135.516 289.28 135.971C289.204 136.414 288.922 136.762 288.433 137.016ZM321.758 120.576L321.148 119.922L320.956 111.048L322.198 110.403L327.744 116.348L329.345 115.516L330.047 116.268L328.446 117.1L330.402 119.197L329.37 119.733L327.414 117.636L321.758 120.576ZM322.097 111.866L322.268 119.194L326.757 116.861L322.097 111.866ZM332.558 106.045L327.081 108.891L330.027 112.048C330.008 111.631 330.153 111.207 330.463 110.777C330.766 110.339 331.196 109.975 331.755 109.685C332.573 109.26 333.371 109.052 334.151 109.062C334.923 109.064 335.631 109.227 336.274 109.552C336.91 109.869 337.462 110.278 337.93 110.779C338.467 111.355 338.82 111.947 338.988 112.556C339.158 113.151 339.095 113.727 338.8 114.283C338.514 114.834 337.967 115.32 337.159 115.74C336.132 116.274 335.096 116.489 334.051 116.385C332.998 116.273 332.053 115.879 331.215 115.203L332.248 114.666C332.884 115.142 333.574 115.406 334.319 115.458C335.064 115.51 335.781 115.358 336.469 115C337.337 114.549 337.795 114 337.842 113.352C337.892 112.691 337.591 112.011 336.939 111.313C336.302 110.63 335.583 110.216 334.782 110.072C333.972 109.918 333.148 110.06 332.311 110.495C331.732 110.796 331.327 111.171 331.095 111.621C330.863 112.071 330.819 112.54 330.962 113.027L329.975 113.54L325.407 108.644L331.856 105.292L332.558 106.045ZM342.517 102.975C341.3 102.02 340.049 101.877 338.762 102.546C337.784 103.054 337.343 103.747 337.437 104.626C337.531 105.505 338.262 106.645 339.629 108.047C339.368 107.45 339.386 106.866 339.684 106.297C339.984 105.713 340.499 105.232 341.227 104.854C342.274 104.31 343.351 104.147 344.458 104.365C345.568 104.57 346.556 105.137 347.423 106.066C347.929 106.608 348.26 107.169 348.415 107.748C348.572 108.313 348.509 108.865 348.226 109.403C347.952 109.935 347.427 110.404 346.649 110.808C345.162 111.581 343.77 111.724 342.473 111.238C341.186 110.748 339.875 109.787 338.54 108.356C335.702 105.314 335.549 103.135 338.083 101.818C339.041 101.32 339.997 101.147 340.952 101.297C341.9 101.44 342.746 101.83 343.49 102.469L342.517 102.975ZM341.723 105.695C341.254 105.939 340.883 106.248 340.61 106.621C340.336 106.995 340.215 107.413 340.244 107.873C340.277 108.321 340.507 108.774 340.937 109.235C341.558 109.901 342.316 110.331 343.209 110.527C344.102 110.722 345.007 110.581 345.925 110.104C346.693 109.705 347.126 109.193 347.224 108.568C347.323 107.943 347.061 107.297 346.44 106.631C345.772 105.916 345.026 105.474 344.202 105.304C343.377 105.134 342.551 105.265 341.723 105.695ZM349.799 102.304C349.027 102.461 348.311 102.448 347.652 102.265C347.003 102.078 346.445 101.733 345.977 101.232C345.563 100.788 345.329 100.323 345.276 99.8377C345.226 99.339 345.373 98.8536 345.717 98.3815C346.054 97.9011 346.592 97.4692 347.33 97.0856C348.068 96.7019 348.797 96.4755 349.518 96.4063C350.231 96.3289 350.886 96.3969 351.486 96.6105C352.087 96.8107 352.595 97.1328 353.009 97.5768C353.47 98.0701 353.704 98.5832 353.712 99.1161C353.73 99.6437 353.503 100.146 353.031 100.624C353.839 100.411 354.622 100.401 355.38 100.594C356.137 100.786 356.78 101.166 357.309 101.733C357.8 102.26 358.07 102.803 358.119 103.363C358.171 103.911 358.007 104.441 357.628 104.956C357.258 105.465 356.695 105.917 355.937 106.311C355.179 106.705 354.411 106.945 353.632 107.032C352.864 107.114 352.141 107.044 351.461 106.824C350.783 106.59 350.199 106.21 349.708 105.684C349.179 105.116 348.925 104.534 348.946 103.937C348.966 103.341 349.251 102.796 349.799 102.304ZM352.084 98.2042C351.578 97.6616 350.962 97.3589 350.237 97.2962C349.512 97.2335 348.765 97.4017 347.997 97.8009C347.229 98.2001 346.759 98.6643 346.586 99.1936C346.406 99.7146 346.572 100.251 347.086 100.801C347.562 101.311 348.171 101.599 348.914 101.665C349.656 101.731 350.402 101.569 351.15 101.18C351.898 100.791 352.36 100.326 352.535 99.7829C352.71 99.2402 352.559 98.714 352.084 98.2042ZM351.771 101.846C350.953 102.271 350.427 102.771 350.192 103.345C349.957 103.918 350.127 104.514 350.703 105.13C351.255 105.722 351.938 106.057 352.751 106.135C353.564 106.213 354.4 106.029 355.258 105.583C356.106 105.142 356.622 104.624 356.806 104.028C356.983 103.423 356.799 102.829 356.254 102.245C355.686 101.637 355.001 101.315 354.199 101.281C353.398 101.233 352.589 101.421 351.771 101.846Z" fill="#1D212A"/>
<path d="M175.078 229.268C174.792 229.417 174.573 229.591 174.42 229.792C174.268 229.99 174.183 230.207 174.166 230.444C174.149 230.679 174.199 230.926 174.316 231.186C174.432 231.446 174.617 231.712 174.869 231.982C175.203 232.34 175.561 232.617 175.943 232.812C176.325 233.003 176.718 233.101 177.121 233.105C177.527 233.108 177.934 233.004 178.34 232.793C178.571 232.673 178.774 232.544 178.948 232.407C179.122 232.268 179.284 232.123 179.432 231.974L179.835 232.406C179.701 232.562 179.542 232.708 179.36 232.844C179.179 232.981 178.946 233.124 178.661 233.272C178.134 233.546 177.61 233.685 177.089 233.69C176.568 233.692 176.066 233.574 175.581 233.338C175.1 233.099 174.65 232.756 174.232 232.309C173.931 231.986 173.71 231.663 173.57 231.339C173.43 231.013 173.375 230.698 173.403 230.394C173.434 230.089 173.554 229.804 173.763 229.539C173.973 229.272 174.277 229.034 174.676 228.827C174.938 228.69 175.211 228.58 175.494 228.497C175.777 228.413 176.054 228.36 176.325 228.338L176.476 228.884C176.253 228.908 176.021 228.949 175.781 229.007C175.541 229.062 175.307 229.149 175.078 229.268ZM179.394 227.975C179.856 227.734 180.28 227.641 180.664 227.696C181.048 227.751 181.416 227.966 181.766 228.341L183.796 230.517L183.367 230.739L182.812 230.325L182.784 230.34C182.784 230.513 182.763 230.671 182.719 230.812C182.674 230.951 182.592 231.081 182.474 231.203C182.357 231.322 182.186 231.44 181.962 231.556C181.726 231.679 181.484 231.754 181.236 231.782C180.991 231.808 180.75 231.78 180.515 231.697C180.282 231.613 180.067 231.465 179.869 231.252C179.571 230.933 179.496 230.608 179.643 230.277C179.79 229.946 180.171 229.61 180.784 229.268L181.432 228.897L181.249 228.701C180.992 228.425 180.739 228.268 180.491 228.232C180.244 228.196 179.989 228.246 179.727 228.382C179.524 228.488 179.353 228.613 179.214 228.757C179.075 228.902 178.954 229.05 178.85 229.202L178.326 228.928C178.432 228.763 178.574 228.596 178.752 228.425C178.929 228.255 179.143 228.105 179.394 227.975ZM181.744 229.242L181.171 229.57C180.702 229.837 180.421 230.08 180.33 230.297C180.239 230.515 180.291 230.729 180.487 230.94C180.658 231.123 180.852 231.223 181.068 231.241C181.284 231.258 181.503 231.209 181.725 231.094C182.07 230.915 182.279 230.689 182.351 230.418C182.424 230.146 182.313 229.852 182.019 229.537L181.744 229.242ZM183.731 225.712C183.809 225.671 183.894 225.633 183.986 225.596C184.077 225.558 184.161 225.528 184.238 225.505L184.583 225.993C184.506 226.013 184.425 226.039 184.34 226.072C184.255 226.104 184.178 226.138 184.11 226.174C183.954 226.255 183.831 226.358 183.74 226.483C183.651 226.605 183.599 226.741 183.586 226.893C183.571 227.042 183.598 227.2 183.666 227.367C183.732 227.532 183.843 227.697 183.997 227.863L185.599 229.58L185.007 229.887L182.021 226.687L182.51 226.433L183.124 226.99L183.149 226.977C183.119 226.816 183.115 226.658 183.137 226.502C183.158 226.343 183.215 226.196 183.31 226.061C183.406 225.924 183.547 225.807 183.731 225.712ZM189.412 227.685C188.92 227.94 188.402 228.004 187.856 227.878C187.312 227.75 186.786 227.413 186.278 226.868C185.764 226.317 185.522 225.826 185.554 225.393C185.583 224.959 185.841 224.615 186.328 224.362C186.533 224.256 186.733 224.185 186.929 224.15C187.124 224.115 187.312 224.106 187.494 224.125C187.674 224.141 187.847 224.177 188.011 224.233L188.054 224.211C187.988 224.156 187.901 224.078 187.794 223.978C187.686 223.877 187.602 223.794 187.54 223.728L186.344 222.446L186.932 222.141L191.171 226.684L190.696 226.93L190.183 226.521L190.158 226.534C190.173 226.667 190.161 226.802 190.12 226.939C190.082 227.075 190.007 227.206 189.894 227.334C189.783 227.459 189.622 227.576 189.412 227.685ZM189.128 227.234C189.543 227.018 189.747 226.768 189.737 226.484C189.728 226.199 189.545 225.865 189.187 225.482L189.105 225.394C188.726 224.988 188.351 224.718 187.983 224.586C187.616 224.453 187.217 224.498 186.785 224.723C186.424 224.911 186.26 225.166 186.295 225.489C186.328 225.81 186.529 226.168 186.898 226.563C187.265 226.956 187.636 227.214 188.013 227.336C188.393 227.457 188.764 227.423 189.128 227.234ZM198.316 222.971L197.713 223.284L195.836 221.272L193.116 222.686L194.993 224.697L194.391 225.01L190.408 220.742L191.01 220.429L192.707 222.248L195.428 220.834L193.731 219.015L194.333 218.702L198.316 222.971ZM201.5 218.931C201.745 219.194 201.923 219.45 202.033 219.699C202.143 219.948 202.186 220.185 202.163 220.408C202.139 220.631 202.052 220.838 201.901 221.029C201.75 221.217 201.536 221.384 201.257 221.529C200.997 221.664 200.724 221.751 200.438 221.789C200.152 221.825 199.864 221.813 199.573 221.753C199.285 221.692 199.001 221.581 198.721 221.42C198.443 221.258 198.182 221.046 197.937 220.783C197.61 220.433 197.404 220.097 197.319 219.777C197.233 219.455 197.263 219.16 197.41 218.893C197.557 218.623 197.817 218.391 198.187 218.199C198.542 218.015 198.912 217.919 199.298 217.912C199.686 217.904 200.069 217.985 200.446 218.156C200.824 218.324 201.175 218.582 201.5 218.931ZM198.546 220.466C198.786 220.723 199.035 220.925 199.294 221.07C199.553 221.216 199.816 221.296 200.085 221.31C200.354 221.323 200.624 221.259 200.895 221.118C201.165 220.978 201.337 220.812 201.413 220.619C201.492 220.425 201.484 220.212 201.391 219.981C201.297 219.749 201.131 219.505 200.891 219.248C200.653 218.993 200.407 218.794 200.151 218.652C199.894 218.508 199.632 218.43 199.366 218.419C199.099 218.407 198.828 218.473 198.554 218.615C198.151 218.825 197.957 219.089 197.973 219.407C197.992 219.724 198.183 220.077 198.546 220.466ZM204.607 219.701L204.015 220.008L199.776 215.465L200.368 215.158L204.607 219.701ZM207.286 218.395C206.795 218.651 206.276 218.715 205.73 218.588C205.187 218.46 204.661 218.124 204.152 217.579C203.638 217.028 203.397 216.536 203.428 216.104C203.458 215.669 203.716 215.326 204.202 215.073C204.408 214.966 204.608 214.895 204.803 214.86C204.999 214.825 205.187 214.817 205.369 214.835C205.549 214.851 205.721 214.887 205.886 214.944L205.928 214.921C205.862 214.866 205.776 214.788 205.668 214.688C205.561 214.588 205.476 214.505 205.414 214.438L204.219 213.157L204.807 212.851L209.045 217.394L208.571 217.641L208.057 217.232L208.032 217.244C208.048 217.378 208.036 217.513 207.995 217.65C207.957 217.785 207.881 217.917 207.769 218.045C207.657 218.169 207.496 218.286 207.286 218.395ZM207.002 217.944C207.418 217.728 207.621 217.478 207.612 217.194C207.603 216.91 207.419 216.576 207.061 216.192L206.98 216.105C206.6 215.698 206.226 215.429 205.857 215.297C205.491 215.163 205.092 215.209 204.66 215.433C204.298 215.621 204.135 215.877 204.17 216.2C204.203 216.521 204.404 216.879 204.772 217.274C205.139 217.667 205.511 217.925 205.888 218.047C206.267 218.168 206.639 218.133 207.002 217.944ZM208.747 212.711C209.078 212.539 209.417 212.452 209.766 212.45C210.115 212.448 210.453 212.523 210.782 212.676C211.109 212.827 211.407 213.048 211.678 213.338L211.959 213.639L209.277 215.032C209.635 215.404 210.015 215.632 210.418 215.714C210.821 215.797 211.222 215.734 211.621 215.527C211.867 215.399 212.067 215.268 212.221 215.132C212.376 214.997 212.521 214.841 212.657 214.663L213.054 215.09C212.926 215.263 212.78 215.417 212.617 215.551C212.457 215.684 212.245 215.818 211.983 215.954C211.61 216.148 211.226 216.255 210.831 216.275C210.437 216.292 210.049 216.219 209.669 216.056C209.288 215.892 208.934 215.634 208.605 215.282C208.284 214.937 208.075 214.603 207.981 214.28C207.886 213.953 207.903 213.655 208.031 213.387C208.161 213.117 208.4 212.891 208.747 212.711ZM209.11 213.112C208.796 213.275 208.625 213.49 208.596 213.756C208.568 214.022 208.677 214.316 208.925 214.639L210.98 213.571C210.8 213.381 210.607 213.233 210.402 213.126C210.197 213.015 209.986 212.957 209.77 212.951C209.552 212.943 209.332 212.996 209.11 213.112ZM213.09 210.454C213.168 210.413 213.253 210.375 213.345 210.339C213.436 210.3 213.519 210.27 213.596 210.247L213.941 210.735C213.865 210.755 213.784 210.781 213.699 210.814C213.614 210.846 213.537 210.88 213.468 210.916C213.313 210.997 213.19 211.1 213.099 211.225C213.009 211.347 212.958 211.483 212.945 211.635C212.93 211.784 212.957 211.942 213.025 212.109C213.091 212.274 213.201 212.439 213.356 212.605L214.957 214.322L214.366 214.629L211.38 211.429L211.869 211.175L212.483 211.732L212.508 211.719C212.477 211.558 212.473 211.4 212.496 211.244C212.517 211.086 212.574 210.939 212.669 210.803C212.765 210.666 212.906 210.55 213.09 210.454Z" fill="#B6BFD9"/>
<path d="M362.672 137.433L359.788 138.931L355.806 134.662L358.689 133.164L359.098 133.602L356.817 134.788L358.105 136.169L360.255 135.051L360.658 135.483L358.508 136.601L359.982 138.18L362.263 136.995L362.672 137.433ZM363.127 134.764L360.327 133.899L361 133.55L363.174 134.25L363.044 132.487L363.71 132.141L363.825 134.401L366.77 135.303L366.097 135.652L363.792 134.913L363.915 136.787L363.249 137.133L363.127 134.764ZM366.313 130.702C366.797 130.451 367.311 130.387 367.855 130.512C368.399 130.637 368.928 130.974 369.442 131.525C369.782 131.889 370.001 132.229 370.099 132.545C370.198 132.861 370.185 133.145 370.062 133.397C369.942 133.647 369.719 133.857 369.393 134.026C369.187 134.133 368.986 134.205 368.788 134.241C368.591 134.277 368.401 134.286 368.219 134.268C368.037 134.25 367.868 134.215 367.711 134.163L367.669 134.185C367.747 134.258 367.84 134.345 367.95 134.447C368.061 134.548 368.154 134.638 368.229 134.718L369.455 136.032L368.863 136.339L364.543 131.709L365.028 131.456L365.547 131.889L365.576 131.874C365.56 131.738 365.57 131.601 365.604 131.465C365.636 131.327 365.709 131.194 365.821 131.066C365.934 130.935 366.098 130.814 366.313 130.702ZM366.591 131.164C366.322 131.304 366.145 131.46 366.059 131.632C365.976 131.802 365.977 131.992 366.061 132.203C366.143 132.411 366.302 132.645 366.537 132.905L366.624 132.998C366.877 133.269 367.126 133.479 367.371 133.629C367.618 133.778 367.87 133.858 368.126 133.87C368.385 133.88 368.654 133.812 368.936 133.666C369.176 133.541 369.327 133.383 369.388 133.192C369.449 133.002 369.429 132.791 369.329 132.56C369.229 132.325 369.063 132.083 368.831 131.834C368.479 131.457 368.109 131.203 367.723 131.075C367.337 130.943 366.96 130.973 366.591 131.164ZM369.573 129.094L372.558 132.295L371.97 132.6L368.985 129.4L369.573 129.094ZM368.169 128.046C368.266 127.996 368.373 127.979 368.491 127.996C368.609 128.01 368.718 128.072 368.82 128.181C368.92 128.288 368.959 128.386 368.937 128.475C368.918 128.563 368.86 128.633 368.763 128.683C368.661 128.736 368.552 128.754 368.434 128.737C368.319 128.719 368.212 128.656 368.112 128.549C368.01 128.44 367.969 128.343 367.987 128.258C368.007 128.17 368.067 128.099 368.169 128.046ZM372.529 127.471C372.607 127.431 372.692 127.392 372.785 127.356C372.875 127.318 372.959 127.287 373.036 127.264L373.381 127.753C373.304 127.772 373.224 127.798 373.138 127.831C373.053 127.864 372.976 127.898 372.908 127.933C372.752 128.014 372.629 128.117 372.539 128.242C372.449 128.364 372.398 128.501 372.384 128.652C372.369 128.801 372.396 128.96 372.464 129.127C372.53 129.292 372.641 129.457 372.795 129.622L374.397 131.339L373.805 131.647L370.82 128.446L371.309 128.192L371.923 128.749L371.947 128.736C371.917 128.576 371.913 128.417 371.935 128.261C371.956 128.103 372.014 127.956 372.108 127.82C372.205 127.683 372.345 127.567 372.529 127.471ZM375.229 126.068C375.559 125.897 375.899 125.81 376.248 125.808C376.596 125.806 376.935 125.881 377.264 126.034C377.59 126.185 377.889 126.406 378.16 126.696L378.44 126.996L375.759 128.39C376.116 128.762 376.497 128.989 376.9 129.072C377.303 129.154 377.704 129.092 378.103 128.884C378.348 128.757 378.548 128.625 378.703 128.49C378.857 128.355 379.002 128.198 379.138 128.021L379.536 128.447C379.407 128.621 379.261 128.775 379.099 128.909C378.938 129.041 378.727 129.175 378.465 129.312C378.092 129.506 377.708 129.613 377.313 129.633C376.918 129.65 376.531 129.577 376.15 129.413C375.77 129.25 375.415 128.992 375.087 128.639C374.765 128.295 374.557 127.961 374.462 127.637C374.368 127.311 374.384 127.013 374.512 126.744C374.643 126.474 374.881 126.249 375.229 126.068ZM375.592 126.469C375.278 126.632 375.107 126.847 375.078 127.114C375.049 127.38 375.159 127.674 375.407 127.996L377.461 126.928C377.281 126.739 377.088 126.59 376.883 126.483C376.678 126.373 376.468 126.315 376.252 126.308C376.034 126.3 375.814 126.354 375.592 126.469ZM382.542 125.806C382.732 126.01 382.831 126.215 382.836 126.42C382.842 126.622 382.762 126.818 382.596 127.008C382.433 127.198 382.191 127.375 381.873 127.541C381.601 127.682 381.35 127.786 381.119 127.854C380.887 127.923 380.668 127.963 380.459 127.976L380.042 127.529C380.26 127.511 380.504 127.472 380.772 127.41C381.041 127.349 381.29 127.258 381.519 127.139C381.854 126.965 382.056 126.794 382.123 126.626C382.191 126.458 382.153 126.297 382.01 126.143C381.928 126.055 381.825 125.994 381.702 125.96C381.58 125.923 381.418 125.91 381.219 125.921C381.017 125.93 380.756 125.962 380.434 126.016C380.114 126.067 379.827 126.102 379.575 126.121C379.322 126.136 379.095 126.114 378.892 126.055C378.692 125.994 378.509 125.875 378.344 125.698C378.091 125.427 378.03 125.151 378.16 124.87C378.291 124.585 378.572 124.331 379.005 124.106C379.238 123.984 379.475 123.89 379.714 123.824C379.954 123.754 380.193 123.705 380.43 123.677L380.594 124.169C380.381 124.196 380.165 124.237 379.947 124.293C379.729 124.348 379.525 124.425 379.336 124.523C379.065 124.664 378.89 124.81 378.813 124.96C378.738 125.109 378.76 125.248 378.88 125.376C378.973 125.475 379.082 125.54 379.208 125.57C379.336 125.598 379.501 125.602 379.703 125.581C379.904 125.561 380.162 125.525 380.476 125.474C380.788 125.422 381.07 125.39 381.322 125.377C381.571 125.363 381.796 125.388 381.996 125.452C382.196 125.512 382.378 125.63 382.542 125.806Z" fill="#B6BFD9"/>
<path d="M188.685 241.696L186.783 240.673L184.707 241.752L185.337 243.436L184.728 243.753L182.755 238.413L183.297 238.132L189.308 241.372L188.685 241.696ZM186.191 240.326L184.329 239.295C184.283 239.267 184.205 239.222 184.098 239.159C183.993 239.095 183.884 239.029 183.771 238.961C183.658 238.892 183.566 238.837 183.496 238.796C183.547 238.888 183.595 238.981 183.641 239.076C183.688 239.167 183.73 239.254 183.768 239.335C183.803 239.415 183.834 239.483 183.858 239.54L184.498 241.206L186.191 240.326ZM190.53 240.737L189.939 241.045L185.7 236.501L186.291 236.194L190.53 240.737ZM188.123 235.242L189.182 236.378C189.304 236.508 189.417 236.637 189.522 236.765C189.63 236.891 189.713 236.99 189.772 237.06L189.804 237.044C189.775 236.844 189.815 236.643 189.924 236.439C190.032 236.236 190.242 236.053 190.553 235.891C191.04 235.638 191.557 235.576 192.105 235.705C192.653 235.83 193.182 236.166 193.693 236.713C194.029 237.074 194.246 237.412 194.344 237.727C194.443 238.043 194.43 238.327 194.308 238.579C194.185 238.831 193.959 239.042 193.631 239.212C193.324 239.372 193.028 239.457 192.742 239.466C192.457 239.473 192.198 239.435 191.965 239.354L191.919 239.378L192.199 239.87L191.773 240.091L187.535 235.548L188.123 235.242ZM190.836 236.347C190.555 236.493 190.375 236.654 190.295 236.832C190.213 237.007 190.221 237.205 190.318 237.427C190.417 237.644 190.595 237.892 190.855 238.171L190.88 238.197C191.256 238.6 191.625 238.866 191.988 238.996C192.348 239.123 192.744 239.075 193.174 238.852C193.535 238.664 193.704 238.415 193.68 238.103C193.658 237.791 193.458 237.432 193.081 237.027C192.696 236.614 192.316 236.351 191.943 236.236C191.571 236.119 191.202 236.156 190.836 236.347ZM194.67 233.747C195.001 233.575 195.341 233.488 195.689 233.486C196.038 233.484 196.377 233.56 196.705 233.713C197.032 233.864 197.331 234.084 197.601 234.374L197.882 234.675L195.2 236.069C195.558 236.441 195.938 236.668 196.341 236.75C196.744 236.833 197.145 236.77 197.545 236.563C197.79 236.435 197.99 236.304 198.145 236.169C198.299 236.033 198.444 235.877 198.58 235.7L198.978 236.126C198.849 236.3 198.703 236.454 198.54 236.587C198.38 236.72 198.169 236.854 197.907 236.99C197.533 237.184 197.149 237.291 196.755 237.312C196.36 237.329 195.973 237.255 195.592 237.092C195.212 236.928 194.857 236.67 194.528 236.318C194.207 235.974 193.999 235.64 193.904 235.316C193.809 234.989 193.826 234.692 193.954 234.423C194.084 234.153 194.323 233.928 194.67 233.747ZM195.034 234.148C194.72 234.311 194.548 234.526 194.52 234.792C194.491 235.058 194.601 235.353 194.849 235.675L196.903 234.607C196.723 234.417 196.53 234.269 196.325 234.162C196.12 234.051 195.91 233.993 195.694 233.987C195.476 233.979 195.256 234.033 195.034 234.148ZM199.013 231.49C199.091 231.45 199.176 231.411 199.269 231.375C199.359 231.336 199.443 231.306 199.52 231.283L199.865 231.772C199.788 231.791 199.708 231.817 199.622 231.85C199.537 231.883 199.46 231.917 199.392 231.952C199.236 232.033 199.113 232.136 199.023 232.261C198.933 232.383 198.881 232.52 198.868 232.671C198.853 232.82 198.88 232.978 198.948 233.145C199.014 233.31 199.125 233.476 199.279 233.641L200.881 235.358L200.289 235.665L197.304 232.465L197.792 232.211L198.406 232.768L198.431 232.755C198.401 232.595 198.397 232.436 198.419 232.28C198.44 232.122 198.498 231.975 198.592 231.839C198.689 231.702 198.829 231.586 199.013 231.49ZM204.196 233.132C204.293 233.082 204.385 233.024 204.474 232.957C204.563 232.891 204.63 232.831 204.676 232.779L205.027 233.155C204.982 233.216 204.907 233.287 204.8 233.369C204.696 233.449 204.586 233.519 204.471 233.579C204.265 233.686 204.051 233.754 203.829 233.782C203.605 233.809 203.376 233.778 203.142 233.689C202.91 233.598 202.677 233.427 202.443 233.176L200.672 231.278L200.12 231.565L199.899 231.329L200.278 230.85L199.864 230.034L200.218 229.85L200.91 230.591L202.047 230L202.401 230.38L201.264 230.971L203.021 232.854C203.208 233.055 203.403 233.176 203.607 233.217C203.813 233.258 204.009 233.229 204.196 233.132ZM206.399 226.711C206.114 226.859 205.894 227.034 205.742 227.235C205.589 227.432 205.505 227.65 205.488 227.887C205.471 228.121 205.521 228.368 205.638 228.628C205.754 228.889 205.939 229.154 206.191 229.425C206.525 229.783 206.883 230.059 207.265 230.254C207.647 230.446 208.04 230.543 208.443 230.548C208.849 230.55 209.255 230.446 209.661 230.235C209.893 230.115 210.096 229.987 210.27 229.85C210.444 229.71 210.606 229.565 210.754 229.416L211.157 229.848C211.023 230.005 210.864 230.151 210.682 230.286C210.501 230.423 210.268 230.566 209.982 230.715C209.456 230.988 208.932 231.128 208.41 231.133C207.89 231.134 207.387 231.017 206.903 230.78C206.422 230.542 205.972 230.199 205.554 229.751C205.253 229.428 205.032 229.105 204.892 228.782C204.752 228.456 204.697 228.14 204.725 227.837C204.756 227.531 204.876 227.247 205.085 226.982C205.294 226.714 205.599 226.476 205.998 226.269C206.26 226.133 206.533 226.023 206.816 225.939C207.099 225.856 207.376 225.803 207.646 225.781L207.798 226.326C207.574 226.35 207.343 226.391 207.102 226.449C206.863 226.504 206.628 226.592 206.399 226.711ZM214.147 226.079C214.392 226.342 214.57 226.598 214.679 226.847C214.789 227.096 214.833 227.332 214.809 227.556C214.786 227.779 214.699 227.986 214.548 228.177C214.397 228.365 214.182 228.532 213.904 228.677C213.644 228.812 213.371 228.899 213.085 228.937C212.799 228.973 212.511 228.961 212.22 228.901C211.931 228.84 211.647 228.729 211.367 228.568C211.09 228.406 210.829 228.194 210.583 227.931C210.256 227.581 210.051 227.245 209.966 226.925C209.879 226.603 209.91 226.308 210.056 226.041C210.204 225.771 210.463 225.539 210.834 225.347C211.188 225.163 211.558 225.067 211.945 225.06C212.333 225.052 212.716 225.133 213.093 225.304C213.471 225.472 213.822 225.73 214.147 226.079ZM211.193 227.614C211.432 227.871 211.682 228.073 211.94 228.218C212.199 228.364 212.463 228.444 212.732 228.458C213 228.471 213.27 228.407 213.542 228.266C213.811 228.126 213.984 227.96 214.06 227.767C214.139 227.573 214.131 227.36 214.038 227.129C213.944 226.897 213.777 226.653 213.538 226.396C213.3 226.141 213.053 225.942 212.798 225.8C212.541 225.656 212.279 225.578 212.012 225.567C211.745 225.555 211.475 225.621 211.201 225.763C210.797 225.973 210.604 226.237 210.62 226.555C210.639 226.872 210.829 227.225 211.193 227.614ZM215.386 222.981C215.464 222.941 215.549 222.902 215.641 222.866C215.732 222.827 215.815 222.797 215.892 222.774L216.238 223.263C216.161 223.282 216.08 223.308 215.995 223.341C215.91 223.374 215.833 223.408 215.764 223.443C215.609 223.524 215.486 223.627 215.395 223.752C215.305 223.874 215.254 224.011 215.241 224.162C215.226 224.311 215.253 224.47 215.321 224.636C215.387 224.801 215.497 224.967 215.652 225.132L217.253 226.849L216.662 227.156L213.676 223.956L214.165 223.702L214.779 224.259L214.804 224.246C214.773 224.086 214.769 223.927 214.792 223.771C214.813 223.613 214.87 223.466 214.965 223.33C215.061 223.193 215.202 223.077 215.386 222.981ZM220.568 224.623C220.665 224.573 220.758 224.515 220.847 224.448C220.936 224.382 221.003 224.322 221.048 224.27L221.4 224.646C221.355 224.707 221.279 224.778 221.173 224.86C221.069 224.94 220.959 225.01 220.843 225.07C220.638 225.177 220.424 225.245 220.202 225.273C219.978 225.3 219.749 225.269 219.515 225.18C219.283 225.089 219.05 224.918 218.816 224.667L217.045 222.769L216.492 223.056L216.272 222.82L216.651 222.341L216.236 221.525L216.59 221.341L217.282 222.082L218.419 221.491L218.774 221.871L217.636 222.462L219.393 224.345C219.581 224.546 219.776 224.667 219.979 224.708C220.185 224.749 220.382 224.72 220.568 224.623ZM219.819 220.764L222.804 223.964L222.216 224.27L219.231 221.07L219.819 220.764ZM218.415 219.716C218.512 219.666 218.619 219.649 218.736 219.666C218.854 219.68 218.964 219.741 219.066 219.85C219.166 219.957 219.205 220.056 219.183 220.145C219.164 220.233 219.106 220.302 219.009 220.353C218.907 220.405 218.798 220.423 218.68 220.406C218.565 220.388 218.457 220.326 218.358 220.218C218.256 220.109 218.214 220.012 218.233 219.927C218.253 219.839 218.313 219.769 218.415 219.716ZM225.745 221.135C225.936 221.339 226.034 221.544 226.04 221.749C226.046 221.951 225.966 222.148 225.8 222.338C225.636 222.527 225.395 222.704 225.076 222.87C224.805 223.011 224.553 223.116 224.322 223.184C224.091 223.252 223.871 223.293 223.663 223.306L223.246 222.859C223.464 222.841 223.707 222.801 223.976 222.74C224.245 222.678 224.494 222.588 224.723 222.469C225.058 222.294 225.259 222.123 225.327 221.955C225.395 221.787 225.357 221.626 225.213 221.472C225.132 221.385 225.029 221.324 224.906 221.289C224.783 221.252 224.622 221.239 224.422 221.25C224.221 221.26 223.959 221.292 223.638 221.346C223.318 221.397 223.031 221.432 222.778 221.45C222.526 221.466 222.299 221.444 222.096 221.384C221.896 221.323 221.713 221.205 221.548 221.027C221.295 220.757 221.234 220.481 221.364 220.199C221.495 219.915 221.776 219.66 222.208 219.435C222.442 219.314 222.679 219.22 222.918 219.153C223.158 219.083 223.397 219.035 223.634 219.007L223.798 219.498C223.584 219.525 223.369 219.567 223.15 219.622C222.932 219.678 222.729 219.755 222.54 219.853C222.268 219.994 222.094 220.14 222.016 220.29C221.941 220.438 221.964 220.577 222.084 220.706C222.176 220.805 222.286 220.869 222.412 220.899C222.54 220.928 222.705 220.932 222.906 220.911C223.108 220.89 223.366 220.854 223.68 220.804C223.992 220.751 224.274 220.719 224.525 220.707C224.775 220.693 225 220.717 225.2 220.781C225.4 220.842 225.582 220.96 225.745 221.135Z" fill="#1D212A"/>
<path d="M374.963 141.435C375.286 141.781 375.543 142.107 375.733 142.413C375.924 142.719 376.039 143.001 376.078 143.261C376.117 143.521 376.074 143.758 375.95 143.97C375.823 144.18 375.608 144.364 375.303 144.523C374.918 144.723 374.518 144.802 374.104 144.76C373.692 144.717 373.271 144.564 372.841 144.302C372.411 144.037 371.98 143.673 371.548 143.209C371.123 142.754 370.813 142.334 370.619 141.949C370.426 141.561 370.372 141.215 370.459 140.909C370.544 140.602 370.792 140.342 371.203 140.128C371.593 139.926 371.996 139.846 372.412 139.89C372.826 139.932 373.248 140.086 373.678 140.351C374.106 140.614 374.534 140.975 374.963 141.435ZM372.139 142.902C372.51 143.299 372.855 143.611 373.175 143.838C373.496 144.064 373.799 144.202 374.085 144.249C374.372 144.294 374.649 144.247 374.916 144.108C375.183 143.969 375.337 143.792 375.378 143.577C375.422 143.361 375.357 143.101 375.183 142.799C375.012 142.495 374.74 142.143 374.367 141.744C374.002 141.353 373.661 141.045 373.342 140.82C373.022 140.593 372.719 140.456 372.432 140.409C372.144 140.359 371.864 140.405 371.593 140.546C371.321 140.687 371.167 140.867 371.129 141.086C371.089 141.303 371.157 141.563 371.33 141.866C371.505 142.165 371.774 142.511 372.139 142.902ZM380.418 140.308L379.642 140.711L380.565 141.701L379.992 141.999L379.068 141.009L376.564 142.311L376.182 141.902L375.948 137.727L376.561 137.409L379.233 140.273L380.009 139.87L380.418 140.308ZM378.66 140.571L377.357 139.176C377.258 139.069 377.169 138.972 377.091 138.885C377.012 138.796 376.94 138.713 376.876 138.637C376.81 138.559 376.746 138.485 376.685 138.415C376.626 138.345 376.567 138.276 376.507 138.208L376.479 138.223C376.507 138.324 376.532 138.434 376.555 138.552C376.578 138.667 376.592 138.774 376.596 138.873L376.74 141.569L378.66 140.571ZM380.083 135.613L382.138 140.884L381.557 141.185L379.505 135.913L380.083 135.613ZM387.898 137.89L384.505 139.654L384.126 139.248L384.429 137.369C384.487 137.021 384.525 136.718 384.544 136.46C384.565 136.2 384.546 135.966 384.487 135.756C384.427 135.545 384.306 135.342 384.124 135.147C383.899 134.906 383.64 134.767 383.347 134.732C383.055 134.693 382.767 134.747 382.484 134.894C382.236 135.023 382.049 135.172 381.923 135.342C381.797 135.511 381.694 135.713 381.613 135.945L380.992 135.782C381.04 135.616 381.11 135.454 381.202 135.296C381.296 135.138 381.415 134.989 381.559 134.85C381.706 134.711 381.884 134.586 382.094 134.477C382.413 134.311 382.731 134.214 383.048 134.185C383.364 134.156 383.664 134.194 383.947 134.298C384.233 134.401 384.485 134.57 384.703 134.803C384.913 135.029 385.055 135.268 385.128 135.519C385.199 135.768 385.226 136.039 385.208 136.331C385.188 136.622 385.146 136.942 385.082 137.29L384.819 138.801L384.838 138.821L387.484 137.446L387.898 137.89ZM392.05 135.732L388.656 137.496L388.277 137.09L388.581 135.211C388.639 134.863 388.677 134.56 388.695 134.302C388.716 134.043 388.697 133.808 388.639 133.599C388.578 133.387 388.457 133.184 388.276 132.99C388.051 132.748 387.792 132.61 387.499 132.574C387.207 132.535 386.919 132.589 386.635 132.737C386.387 132.866 386.2 133.015 386.074 133.184C385.949 133.354 385.845 133.555 385.764 133.788L385.144 133.625C385.192 133.458 385.262 133.296 385.353 133.139C385.447 132.98 385.566 132.831 385.711 132.693C385.857 132.553 386.036 132.428 386.246 132.319C386.565 132.154 386.882 132.056 387.199 132.028C387.516 131.999 387.816 132.036 388.099 132.141C388.385 132.244 388.636 132.412 388.854 132.646C389.065 132.872 389.207 133.11 389.28 133.361C389.351 133.61 389.377 133.881 389.359 134.174C389.34 134.464 389.298 134.784 389.233 135.132L388.97 136.643L388.989 136.664L391.636 135.289L392.05 135.732Z" fill="#1D212A"/>
</g>
<defs>
<filter id="filter0_i_789_0" x="93.1992" y="136.127" width="379.945" height="292.565" filterUnits="userSpaceOnUse" color-interpolation-filters="sRGB">
<feFlood flood-opacity="0" result="BackgroundImageFix"/>
<feBlend mode="normal" in="SourceGraphic" in2="BackgroundImageFix" result="shape"/>
<feColorMatrix in="SourceAlpha" type="matrix" values="0 0 0 0 0 0 0 0 0 0 0 0 0 0 0 0 0 0 127 0" result="hardAlpha"/>
<feOffset dx="-1.70954" dy="-3.41909"/>
<feComposite in2="hardAlpha" operator="arithmetic" k2="-1" k3="1"/>
<feColorMatrix type="matrix" values="0 0 0 0 1 0 0 0 0 1 0 0 0 0 1 0 0 0 0.5 0"/>
<feBlend mode="normal" in2="shape" result="effect1_innerShadow_789_0"/>
</filter>
<filter id="filter1_dddd_789_0" x="125.95" y="196.928" width="281.444" height="193.998" filterUnits="userSpaceOnUse" color-interpolation-filters="sRGB">
<feFlood flood-opacity="0" result="BackgroundImageFix"/>
<feColorMatrix in="SourceAlpha" type="matrix" values="0 0 0 0 0 0 0 0 0 0 0 0 0 0 0 0 0 0 127 0" result="hardAlpha"/>
<feOffset dx="20.1875" dy="14.6377"/>
<feGaussianBlur stdDeviation="5.5"/>
<feColorMatrix type="matrix" values="0 0 0 0 0.127638 0 0 0 0 0.0736111 0 0 0 0 0.441667 0 0 0 0.15 0"/>
<feBlend mode="normal" in2="BackgroundImageFix" result="effect1_dropShadow_789_0"/>
<feColorMatrix in="SourceAlpha" type="matrix" values="0 0 0 0 0 0 0 0 0 0 0 0 0 0 0 0 0 0 127 0" result="hardAlpha"/>
<feOffset dx="20.1875" dy="19.5168"/>
<feGaussianBlur stdDeviation="9.33671"/>
<feColorMatrix type="matrix" values="0 0 0 0 0.234194 0 0 0 0 0.169826 0 0 0 0 0.608333 0 0 0 0.0813207 0"/>
<feBlend mode="normal" in2="effect1_dropShadow_789_0" result="effect2_dropShadow_789_0"/>
<feColorMatrix in="SourceAlpha" type="matrix" values="0 0 0 0 0 0 0 0 0 0 0 0 0 0 0 0 0 0 127 0" result="hardAlpha"/>
<feOffset dx="20.1875" dy="27.7105"/>
<feGaussianBlur stdDeviation="13.5182"/>
<feColorMatrix type="matrix" values="0 0 0 0 0.300701 0 0 0 0 0.233437 0 0 0 0 0.691667 0 0 0 0.0698078 0"/>
<feBlend mode="normal" in2="effect2_dropShadow_789_0" result="effect3_dropShadow_789_0"/>
<feColorMatrix in="SourceAlpha" type="matrix" values="0 0 0 0 0 0 0 0 0 0 0 0 0 0 0 0 0 0 127 0" result="hardAlpha"/>
<feOffset dx="20.1875" dy="65.6095"/>
<feGaussianBlur stdDeviation="20.1875"/>
<feColorMatrix type="matrix" values="0 0 0 0 0.25578 0 0 0 0 0.182222 0 0 0 0 0.683333 0 0 0 0.15 0"/>
<feBlend mode="normal" in2="effect3_dropShadow_789_0" result="effect4_dropShadow_789_0"/>
<feBlend mode="normal" in="SourceGraphic" in2="effect4_dropShadow_789_0" result="shape"/>
</filter>
<radialGradient id="paint0_radial_789_0" cx="0" cy="0" r="1" gradientUnits="userSpaceOnUse" gradientTransform="translate(348.5 447) rotate(90) scale(64.5 461.195)">
<stop stop-color="#DEE7F1"/>
<stop offset="0.130208" stop-color="#E9F0FA" stop-opacity="0.869792"/>
<stop offset="1" stop-color="white" stop-opacity="0"/>
</radialGradient>
<linearGradient id="paint1_linear_789_0" x1="287.587" y1="7.84105" x2="173.215" y2="205.8" gradientUnits="userSpaceOnUse">
<stop stop-color="#9987FF"/>
<stop offset="1" stop-color="#836FF3"/>
</linearGradient>
<linearGradient id="paint2_linear_789_0" x1="-32.9894" y1="65.8925" x2="97.4617" y2="-37.6277" gradientUnits="userSpaceOnUse">
<stop stop-color="#F4F6F8"/>
<stop offset="0.40625" stop-color="#FAFBFC"/>
<stop offset="1" stop-color="white"/>
</linearGradient>
<linearGradient id="paint3_linear_789_0" x1="-8.23268" y1="199.081" x2="10.251" y2="58.1887" gradientUnits="userSpaceOnUse">
<stop stop-color="white"/>
<stop offset="1" stop-color="white" stop-opacity="0"/>
</linearGradient>
<clipPath id="clip0_789_0">
<rect width="518" height="500" fill="white" transform="translate(0 -0.000488281)"/>
</clipPath>
<clipPath id="clip1_789_0">
<rect width="350" height="98" fill="white" transform="translate(168 402)"/>
</clipPath>
<clipPath id="clip2_789_0">
<rect width="195.458" height="72.4773" fill="white" transform="matrix(0.996738 -0.0807057 0.0810267 0.996712 146.138 212.702)"/>
</clipPath>
</defs>
</svg>
