<svg width="1288" height="575" viewBox="0 0 1288 575" fill="none" xmlns="http://www.w3.org/2000/svg">
<path fill-rule="evenodd" clip-rule="evenodd" d="M277.485 530.39C154.374 471.21 51.9653 367.044 0 295.336L0.0304633 292C51.8552 363.514 155.661 469.535 278.381 528.526C339.73 558.016 405.963 575.971 473.173 572.506C540.366 569.043 608.6 544.169 673.976 487.895C800.116 379.318 935.879 332.623 1048.95 318.014C1105.48 310.709 1156.35 311.424 1197.52 316.438C1238.66 321.45 1270.19 330.765 1288 340.718L1286.99 342.523C1269.51 332.757 1238.29 323.488 1197.27 318.491C1156.27 313.498 1105.58 312.782 1049.21 320.065C936.49 334.629 801.12 381.183 675.326 489.462C609.613 546.025 540.946 571.084 473.28 574.572C405.632 578.059 339.051 559.984 277.485 530.39Z" fill="url(#paint0_linear_167_7712)"/>
<path fill-rule="evenodd" clip-rule="evenodd" d="M290.444 299.065C196.282 120.396 57.6469 27.5583 0.00585938 3.5V0.5C58.2662 24.8168 198.599 118.357 293.098 297.666C410.552 520.527 672.625 564.321 870.104 467.843C949.71 428.951 1034.11 429.229 1107.18 445.314C1180.24 461.397 1242.1 493.307 1276.77 517.853L1275.04 520.302C1240.67 495.969 1179.18 464.235 1106.53 448.244C1033.9 432.256 950.243 432.03 871.42 470.538C672.827 567.561 408.819 523.674 290.444 299.065Z" fill="url(#paint1_linear_167_7712)"/>
<defs>
<linearGradient id="paint0_linear_167_7712" x1="1296.8" y1="343.177" x2="-1.02807" y2="343.177" gradientUnits="userSpaceOnUse">
<stop stop-color="#DAD2FF"/>
<stop offset="0.1875" stop-color="#C4B9FF"/>
<stop offset="0.791667" stop-color="#9480FF"/>
<stop offset="1" stop-color="#BDB0FF"/>
</linearGradient>
<linearGradient id="paint1_linear_167_7712" x1="1264.01" y1="519.077" x2="0.00548267" y2="519.077" gradientUnits="userSpaceOnUse">
<stop stop-color="#D9E2FC"/>
<stop offset="0.208333" stop-color="#DAE4FE"/>
<stop offset="0.40625" stop-color="#CAD1E5"/>
<stop offset="0.734375" stop-color="#E3E7F3"/>
<stop offset="1" stop-color="#B6BFD9"/>
</linearGradient>
</defs>
</svg>
