<svg width="60" height="60" viewBox="0 0 60 60" fill="none" xmlns="http://www.w3.org/2000/svg">
<path fill-rule="evenodd" clip-rule="evenodd" d="M13.0089 15.1392L2.06349 19.2928L2.45833 29.4067C2.74334 36.7077 6.64763 43.468 13.0089 47.6447C19.3701 43.468 23.2744 36.7077 23.5595 29.4067L23.9543 19.2928L13.0089 15.1392ZM12.2993 13.2693C12.7565 13.0958 13.2613 13.0958 13.7185 13.2693L24.6639 17.4229C25.4674 17.7278 25.9863 18.512 25.9528 19.3708L25.5579 29.4847C25.2451 37.4974 20.9436 44.869 14.0119 49.3784C13.4018 49.7753 12.6159 49.7753 12.0059 49.3784C5.07418 44.869 0.772648 37.4974 0.459852 29.4847L0.0650102 19.3708C0.0314835 18.512 0.550362 17.7278 1.35389 17.4229L12.2993 13.2693Z" fill="white"/>
<path fill-rule="evenodd" clip-rule="evenodd" d="M39.0088 2H21.0088C19.9042 2 19.0088 2.89543 19.0088 4H41.0088C41.0088 2.89543 40.1134 2 39.0088 2ZM21.0088 0C18.7997 0 17.0088 1.79086 17.0088 4V6H43.0088V4C43.0088 1.79086 41.2179 0 39.0088 0H21.0088Z" fill="white"/>
<path fill-rule="evenodd" clip-rule="evenodd" d="M25.0088 12L35.0088 12C36.1134 12 37.0088 11.1046 37.0088 10L37.0088 6L23.0088 6L23.0088 10C23.0088 11.1046 23.9042 12 25.0088 12ZM35.0088 14C37.2179 14 39.0088 12.2091 39.0088 10L39.0088 4L21.0088 4L21.0088 10C21.0088 12.2091 22.7997 14 25.0088 14L35.0088 14Z" fill="white"/>
<path fill-rule="evenodd" clip-rule="evenodd" d="M13.0088 36C16.3225 36 19.0088 33.3137 19.0088 30C19.0088 26.6863 16.3225 24 13.0088 24C9.69508 24 7.00879 26.6863 7.00879 30C7.00879 33.3137 9.69508 36 13.0088 36ZM13.0088 38C17.4271 38 21.0088 34.4183 21.0088 30C21.0088 25.5817 17.4271 22 13.0088 22C8.59051 22 5.00879 25.5817 5.00879 30C5.00879 34.4183 8.59051 38 13.0088 38Z" fill="white"/>
<path fill-rule="evenodd" clip-rule="evenodd" d="M16.3016 29.7071C16.6921 29.3166 16.6921 28.6834 16.3016 28.2929C15.9111 27.9024 15.2779 27.9024 14.8874 28.2929L12.0087 31.1716L11.13 30.2929C10.7394 29.9024 10.1063 29.9024 9.71574 30.2929C9.32522 30.6834 9.32522 31.3166 9.71574 31.7071L11.3015 33.2929C11.6921 33.6834 12.3252 33.6834 12.7157 33.2929L13.4137 32.5949C13.4168 32.5919 13.4199 32.5888 13.4229 32.5858L16.3016 29.7071Z" fill="white"/>
<path fill-rule="evenodd" clip-rule="evenodd" d="M14.0088 6H46.0088C47.1134 6 48.0088 6.89543 48.0088 8V9C48.0088 9.03481 48.0106 9.0692 48.014 9.10309V12.8384H48.0218C48.0132 12.891 48.0088 12.945 48.0088 13V56C48.0088 57.1046 47.1134 58 46.0088 58H19.0088C18.9518 58 18.896 58.0048 18.8416 58.0139H15.176C15.1216 58.0048 15.0658 58 15.0088 58H14.0088C12.9042 58 12.0088 57.1046 12.0088 56V52C12.0088 51.4477 11.5611 51 11.0088 51C10.4565 51 10.0088 51.4477 10.0088 52V56C10.0088 58.2091 11.7997 60 14.0088 60H14.2415H15.0088H19.0088H20.1284H46.0088C48.2179 60 50.0088 58.2091 50.0088 56V13C50.0088 12.945 50.0043 12.891 49.9958 12.8384H50.0088V9V8.38403V8C50.0088 5.79086 48.2179 4 46.0088 4H14.0088C11.7997 4 10.0088 5.79086 10.0088 8V11C10.0088 11.5523 10.4565 12 11.0088 12C11.5611 12 12.0088 11.5523 12.0088 11V8C12.0088 6.89543 12.9042 6 14.0088 6Z" fill="white"/>
</svg>
