<svg width="677" height="174" viewBox="0 0 677 174" fill="none" xmlns="http://www.w3.org/2000/svg">
<g opacity="0.7" clip-path="url(#clip0_1266_570)">
<path d="M343.659 28.0976C339.57 28.3922 333.065 28.7767 323.42 29.4717C333.909 28.8001 341.358 28.3477 343.356 28.288C343.356 28.288 358.767 27.1776 343.659 28.0976Z" fill="#32D989"/>
<path d="M672.578 64.8255C672.567 64.6578 672.45 64.4977 672.438 64.3299C672.432 64.2461 672.42 64.0784 672.309 64.0021C672.298 63.8344 672.181 63.6743 672.169 63.5065C672.157 63.3388 672.04 63.1787 671.924 63.0186C671.918 62.9347 671.807 62.8584 671.801 62.7746C671.556 62.2866 671.311 61.7986 671.065 61.3106C670.715 60.8301 670.476 60.426 670.132 60.0294C669.665 59.3888 669.204 58.832 668.639 58.2828C668.522 58.1227 668.294 57.8862 668.178 57.7261C666.93 56.4676 665.484 55.3919 663.945 54.4914C663.834 54.4151 663.723 54.3388 663.613 54.2625C663.391 54.1099 663.17 53.9573 662.948 53.8047L661.957 53.2019C661.736 53.0493 661.52 52.9806 661.298 52.828C660.861 52.6066 660.418 52.3014 659.981 52.0801C659.544 51.8588 659.113 51.7213 658.781 51.4924C657.912 51.1335 657.143 50.6833 656.385 50.4008C655.406 49.9657 654.433 49.6144 653.565 49.2556L653.238 49.1105L650.645 48.2017C649.561 47.7742 648.594 47.5068 647.842 47.3081C647.522 47.2469 647.196 47.1018 646.98 47.0331L645.687 46.6206C640.734 45.1234 635.263 43.7477 628.737 42.3638C627.776 42.1802 626.815 41.9966 625.749 41.8206C620.832 40.8265 615.809 39.8399 610.596 39.1199C606.005 38.2708 601.327 37.6808 596.433 37.0221C594.732 36.8075 593.031 36.593 591.324 36.2946C589.623 36.08 587.817 35.873 586.122 35.7423C581.235 35.1675 576.138 34.6077 571.052 34.2156C545.701 31.8283 516.85 30.6203 482.811 30.5445C454.778 30.4575 424.066 31.2377 388.998 33.0059C387.635 33.1041 386.267 33.1185 384.904 33.2167C382.382 33.3141 379.866 33.4954 377.239 33.6004C374.199 33.8194 371.153 33.9546 368.113 34.1737L365.492 34.3625C358.987 34.747 352.487 35.2153 346.092 35.6761C344.834 35.7667 343.471 35.8649 342.213 35.9556C335.819 36.4163 329.424 36.8771 323.134 37.3303L319.36 37.6022C315.796 37.8591 312.126 38.1234 308.673 38.4565L308.044 38.5019C304.276 38.8576 300.607 39.122 296.839 39.4778C294.224 39.7505 291.603 39.9393 288.982 40.1282C284.376 40.5444 279.559 40.9757 274.848 41.3995L253.509 43.6112L243.155 44.6944C240.854 44.9444 238.665 45.2708 236.364 45.5208L232.917 45.9378C230.517 46.2792 228.217 46.5292 225.812 46.7868C221.427 47.3556 217.35 47.8179 213.174 48.3716C187.4 51.9143 164.706 55.825 145.607 59.8981C128.068 63.6902 112.26 68.1161 101.077 72.3773C100.157 72.7807 99.3359 73.0927 98.515 73.4046C96.9781 74.021 95.6509 74.6223 94.3177 75.1398C93.7065 75.4367 93.0953 75.7335 92.589 76.0229C92.589 76.0229 92.4841 76.0304 92.4901 76.1143C91.3666 76.6166 90.4527 77.1039 89.6437 77.5835L87.9209 78.5505L87.7172 78.6494L87.4145 78.8398L86.7104 79.3119C86.5066 79.4109 86.4077 79.5023 86.3088 79.5937L86.1051 79.6926L86.0062 79.784C86.0062 79.784 85.9014 79.7916 85.9073 79.8754L85.6106 80.1497L85.9073 79.8754L86.1051 79.6926C86.204 79.6012 86.204 79.6012 86.3029 79.5098L86.7044 79.2281C86.9082 79.1291 87.106 78.9463 87.3097 78.8473L87.5134 78.7484L87.915 78.4666C88.2176 78.2762 88.5202 78.0859 88.9277 77.888C89.1314 77.789 89.3352 77.69 89.5389 77.5911C90.4527 77.1039 91.4655 76.5252 92.6879 75.9315C92.7927 75.9239 92.7868 75.8401 92.8916 75.8325C94.9289 74.8429 97.3856 73.8231 100.256 72.6893C105.28 70.726 111.247 68.6947 118.17 66.7631C125.606 64.6261 133.99 62.505 142.911 60.5137C143.744 60.3695 144.57 60.1413 145.397 59.9132C146.952 59.5483 148.507 59.1835 150.067 58.9025L151.733 58.6139C153.707 58.2188 155.681 57.8238 157.655 57.4287L160.252 56.9045C162.016 56.5245 163.786 56.2284 165.656 55.8409C167.42 55.4609 169.085 55.1723 170.961 54.8687C171.898 54.7168 172.94 54.5575 173.983 54.3981C175.648 54.1095 177.314 53.821 179.084 53.5248L182.73 52.9251C183.772 52.7657 184.814 52.6063 185.752 52.4545C187.732 52.1432 189.706 51.7482 191.797 51.5132C197.952 50.6483 204.311 49.6845 210.886 48.7893C214.013 48.3112 217.146 47.9169 220.489 47.5074L223.203 47.1433C225.812 46.7868 228.531 46.5066 231.245 46.1425L231.455 46.1274C234.903 45.7104 238.35 45.2934 241.903 44.8689C244.197 44.535 246.608 44.3613 248.909 44.1113C250.167 44.0206 251.523 43.8386 252.781 43.7479C258.011 43.2025 263.451 42.6421 268.89 42.0816L275.587 41.4304C280.613 40.984 285.639 40.5376 290.875 40.0761C293.706 39.8721 296.53 39.5843 299.361 39.3804C310.979 38.2904 322.825 37.4368 335.306 36.6218C339.814 36.297 344.427 35.9646 348.935 35.6398C349.249 35.6172 349.563 35.5945 349.878 35.5718L356.482 35.096L358.265 34.9676C359.837 34.8543 361.514 34.7334 363.093 34.7039L376.523 33.9048C379.459 33.6933 382.4 33.5656 385.341 33.438C386.914 33.3247 388.597 33.2877 390.169 33.1744C391.742 33.0611 393.32 33.0316 394.893 32.9183C397.834 32.7907 400.985 32.6479 404.031 32.5127C422.202 31.7091 441.446 31.1653 461.238 30.9191C482.614 30.7273 502.12 30.9231 520.917 31.5071C536.021 32.0202 549.983 32.7839 563.229 33.8522C560.474 33.6293 557.725 33.4903 554.969 33.2674C551.049 32.96 547.135 32.7363 543.22 32.5127C539.411 32.2815 535.607 32.1342 531.902 31.8955C528.204 31.7406 524.511 31.6696 520.917 31.5071C513.729 31.1823 506.774 31.1777 500.227 30.9752C493.581 30.8641 487.262 30.8981 481.251 30.8255C457.125 30.8783 437.777 31.4296 424.532 31.8783C417.91 32.1026 412.768 32.3889 409.296 32.4704C405.831 32.6359 404.043 32.6804 404.043 32.6804C395.009 33.0785 386.296 33.5377 377.793 33.9819C369.296 34.5098 361.002 34.9389 353.035 35.5129C345.068 36.087 337.31 36.646 329.762 37.1898C322.214 37.7337 314.975 38.171 307.858 38.8524C279.682 41.2197 255.088 43.5817 233.674 46.2203C190.94 51.3221 161.084 56.7602 140.454 61.5335C119.719 66.3144 108.197 70.2629 101.729 72.6674C98.5566 73.9916 96.6122 74.8059 95.3839 75.3158C94.2663 75.902 93.8529 76.0161 93.8529 76.0161C93.2773 76.8161 92.7076 77.6999 92.2368 78.4923C93.8904 78.0361 95.4332 77.5035 96.9879 77.1386L101.757 76.0365C103.236 76.0985 104.833 76.3206 106.324 76.5502C106.623 77.7929 108.8 77.2988 110.954 76.4694C111.467 76.2639 111.979 76.0585 112.491 75.853C113.004 75.6475 113.411 75.4496 113.819 75.2517C114.639 74.9397 115.146 74.6504 115.146 74.6504L119.786 73.2204L122.156 72.4597L124.531 71.7829C127.74 70.9618 130.837 70.0644 134.045 69.2433C137.254 68.4221 140.474 67.7687 143.688 67.0315C146.902 66.2942 150.11 65.4731 153.337 64.9035C156.557 64.2501 159.777 63.5967 163.102 62.9357L168.523 62.1237C170.189 61.8351 171.75 61.5541 173.415 61.2655C179.978 60.2027 186.424 58.9797 192.888 58.0083C199.457 57.0293 205.921 56.0579 212.391 55.1703C215.623 54.6846 218.861 54.2827 222.099 53.8809C225.337 53.479 228.575 53.0772 231.813 52.6753C244.753 50.9001 257.734 49.7119 270.593 48.2797C273.837 47.9617 276.97 47.5674 280.214 47.2494C283.458 46.9314 286.603 46.7048 289.846 46.3868C296.235 45.8422 302.618 45.2137 309.007 44.6691C315.39 44.0406 321.791 43.6637 328.081 43.2105C334.475 42.7497 340.765 42.2965 347.055 41.8433C372.32 40.0229 397.195 38.6519 421.89 37.7154C446.48 36.7863 470.896 36.3755 494.829 36.5894C518.763 36.8033 542.423 37.6269 565.532 39.5858C571.258 40.1003 577.083 40.5233 582.716 41.213C585.582 41.5122 588.448 41.8114 591.215 42.2019C594.087 42.5849 596.855 42.9755 599.622 43.3661L603.874 43.9024L608.034 44.614C610.807 45.0885 613.574 45.479 616.347 45.9534C621.795 46.9937 627.341 47.9425 632.701 49.2419C638.055 50.4573 643.317 51.8481 648.287 53.5969L650.123 54.2231C650.77 54.4294 651.318 54.727 651.964 54.9332C652.611 55.1395 653.159 55.4371 653.806 55.6433L655.548 56.4449C656.743 56.9487 657.74 57.6354 658.941 58.2231C659.937 58.9098 661.033 59.5051 661.931 60.2831C663.721 61.7555 665.209 63.4181 665.659 65.324C666.215 67.2224 665.723 69.1963 664.589 71.0478C663.456 72.8993 661.786 74.6209 659.895 76.1899C657.998 77.675 655.892 79.1753 653.663 80.4315C649.321 83.1041 644.53 85.3877 639.722 87.4198C634.919 89.5357 629.994 91.4075 624.958 93.2031C614.985 96.7029 604.895 100.043 594.887 103.039C574.771 109.124 554.577 114.119 534.546 118.427C494.484 127.045 455.281 132.904 417.456 137.399C379.62 141.727 343.086 145.117 308.177 147.633C273.268 150.148 239.989 151.872 208.322 152.552C176.654 153.233 146.71 152.946 118.767 151.167C104.793 150.236 91.319 148.931 78.4326 146.994C72.0418 146.022 65.744 144.874 59.644 143.544C53.544 142.214 47.7407 140.609 42.1233 138.654C39.3147 137.676 36.7097 136.6 34.0988 135.44C31.5928 134.272 29.0808 133.02 26.7666 131.585C22.2431 128.709 18.3189 125.368 15.2096 121.631C13.7045 119.716 12.4089 117.787 11.5268 115.744C10.7496 113.693 10.176 111.543 10.1266 109.355C10.188 107.244 10.5639 105.11 11.365 103.029C12.2769 101.025 13.2996 99.0973 14.7534 97.307C17.5563 93.7339 21.1345 90.6949 24.8472 88.0676C28.6648 85.4327 32.6109 83.1257 36.6796 81.0627C44.823 77.0205 52.915 73.7405 60.8329 70.9788C76.5697 65.5467 90.9516 61.8135 103.488 58.8033C116.03 55.8769 126.628 53.7648 135.258 52.1316C143.888 50.4985 150.34 49.3593 154.824 48.6991C159.198 47.9626 161.492 47.6287 161.492 47.6287C191.698 42.6711 217.293 39.5627 238.928 37.0768C260.569 34.6747 278.157 33.0703 292.507 31.8677C305.495 30.7634 315.657 29.9468 323.625 29.3728C321.528 29.5238 319.222 29.69 316.915 29.8562C302.868 30.8684 285.052 32.2363 267.563 33.7493C250.08 35.3462 232.818 37.0956 220.07 38.6041C219.755 38.6268 219.441 38.6494 219.126 38.6721C228.951 37.5428 238.776 36.4135 248.612 35.4519C263.043 33.9064 277.382 32.5362 291.837 31.3261C306.286 30.0322 320.648 28.9973 335.115 27.9549C316.979 29.2617 299.052 30.5534 281.144 32.0966C288.89 31.3699 301.877 30.2656 316.967 29.094C332.162 27.9149 349.471 26.8362 365.837 25.8256C398.574 23.8881 427.474 22.8171 427.474 22.8171C418.324 23.055 400.985 23.7144 377.473 24.9871C354.066 26.2523 324.473 27.9632 291.166 30.7845C257.853 33.5219 220.715 37.2935 182.221 42.764C172.624 44.1297 162.934 45.6707 153.145 47.3031C143.356 48.9355 133.579 50.7356 123.814 52.7034C104.283 56.639 84.7013 61.3368 65.8491 67.4148C56.4814 70.5338 47.2422 73.9807 38.4757 78.1521C34.0925 80.2378 29.9367 82.5599 25.8976 85.0421C21.9693 87.6007 18.1636 90.4033 15.0225 93.6636C11.8814 96.924 9.40491 100.642 8.21604 104.689C7.34166 108.713 7.749 112.982 9.4895 116.733C11.23 120.485 13.8843 123.749 16.9343 126.647C18.5087 128.051 20.0831 129.454 21.8553 130.675C22.6426 131.377 23.6276 131.896 24.5137 132.506C25.3998 133.117 26.3848 133.636 27.265 134.162C34.9414 138.413 43.3615 141.262 51.6293 143.447C55.8186 144.578 59.996 145.541 64.1616 146.337C68.3331 147.216 72.3879 147.935 76.5416 148.563C92.842 151.097 108.529 152.41 122.818 153.319C137.212 154.221 150.405 154.534 162.013 154.793C173.616 154.969 183.838 154.991 192.156 154.897C200.473 154.803 206.996 154.67 211.417 154.605C215.838 154.539 218.255 154.449 218.255 154.449C211.114 154.795 194.923 155.288 172.055 155.25C159.509 155.142 138.418 154.892 113.318 153.077C103.363 152.361 88.1997 151.01 71.9923 148.301C63.9935 146.939 56.7166 145.356 49.7305 143.415C43.496 141.673 35.3033 139.061 27.6329 134.894C25.8784 133.925 24.1181 132.872 22.5674 131.804C22.0136 131.422 21.5646 131.033 21.0108 130.652C20.7833 130.415 20.4569 130.27 20.2295 130.034C19.4541 129.5 18.7777 128.874 17.9964 128.256L17.8856 128.18C14.6379 125.464 12.124 122.696 10.332 119.707C8.0733 116.077 7.07848 112.44 7.14386 108.896C7.19737 105.184 8.6137 101.373 10.9973 97.8305C13.096 94.7295 15.9463 91.8272 19.7342 88.7731C22.8298 86.3588 26.3506 83.9982 30.6053 81.5846C37.8052 77.6104 45.7686 74.0026 55.1126 70.5482C63.0186 67.6187 71.5714 64.8955 81.2833 62.173C89.6502 59.8003 98.4482 57.5651 108.202 55.4296C125.001 51.6065 142.884 48.2111 162.677 45.015C194.141 39.9668 228.395 35.6445 267.229 32.0036C286.069 30.2247 305.131 28.5984 325.049 27.1632C335.113 26.4381 345.287 25.7892 355.777 25.1177C380.64 23.5791 401.327 22.5941 416.662 21.9105C401.327 22.5941 380.64 23.5791 355.777 25.1177C324.618 27.0257 295.696 29.2782 267.334 31.996C228.506 35.7208 194.246 39.9592 162.782 45.0075C142.988 48.2035 125.21 51.5914 108.306 55.4221C98.6638 57.6339 89.8598 59.7852 81.3882 62.1655C71.6763 64.8879 63.1235 67.6112 55.2174 70.5406C45.9783 73.9875 37.91 77.6029 30.7101 81.5771C26.4555 83.9906 22.9346 86.3513 19.839 88.7656C16.0452 91.7358 13.2008 94.722 11.1021 97.8229C8.71853 101.366 7.3022 105.176 7.24869 108.888C7.16952 110.748 7.41078 112.669 8.07136 114.56C8.61525 116.291 9.36881 118.006 10.4428 119.783C12.2347 122.772 14.7487 125.541 18.1131 128.416L18.2239 128.493C18.9003 129.118 19.6816 129.736 20.4569 130.27C20.6844 130.507 21.0108 130.652 21.2382 130.888C21.6872 131.277 22.241 131.659 22.7948 132.04C24.3515 133.192 26.1059 134.161 27.8603 135.131C35.5308 139.298 43.6127 141.834 49.9579 143.652C56.944 145.593 64.2209 147.175 72.2198 148.537C88.4272 151.246 103.59 152.598 113.545 153.313C135.89 154.906 155.199 155.284 168.066 155.453C156.999 155.407 144.546 155.125 130.805 154.514C115.899 153.818 99.6996 152.71 82.4616 150.328C73.8457 149.179 64.9904 147.625 56.0995 145.569C51.6016 144.545 47.1967 143.345 42.7681 141.81C38.3454 140.359 33.9049 138.656 29.7492 136.512C28.6594 136 27.6685 135.397 26.6834 134.878C25.6925 134.275 24.5967 133.68 23.7106 133.07C22.7137 132.383 21.7228 131.78 20.8307 131.086C19.9387 130.392 19.0467 129.698 18.1487 128.92C14.6735 125.967 11.4831 122.573 9.3055 118.601C8.80906 117.541 8.31855 116.565 7.92694 115.497C7.78059 114.918 7.53534 114.43 7.38898 113.851L7.06069 112.189C6.79571 109.932 6.74039 107.661 7.32 105.428L7.47035 104.574C7.55738 104.315 7.64442 104.056 7.72553 103.713L8.34666 102.067L8.96778 100.421L9.33373 99.6359L9.80451 98.8435L10.752 97.3425C11.1357 96.8092 11.5254 96.3597 11.8103 95.9178C12.4788 94.9425 13.363 94.036 14.2472 93.1295C17.685 89.595 21.6825 86.5258 26.0243 83.8531C30.366 81.1805 34.9351 78.7443 39.6269 76.5521C44.3187 74.3599 49.1332 72.4118 54.0584 70.5399C58.9895 68.7518 64.0254 66.9562 69.0792 65.4122C89.2823 59.0683 110.332 54.2648 131.324 50.1396C173.321 42.0569 215.513 36.7412 254.742 32.7347C293.971 28.7282 330.459 26.1835 361.618 24.2754C392.777 22.3674 418.619 21.2639 436.581 20.4754C454.653 19.7631 464.852 19.4497 464.852 19.4497C458.328 19.5826 442.137 20.075 418.706 21.0048C395.281 22.0185 364.622 23.5533 329.387 25.9236C294.157 28.3777 254.147 31.7663 212.257 36.8916C201.809 38.15 191.164 39.5913 180.524 41.1164C169.891 42.7254 159.152 44.3419 148.327 46.2176C126.781 49.9613 105.177 54.3833 83.9833 60.1244C73.4387 62.9911 62.9178 66.1933 52.8637 70.036C42.8096 73.8787 32.8959 78.217 24.0384 84.0805C19.6096 87.0122 15.5191 90.2567 12.105 94.1267C11.6105 94.5837 11.3316 95.1095 10.9479 95.6428C10.5641 96.1761 10.0696 96.6331 9.79071 97.1589C9.12806 98.218 8.36058 99.2846 7.91353 100.412C6.699 102.607 6.03235 105.099 5.7791 107.477C5.42695 109.947 5.80863 112.363 6.49888 114.673L7.04277 116.404C7.29395 116.976 7.53921 117.464 7.79039 118.036C8.29276 119.179 8.99294 120.14 9.59421 121.192C12.3019 125.211 15.8009 128.499 19.5906 131.428L21.0364 132.504L22.5871 133.572C23.584 134.259 24.6798 134.854 25.7815 135.533C26.8772 136.129 27.973 136.724 29.0688 137.319C30.1586 137.831 31.2544 138.426 32.4491 138.93C36.9133 140.968 41.5575 142.572 46.184 143.924C55.4427 146.712 64.7411 148.57 73.9109 150.101C92.1398 153.086 109.516 154.446 125.599 155.394C141.676 156.259 156.348 156.634 169.425 156.788C182.396 156.949 193.766 156.804 203.026 156.642C212.287 156.48 219.649 156.287 224.594 156.184C229.533 155.996 232.166 155.975 232.166 155.975C226.598 156.208 210.628 156.853 186.934 157.043C175.139 157.134 161.329 157.034 146.021 156.62C130.708 156.122 113.792 155.318 95.7456 153.416C86.7221 152.465 77.3604 151.201 67.8643 149.525C58.3622 147.766 48.6148 145.518 39.1049 142.158C34.3499 140.478 29.5712 138.463 25.1703 135.83C22.9728 134.556 20.7575 133.03 18.8627 131.565C16.857 130.024 15.0552 128.384 13.2414 126.576C11.5325 124.761 9.9225 122.854 8.60919 120.673C7.28402 118.325 6.27335 115.954 5.68201 113.552C4.49339 108.665 5.58143 103.193 8.31906 98.6977C11.0508 94.1184 14.9949 90.2945 19.2951 87.0349C23.5953 83.7753 28.3445 80.9048 33.3271 78.3545C38.2048 75.8118 43.3159 73.5894 48.5378 71.4433C53.7656 69.3811 59.0053 67.4865 64.4606 65.6607C75.1674 62.108 86.1195 59.0434 97.2002 56.3066C108.281 53.5698 119.49 51.1608 130.612 49.011C141.839 46.8536 153.078 44.8639 164.23 43.1333C175.376 41.3188 186.539 39.7559 197.604 38.2845C219.734 35.3415 241.48 32.9318 262.509 30.8266C304.581 26.7839 343.695 24.1341 377.172 22.2276C410.649 20.3211 438.39 19.2493 457.838 18.6066C467.512 18.3309 475.183 18.0311 480.331 17.8286C485.486 17.7101 488.322 17.59 488.322 17.59C477.699 17.8498 450.877 18.5182 412.012 20.2229C373.054 22.1029 322.151 24.9279 263.441 30.5909C234.141 33.4606 202.891 37.0607 170.472 42.0093C154.213 44.5292 137.664 47.4073 121.051 50.8798C104.333 54.3599 87.4408 58.3582 70.6319 63.5305C62.2829 66.1547 53.9516 69.0305 45.7607 72.4019C41.6623 74.0457 37.6925 76.0173 33.7227 77.9889C29.7588 80.0443 25.9116 82.26 22.2977 84.7959C18.5732 87.2555 15.0879 90.1192 12.0516 93.372C9.12613 96.7011 6.65554 100.503 5.58336 104.71C4.51118 108.917 4.93632 113.437 6.68275 117.273C8.43512 121.192 11.1013 124.623 14.262 127.598C15.0552 128.384 15.8424 129.086 16.6296 129.788C17.4168 130.489 18.3088 131.184 19.195 131.794L20.5301 132.793L21.9641 133.701C22.8561 134.396 23.8411 134.915 24.832 135.517C28.784 137.761 32.9218 139.654 37.1467 141.288C45.6954 144.465 54.6041 146.772 63.5761 148.486C81.526 151.996 99.8874 153.876 118.097 155.092C136.41 156.301 154.671 156.755 172.803 156.881C190.935 157.008 209.032 156.631 226.906 156.101C262.65 154.959 297.688 152.771 331.426 150.087C365.165 147.403 397.603 144.223 428.212 140.501C443.569 138.636 458.384 136.557 472.774 134.425C479.966 133.316 486.948 132.223 493.814 130.97C497.25 130.385 500.685 129.801 504.016 129.224C507.341 128.563 510.672 127.986 514.003 127.408C527.204 124.856 539.77 122.265 551.585 119.475C557.495 118.122 563.294 116.693 568.884 115.279C571.679 114.572 574.369 113.872 577.053 113.089C579.743 112.39 582.433 111.69 585.013 110.914C587.598 110.222 590.177 109.447 592.657 108.762C595.138 108.078 597.612 107.31 599.982 106.549C604.832 105.104 609.362 103.598 613.792 102.183C618.223 100.768 622.438 99.2842 626.449 97.8995C630.461 96.5149 634.256 95.0615 637.947 93.6157C645.12 90.7391 651.441 87.7552 656.703 84.6792C659.333 83.1412 661.644 81.542 663.744 79.9579C664.245 79.5847 664.739 79.1277 665.234 78.6707C665.734 78.2975 666.229 77.8405 666.618 77.391C667.008 76.9416 667.503 76.4845 667.898 76.1189C668.288 75.6694 668.678 75.22 668.962 74.7781C669.16 74.5953 669.352 74.3286 669.445 74.1533C669.637 73.8867 669.73 73.7114 669.922 73.4448C670.207 73.0029 670.491 72.5609 670.776 72.119C670.956 71.6847 671.235 71.1589 671.415 70.7245C671.595 70.2902 671.775 69.8558 671.85 69.429C672.106 68.5678 672.256 67.7142 672.203 66.9595C672.254 66.1973 672.201 65.4427 672.054 64.8633C671.908 64.2839 671.762 63.7045 671.627 63.2928C671.493 62.8811 671.253 62.4769 671.131 62.2329C670.879 61.6611 670.751 61.3332 670.751 61.3332C669.315 58.9083 667.396 57.1082 665.28 55.4908C663.175 54.0412 660.978 52.7668 658.798 51.7439C654.328 49.6219 649.795 48.0945 645.273 46.7347C640.757 45.4588 636.248 44.2667 631.756 43.3262C629.507 42.814 627.264 42.3857 625.021 41.9573C622.778 41.529 620.535 41.1007 618.397 40.6648C611.778 39.4561 605.172 38.4151 598.787 37.5267C599.428 37.6491 600.063 37.6876 600.704 37.81C602.3 38.0321 604.001 38.2466 605.708 38.545L608.05 38.882C609.862 39.1728 611.674 39.4637 613.485 39.7545L617.325 40.4049L621.17 41.1392L628.86 42.6078C633.783 43.6858 639.027 44.825 644.189 46.3071C648.384 47.5219 653.885 49.3167 659.229 51.8814C660.098 52.2402 660.867 52.6905 661.637 53.1407C662.074 53.362 662.406 53.5909 662.843 53.8123L664.609 54.9492C664.72 55.0255 664.831 55.1018 664.942 55.1781C665.163 55.3307 665.379 55.3994 665.496 55.5596L666.388 56.2538C669.18 58.4966 670.919 60.7312 671.837 63.2777C672.106 64.1011 672.27 64.932 672.317 65.6028C672.377 66.4413 672.325 67.2035 672.274 67.9658L672.286 68.1335C672.123 68.8194 671.961 69.5053 671.799 70.1912C671.532 70.8847 671.265 71.5781 670.893 72.2792C669.405 75.0833 667.236 77.178 665.356 78.9147C660.987 82.6849 656.226 85.3878 651.651 87.7401C647.384 89.9859 642.681 92.0104 637.045 94.2706C632.126 96.2263 627.096 98.1058 622.048 99.7337C614.643 102.29 606.608 104.892 596.6 107.888C595.569 108.215 594.538 108.542 593.502 108.786C592.984 108.907 592.471 109.113 591.848 109.242C589.059 110.033 586.375 110.816 583.586 111.607C582.655 111.843 581.624 112.17 580.483 112.421C578.416 112.991 576.349 113.561 574.276 114.048C573.758 114.169 573.24 114.291 572.727 114.496C569.624 115.31 566.52 116.124 563.411 116.853C563.207 116.952 562.893 116.975 562.689 117.074C559.894 117.781 557.198 118.397 554.403 119.104C553.99 119.218 553.577 119.332 553.157 119.362C551.084 119.848 549.011 120.335 546.834 120.829C545.902 121.065 544.964 121.216 544.033 121.452C542.268 121.832 540.609 122.205 538.74 122.592C534.279 123.588 529.813 124.499 524.927 125.441C518.697 126.733 512.146 127.964 505.28 129.217C504.343 129.369 503.51 129.513 502.578 129.749C501.536 129.908 500.395 130.159 499.352 130.318C492.376 131.495 485.196 132.771 477.585 133.909C458.408 136.892 439.313 139.532 420.712 141.715C400.539 144.012 378.991 146.239 356.586 148.274C340.564 149.682 325.061 150.967 309.965 152.055C276.314 154.48 244.817 156.075 214.839 156.802C187.703 157.493 163.677 157.455 141.391 156.701C127.761 156.166 115.913 155.502 104.996 154.603C92.0646 153.512 80.3669 151.996 69.3794 150.09C62.8719 148.958 57.2031 147.765 52.0525 146.451C45.9347 144.869 40.5448 143.15 35.4575 141.241C29.496 138.89 24.472 136.386 20.2571 133.403C15.3775 129.962 11.5344 126.278 8.61706 122.274C5.22696 117.546 3.69419 112.263 4.18882 107.339C4.51724 104.534 5.28279 101.95 6.49732 99.756L6.96217 98.8797L7.53185 97.9959L8.89274 96.3808L10.1488 94.7733C10.5325 94.24 11.0211 93.6991 11.4108 93.2496C14.5341 89.7377 18.4149 86.5084 23.449 83.1959C27.6799 80.447 32.1383 77.9345 36.8301 75.7423C44.572 71.9819 53.287 68.5728 64.0987 65.0125C72.0284 62.4185 80.5931 59.863 90.2179 57.3996C98.0784 55.3162 106.271 53.4617 114.47 51.6911C122.15 50.0421 129.528 48.5834 136.283 47.2539C161.864 42.461 181.169 39.8058 191.605 38.3796C192.333 38.2429 193.067 38.19 193.69 38.0608C193.69 38.0608 197.033 37.6514 203.083 36.7941C206.111 36.4073 209.874 35.9677 214.154 35.4064L228.993 33.663C238.194 32.6629 252.2 31.0638 267.901 29.5953C283.603 28.1269 299.939 26.697 316.391 25.4272C319.536 25.2006 322.576 24.9815 325.721 24.7549C358.219 22.4133 393.275 20.4774 427.836 18.9985C461.349 17.5951 497.413 16.5136 534.882 15.9208C497.413 16.5136 461.343 17.5113 427.83 18.9146C393.269 20.3935 358.214 22.3295 325.715 24.6711C322.571 24.8977 319.426 25.1243 316.385 25.3434C299.933 26.6131 283.591 27.9592 267.895 29.5115C252.089 30.9875 238.083 32.5866 228.987 33.5792L214.043 35.3301C209.658 35.8989 206.001 36.331 202.972 36.7178C196.922 37.5751 193.579 37.9845 193.579 37.9845C192.956 38.1137 192.222 38.1666 191.494 38.3033C181.163 39.7219 161.858 42.3771 136.172 47.1776C129.418 48.5071 122.034 49.8819 114.359 51.6148C106.16 53.3854 97.9736 55.3238 90.1072 57.3233C80.4823 59.7867 71.9176 62.3422 63.9879 64.9363C53.1762 68.4965 44.572 71.9819 36.7194 75.666C32.0276 77.8582 27.5691 80.3707 23.3382 83.1196C18.3042 86.4321 14.4233 89.6614 11.3 93.1733C10.8055 93.6304 10.4218 94.1637 10.038 94.697L8.89274 96.3808L7.74745 98.0646L7.17777 98.9485L6.71292 99.8247C5.49839 102.019 4.73284 104.603 4.40442 107.408C3.79902 112.255 5.44256 117.615 8.83266 122.343C11.75 126.347 15.4883 130.038 20.4727 133.472C24.7925 136.447 29.7175 139.042 35.679 141.394C40.7723 143.387 46.267 145.098 52.274 146.603C57.4246 147.918 63.0934 149.111 69.6009 150.243C80.5885 152.148 92.2802 153.581 105.218 154.756C116.134 155.655 127.988 156.402 141.613 156.853C163.158 157.576 186.346 157.675 212.434 157.06C217.483 156.949 231.264 156.63 251.538 155.759C270.653 154.888 290.17 153.734 309.564 152.337C312.08 152.155 314.701 151.967 317.217 151.785C343.943 149.775 371.688 147.271 399.508 144.339C431.195 140.96 461.152 136.948 488.545 132.445C502.812 130.069 517.474 127.327 532.218 124.242C536.16 123.368 540.213 122.57 544.149 121.612C544.254 121.605 544.458 121.506 544.563 121.498C545.39 121.27 546.118 121.133 546.944 120.905C549.431 120.305 551.923 119.788 554.409 119.187C556.482 118.701 558.765 118.199 561.041 117.614C561.664 117.485 562.183 117.363 562.8 117.15C563.004 117.051 563.318 117.029 563.522 116.93C566.94 116.093 570.043 115.28 572.838 114.573C573.048 114.558 573.251 114.459 573.461 114.444C573.77 114.337 574.078 114.231 574.498 114.2C576.774 113.615 578.841 113.045 580.704 112.573C581.741 112.33 582.771 112.003 583.808 111.76C583.913 111.752 583.913 111.752 584.018 111.745C589.287 110.269 591.971 109.486 591.971 109.486L592.076 109.478C592.489 109.364 593.007 109.243 593.415 109.045C594.55 108.71 595.686 108.375 596.821 108.041C601.566 106.603 606.311 105.166 610.946 103.652C612.39 103.211 613.828 102.686 615.272 102.245C616.197 101.925 617.123 101.606 618.049 101.286L619.592 100.753C620.517 100.434 621.338 100.122 622.165 99.8938C624.016 99.2547 625.973 98.6081 627.923 97.8777C633.78 95.7701 638.909 93.7992 643.606 91.6909C649.02 89.2781 653.601 87.0096 657.442 84.7102C657.745 84.5198 657.949 84.4209 658.251 84.2305C658.554 84.0401 658.758 83.9412 659.06 83.7508C659.561 83.3776 660.067 83.0883 660.568 82.7152C661.574 82.0527 662.575 81.3063 663.477 80.6514L663.582 80.6438C664.286 80.1717 664.88 79.6233 665.473 79.0748C665.77 78.8006 666.067 78.5264 666.369 78.3361C666.759 77.8866 667.259 77.5134 667.649 77.0639L668.236 76.4317L668.818 75.7155C670.482 73.9101 671.591 71.7232 672.276 69.4826C672.264 69.3149 672.363 69.2235 672.351 69.0558C672.426 68.629 672.6 68.1108 672.57 67.6915C672.634 67.097 672.592 66.5101 672.551 65.9231C672.737 65.5726 672.707 65.1534 672.578 64.8255ZM212.657 39.5597C211.404 39.7342 210.251 39.8173 209.209 39.9767C210.356 39.8097 211.509 39.7266 212.657 39.5597ZM90.5694 77.264C90.8721 77.0736 91.2795 76.8757 91.687 76.6778C91.2795 76.8757 90.8721 77.0736 90.5694 77.264ZM94.8419 75.102C95.9654 74.5997 97.0889 74.0973 98.4221 73.5799C96.99 74.1887 95.6628 74.79 94.4344 75.2999C94.5333 75.2085 94.743 75.1934 94.8419 75.102ZM567.464 34.137C566.614 34.0297 565.769 34.0063 564.919 33.899C571.064 34.3833 577.006 34.9665 582.738 35.5648L583.163 35.6184C585.604 35.864 588.051 36.1933 590.492 36.4389C592.193 36.6534 593.894 36.868 595.49 37.0901C596.34 37.1973 597.302 37.3809 598.257 37.4806C598.473 37.5494 598.787 37.5267 599.003 37.5954C588.15 36.1019 577.641 35.005 567.464 34.137ZM525.155 125.678C525.469 125.655 525.778 125.549 526.197 125.518C524.328 125.906 522.564 126.286 520.689 126.59C522.144 126.316 523.699 125.951 525.155 125.678ZM505.508 129.453C508.419 128.906 511.226 128.367 513.934 127.919C510.917 128.474 508.006 129.02 504.989 129.575C505.193 129.476 505.298 129.468 505.508 129.453ZM488.649 132.438C461.262 137.024 431.306 141.036 399.718 144.324C371.897 147.255 344.152 149.76 317.426 151.77C314.91 151.952 312.289 152.14 309.773 152.322C290.275 153.727 270.863 154.872 251.748 155.744C233.681 156.54 220.745 156.882 214.641 156.985C214.851 156.97 215.06 156.955 215.27 156.94C245.242 156.129 276.64 154.625 310.396 152.192C325.387 151.112 340.891 149.827 357.017 148.412C379.422 146.376 400.976 144.233 421.143 141.853C439.744 139.67 458.845 137.114 478.016 134.047C485.522 132.916 492.807 131.633 499.783 130.456C500.616 130.311 501.449 130.167 502.386 130.015C497.495 130.873 493.023 131.701 488.649 132.438ZM532.218 124.242C531.49 124.379 530.867 124.508 530.139 124.644C533.15 124.006 536.055 123.375 538.856 122.752C540.312 122.479 541.657 122.129 543.008 121.863C539.485 122.707 535.852 123.474 532.218 124.242ZM553.07 119.621C552.965 119.629 552.86 119.636 552.762 119.728C552.86 119.636 552.965 119.629 553.07 119.621ZM556.593 118.777C557.734 118.527 558.771 118.283 559.906 117.949C558.771 118.283 557.629 118.534 556.593 118.777ZM672.681 67.7678C672.606 68.1947 672.537 68.7053 672.462 69.1321C672.473 69.2998 672.375 69.3912 672.386 69.5589C671.807 71.7919 670.592 73.9864 668.929 75.7918L668.347 76.508L667.76 77.1402C667.37 77.5897 666.87 77.9629 666.48 78.4124C666.183 78.6866 665.881 78.8769 665.584 79.1511C664.99 79.6996 664.397 80.248 663.693 80.7201L663.588 80.7277C662.692 81.4665 661.685 82.129 660.678 82.7915C660.178 83.1646 659.672 83.4539 659.171 83.8271C658.869 84.0175 658.665 84.1164 658.362 84.3068C658.06 84.4972 657.856 84.5961 657.553 84.7865C653.607 87.0935 649.137 89.4383 643.717 91.7672C639.013 93.7917 633.891 95.8464 628.034 97.9539C626.188 98.6769 624.232 99.3235 622.276 99.9701C621.455 100.282 620.523 100.518 619.702 100.83L618.16 101.362C617.234 101.682 616.308 102.001 615.382 102.321C613.939 102.762 612.501 103.287 611.057 103.728C610.853 103.827 610.748 103.835 610.538 103.85C614.661 102.542 618.573 101.248 622.27 99.8863C627.312 98.1745 632.348 96.3789 637.267 94.4232C642.902 92.163 647.6 90.0547 651.872 87.8927C656.448 85.5404 661.208 82.8375 665.578 79.0673C667.463 77.4145 669.627 75.2359 671.114 72.4318C671.486 71.7307 671.748 70.9534 672.02 70.3438C672.183 69.6579 672.345 68.972 672.507 68.2861L672.495 68.1183C672.547 67.3561 672.493 66.6015 672.539 65.7554C672.387 65.0922 672.222 64.2612 672.058 63.4303C671.245 60.8762 669.507 58.6417 666.609 56.4064L665.717 55.7122C665.496 55.5596 665.379 55.3994 665.163 55.3307C665.053 55.2544 664.942 55.1781 664.831 55.1018L663.065 53.9649C662.628 53.7435 662.295 53.5146 661.858 53.2933C661.089 52.8431 660.214 52.4004 659.451 52.034C654.107 49.4693 648.606 47.6745 644.411 46.4597C639.248 44.9776 633.999 43.7545 629.082 42.7604L621.601 41.2767L617.54 40.4737L613.701 39.8232C611.889 39.5324 610.077 39.2416 608.266 38.9507L605.924 38.6138C604.223 38.3992 602.516 38.1008 600.919 37.8787C600.069 37.7715 599.114 37.6717 598.152 37.4882C597.197 37.3885 596.346 37.2812 595.385 37.0976C593.789 36.8755 592.088 36.661 590.387 36.4464C587.946 36.2009 585.499 35.8715 583.059 35.626L582.633 35.5724C563.945 33.5478 543.832 32.2158 521.336 31.4769C502.644 30.8853 483.138 30.6896 461.657 30.8889C441.871 31.2189 422.628 31.7627 404.45 32.4825C401.404 32.6177 398.358 32.7529 395.312 32.8881C393.739 33.0014 392.161 33.0309 390.589 33.1442C389.016 33.2575 387.333 33.2945 385.76 33.4078C382.819 33.5354 379.878 33.6631 376.943 33.8746L363.617 34.6662C361.94 34.787 360.361 34.8165 358.789 34.9298L357.007 35.0582L350.402 35.5341C350.088 35.5567 349.773 35.5794 349.459 35.6021C344.846 35.9344 340.233 36.2668 335.83 36.584C323.355 37.4829 311.503 38.2526 299.885 39.3426C297.06 39.6304 294.125 39.8419 291.399 40.0383C286.059 40.5074 281.138 40.9462 276.112 41.3927L269.414 42.0438C263.975 42.6043 258.64 43.1572 253.306 43.7102C251.949 43.8922 250.691 43.9828 249.433 44.0735C247.132 44.3235 244.727 44.5811 242.427 44.8311C238.874 45.2556 235.427 45.6726 231.979 46.0896L231.769 46.1047C229.056 46.4688 226.336 46.749 223.727 47.1056L221.427 47.3556L221.007 47.3858C217.664 47.7952 214.531 48.1895 211.404 48.6677C204.835 49.6467 198.47 50.5267 192.315 51.3916C190.329 51.619 188.25 52.0216 186.27 52.3328C185.228 52.4922 184.29 52.6441 183.248 52.8034L179.602 53.4032C177.937 53.6918 176.167 53.9879 174.501 54.2765C173.459 54.4358 172.521 54.5877 171.479 54.7471C169.604 55.0507 167.938 55.3393 166.174 55.7192C164.409 56.0992 162.534 56.4029 160.77 56.7828L158.173 57.3071C156.199 57.7022 154.225 58.0972 152.251 58.4923L150.585 58.7809C149.025 59.0619 147.365 59.4343 145.915 59.7916C145.089 60.0197 144.256 60.164 143.429 60.3921C134.508 62.3833 126.118 64.4206 118.689 66.6415C111.771 68.6569 105.693 70.6119 100.774 72.5676C100.36 72.6817 100.058 72.8721 99.6445 72.9861C100.36 72.6817 101.077 72.3773 101.897 72.0653C112.976 67.8116 128.784 63.3857 146.428 59.5861C165.521 55.4292 188.325 51.5948 213.995 48.0596C218.171 47.5059 222.247 47.0436 226.633 46.4748C228.933 46.2248 231.332 45.8834 233.737 45.6258L237.185 45.2088C239.381 44.9663 241.675 44.6324 243.975 44.3824L254.33 43.2992L275.669 41.0875C280.38 40.6637 285.196 40.2324 289.803 39.8162C292.319 39.6349 295.039 39.3547 297.66 39.1658C301.323 38.8176 305.097 38.5457 308.865 38.1899L309.494 38.1446C312.947 37.8114 316.616 37.5471 320.181 37.2903L323.955 37.0183C330.245 36.5651 336.639 36.1043 343.034 35.6436C344.292 35.5529 345.655 35.4547 346.913 35.3641C353.203 34.9109 359.807 34.435 366.313 34.0505L368.934 33.8617C371.974 33.6426 375.02 33.5074 378.06 33.2884C380.576 33.1071 383.203 33.0021 385.725 32.9047C387.088 32.8065 388.456 32.7921 389.819 32.6939C424.887 30.9257 455.598 30.1455 483.632 30.2326C517.677 30.3921 546.528 31.6002 571.873 33.9036C576.958 34.2957 582.056 34.8555 586.943 35.4304C588.644 35.6449 590.45 35.8519 592.145 35.9826C593.846 36.1972 595.658 36.488 597.254 36.7101C602.148 37.3688 606.721 37.9664 611.416 38.808C616.636 39.6117 621.658 40.5983 626.57 41.5086C627.531 41.6922 628.597 41.8682 629.558 42.0518C635.979 43.4433 641.555 44.8114 646.507 46.3087L647.801 46.7211C648.017 46.7899 648.337 46.851 648.663 46.9961C649.415 47.1948 650.277 47.4698 651.466 47.8898L654.059 48.7985L654.386 48.9436C655.254 49.3024 656.227 49.6537 657.206 50.0888C657.964 50.3713 658.727 50.7377 659.601 51.1804C660.038 51.4017 660.47 51.5392 660.802 51.7681C661.239 51.9894 661.676 52.2108 662.119 52.516C662.341 52.6686 662.556 52.7373 662.778 52.8899L663.769 53.4927C663.99 53.6453 664.212 53.7979 664.433 53.9505C664.544 54.0268 664.655 54.1031 664.766 54.1794C666.311 55.1637 667.652 56.247 668.998 57.4141C669.115 57.5743 669.343 57.8107 669.459 57.9709C669.92 58.5276 670.48 58.9929 670.953 59.7174C671.192 60.1215 671.536 60.5181 671.886 60.9986C672.131 61.4866 672.377 61.9746 672.622 62.4626C672.628 62.5464 672.739 62.6227 672.745 62.7066C672.861 62.8667 672.873 63.0344 672.99 63.1946C673.002 63.3623 673.118 63.5224 673.13 63.6901C673.136 63.774 673.148 63.9417 673.259 64.018C673.271 64.1857 673.283 64.3534 673.399 64.5135C673.534 64.9252 673.563 65.3445 673.587 65.6799C672.703 66.5864 672.744 67.1733 672.681 67.7678ZM600.949 106.816C601.566 106.603 602.084 106.482 602.702 106.269C602.084 106.482 601.467 106.695 600.949 106.816Z" fill="#32D989"/>
<path d="M11.1219 110.042C11.0745 109.371 11.1318 108.693 11.1892 108.014C11.1714 107.763 11.2585 107.504 11.2407 107.252C11.5532 105.712 11.935 103.662 12.9636 101.818C13.2307 101.125 13.7133 100.5 14.0971 99.9668C14.2889 99.7002 14.3819 99.5249 14.5738 99.2582C14.9575 98.7249 15.3412 98.1916 15.8298 97.6507C16.0217 97.3841 16.3184 97.1099 16.5103 96.8432C16.807 96.569 16.9988 96.3023 17.2955 96.0281C17.79 95.5711 18.1738 95.0378 18.6683 94.5807C18.965 94.3065 19.2617 94.0323 19.5584 93.7581C20.0529 93.3011 20.5474 92.8441 21.1467 92.3795C24.2245 89.7136 27.9432 87.1702 32.1979 84.7567C36.4525 82.3431 40.5213 80.2801 44.5089 78.5601C45.8361 77.9588 47.2682 77.3499 48.7003 76.741C49.4163 76.4366 50.2372 76.1246 50.9532 75.8202C51.774 75.5082 52.4901 75.2038 53.3109 74.8918C54.6441 74.3744 56.0762 73.7655 57.5201 73.3244C65.5309 70.3873 74.0837 67.6641 83.9005 64.9341C92.477 62.5463 101.38 60.3035 110.097 58.4113C125.242 55.0445 141.454 51.8537 159.89 48.8397C191.866 43.5859 219.872 40.3038 240.681 38.046C259.818 35.9929 273.743 34.7367 281.18 34.1166C282.018 34.0561 282.857 33.9957 283.486 33.9504C282.857 33.9957 282.018 34.0561 281.18 34.1166C273.743 34.7367 259.818 35.9929 240.681 38.046C219.872 40.3038 191.866 43.5859 159.89 48.8397C141.454 51.8537 125.137 55.052 110.097 58.4113C100.955 60.2499 92.1566 62.4851 83.58 64.8729C73.8681 67.5954 65.2105 70.3262 57.1997 73.2632C55.7617 73.7882 54.3237 74.3132 52.9905 74.8306C52.2745 75.1351 51.4536 75.447 50.6328 75.759C49.9167 76.0634 49.0959 76.3754 48.3798 76.6799C47.0526 77.2812 45.6146 77.8062 44.1885 78.4989C40.2008 80.2189 36.1321 82.2819 31.8774 84.6955C27.6228 87.109 23.9041 89.6524 20.8263 92.3183C20.3318 92.7753 19.7325 93.2399 19.238 93.6969C18.9413 93.9711 18.6446 94.2453 18.3479 94.5195C17.8534 94.9766 17.3648 95.5174 16.9751 95.9669C16.6784 96.2411 16.4865 96.5078 16.1898 96.782C15.998 97.0487 15.8061 97.3153 15.5094 97.5895C15.1257 98.1229 14.6371 98.6637 14.2533 99.1971C14.0615 99.4637 13.9685 99.639 13.7766 99.9056C13.6085 100.508 13.2307 101.125 12.9636 101.818C11.935 103.662 11.4484 105.72 11.2407 107.252C11.2585 107.504 11.1714 107.763 11.1892 108.014C11.1318 108.693 11.0745 109.371 11.1219 110.042C11.1338 110.209 11.1456 110.377 11.1575 110.545C11.1812 110.88 11.199 111.132 11.2227 111.467L11.5332 112.878C12.2947 116.194 14.3259 119.587 17.5163 122.981C17.9712 123.454 18.4261 123.927 18.9859 124.392C19.2134 124.629 19.5516 124.942 19.779 125.178L22.2455 127.276L24.8109 129.282C25.1432 129.511 25.4754 129.74 25.8077 129.969C26.3616 130.35 26.9154 130.732 27.574 131.106C31.1007 133.296 35.1337 135.196 39.8946 136.96C47.4761 139.869 56.2799 142.185 67.3901 144.334C75.9368 145.994 85.3045 147.342 95.8193 148.522C112.596 150.347 130.374 151.426 151.908 151.982C168.689 152.374 185.872 152.484 204.289 152.168C218.809 151.881 233.638 151.487 251.076 150.736C276.388 149.586 297.681 148.22 313.091 147.11C315.712 146.921 318.228 146.74 320.534 146.574C336.987 145.304 346.625 144.525 346.73 144.518C346.625 144.525 337.098 145.38 320.534 146.574C318.228 146.74 315.712 146.921 313.091 147.11C297.681 148.22 276.388 149.586 251.076 150.736C225.129 151.847 190.439 152.998 151.914 152.065C130.485 151.503 112.707 150.424 95.8252 148.606C85.2056 147.433 75.9428 146.078 67.396 144.418C56.2859 142.269 47.5809 139.862 39.9005 137.044C35.1337 135.196 31.1007 133.296 27.58 131.19C26.9213 130.816 26.3675 130.434 25.8137 130.053C25.4814 129.824 25.1491 129.595 24.8168 129.366L22.2514 127.36L19.6683 125.102C19.4408 124.865 19.1026 124.553 18.8751 124.316C18.4202 123.843 17.8605 123.378 17.4055 122.905C14.2152 119.511 12.2887 116.11 11.4225 112.801L11.112 111.391C11.0883 111.056 11.0705 110.804 11.0467 110.469C11.1456 110.377 11.1338 110.209 11.1219 110.042Z" fill="#32D989"/>
</g>
<defs>
<clipPath id="clip0_1266_570">
<rect width="669.829" height="126.175" fill="white" transform="matrix(0.997414 -0.0718674 0.0705623 0.997507 0 48.1396)"/>
</clipPath>
</defs>
</svg>
