<svg width="22" height="22" viewBox="0 0 22 22" fill="none" xmlns="http://www.w3.org/2000/svg">
<path fill-rule="evenodd" clip-rule="evenodd" d="M0 4.65187C0 2.07661 2.07662 0 4.65188 0H7.05215L17.3481 2.00272e-05C19.9234 2.00272e-05 22 2.07663 22 4.65189V17.3481C22 19.9234 19.9234 22 17.3481 22H13.51V12.1813H16.4781L16.5166 11.3663H13.51V8.31065C13.51 7.9194 13.5333 7.28887 13.9309 6.78112C14.3789 6.20905 15.0588 6.06689 15.6875 6.06689C15.9766 6.06689 16.2581 6.06765 16.5094 6.06872L16.5272 5.36335C16.2509 5.3482 15.9251 5.33687 15.5688 5.33687C14.3739 5.33687 13.6425 5.69938 13.2096 6.14078C12.7682 6.59069 12.5331 7.22815 12.5331 7.96125V11.3662H10.4656V12.1812H12.5331V22H4.65188C2.07662 22 0 19.9234 0 17.3481V4.65187ZM17.5506 4.44625L17.6794 3.45458L18.573 3.57059L18.4593 8.08427L17.4749 8.07496L17.3275 8.07371C17.2328 8.07295 17.0967 8.07194 16.9314 8.07093C16.6007 8.06891 16.1536 8.06689 15.6875 8.06689C15.6164 8.06689 15.5611 8.0702 15.5191 8.07458C15.5136 8.13159 15.51 8.20809 15.51 8.31065V9.36626H18.6134L18.3857 14.1813H15.51V20H17.3481C18.8188 20 20 18.8188 20 17.3481V4.65189C20 3.1812 18.8188 2.00002 17.3481 2.00002H4.64139C3.17557 2.00562 2 3.18468 2 4.65187V17.3481C2 18.8188 3.18118 20 4.65188 20H10.5331V14.1812H8.46564V9.36624H10.5331V7.96125C10.5331 6.80485 10.9089 5.63012 11.7818 4.74022C12.6631 3.8418 13.9495 3.33687 15.5688 3.33687C16.1695 3.33687 16.6913 3.36567 17.0642 3.39455C17.251 3.40902 17.4013 3.42358 17.5065 3.43473C17.5592 3.44031 17.6006 3.44504 17.6298 3.44849L17.6642 3.45265L17.6742 3.45391L17.6774 3.45432L17.6794 3.45458C17.6795 3.45459 17.6794 3.45458 17.5506 4.44625Z" fill="#8770FF"/>
</svg>
