<svg width="22" height="22" viewBox="0 0 22 22" fill="none" xmlns="http://www.w3.org/2000/svg">
<path fill-rule="evenodd" clip-rule="evenodd" d="M0 11C0 4.89809 5.02996 0 11.2025 0C14.2163 0 16.757 1.08796 18.7123 2.87575L19.5063 3.6018L15.2701 7.60371L14.5833 6.95384C13.9753 6.37847 12.8827 5.6875 11.2025 5.6875C8.27082 5.6875 5.87885 8.06837 5.87885 10.9994C5.87885 13.9303 8.2714 16.3113 11.2025 16.3113C13.6647 16.3113 14.974 15.0953 15.5828 13.9981H10.2025V8.57056L21.6741 8.5713L21.8217 9.39485C21.9161 9.92152 22 10.4875 22 11.2281C22 14.3185 20.9393 17.0246 19.0195 18.9614C17.0981 20.8997 14.3831 22 11.2025 22C5.02996 22 0 17.1019 0 11ZM11.2025 2C6.09614 2 2 6.04066 2 11C2 15.9593 6.09614 20 11.2025 20C13.9099 20 16.0936 19.0721 17.5991 17.5534C19.106 16.0332 20 13.8533 20 11.2281C20 10.9894 19.9892 10.7745 19.9704 10.5712L12.2025 10.5707V11.9981H18.1642L17.9785 13.1565C17.6847 14.9881 15.8482 18.3113 11.2025 18.3113C7.17289 18.3113 3.87885 15.0409 3.87885 10.9994C3.87885 6.95788 7.17219 3.6875 11.2025 3.6875C12.9562 3.6875 14.2859 4.2511 15.2189 4.90072L16.523 3.66876C15.0634 2.61801 13.2842 2 11.2025 2Z" fill="#8770FF"/>
</svg>
