<svg width="80" height="19" viewBox="0 0 80 19" fill="none" xmlns="http://www.w3.org/2000/svg">
<path d="M8 4L9.79611 9.52786H15.6085L10.9062 12.9443L12.7023 18.4721L8 15.0557L3.29772 18.4721L5.09383 12.9443L0.391548 9.52786H6.20389L8 4Z" fill="#32D989"/>
<path d="M24 4L25.7961 9.52786H31.6085L26.9062 12.9443L28.7023 18.4721L24 15.0557L19.2977 18.4721L21.0938 12.9443L16.3915 9.52786H22.2039L24 4Z" fill="#32D989"/>
<path d="M40 4L41.7961 9.52786H47.6085L42.9062 12.9443L44.7023 18.4721L40 15.0557L35.2977 18.4721L37.0938 12.9443L32.3915 9.52786H38.2039L40 4Z" fill="#32D989"/>
<path d="M56 4L57.7961 9.52786H63.6085L58.9062 12.9443L60.7023 18.4721L56 15.0557L51.2977 18.4721L53.0938 12.9443L48.3915 9.52786H54.2039L56 4Z" fill="#32D989"/>
<path d="M72 4L73.7961 9.52786H79.6085L74.9062 12.9443L76.7023 18.4721L72 15.0557L67.2977 18.4721L69.0938 12.9443L64.3915 9.52786H70.2039L72 4Z" fill="#32D989"/>
</svg>
