<svg width="60" height="60" viewBox="0 0 60 60" fill="none" xmlns="http://www.w3.org/2000/svg">
<path d="M37.3809 4.76159C37.1469 4.51514 36.8261 4.36719 36.4936 4.36719H16.5864C12.913 4.36719 9.88086 7.38727 9.88086 11.0603V48.7049C9.88086 52.3783 12.913 55.3984 16.5864 55.3984H43.6056C47.279 55.3984 50.3112 52.3783 50.3112 48.7049V18.8135C50.3112 18.4931 50.1632 18.1851 49.9537 17.9508L37.3809 4.76159ZM37.7383 8.71842L46.1573 17.5564H40.6844C39.0574 17.5564 37.7383 16.2498 37.7383 14.6227V8.71842ZM43.6056 52.9331H16.5864C14.2815 52.9331 12.3461 51.0226 12.3461 48.7049V11.0603C12.3461 8.7554 14.2691 6.83247 16.5864 6.83247H35.273V14.6227C35.273 17.6179 37.6892 20.0216 40.6844 20.0216H47.8459V48.7049C47.8459 51.0226 45.9229 52.9331 43.6056 52.9331Z" fill="#32D989"/>
<path d="M40.2405 44.4277H19.9514C19.2736 44.4277 18.7188 44.9822 18.7188 45.6604C18.7188 46.3382 19.2736 46.893 19.9514 46.893H40.253C40.9308 46.893 41.4856 46.3382 41.4856 45.6604C41.4856 44.9822 40.9308 44.4277 40.2405 44.4277Z" fill="#32D989"/>
<path d="M29.1959 40.0029C29.4303 40.2494 29.7507 40.3973 30.0956 40.3973C30.441 40.3973 30.7614 40.2494 30.9954 40.0029L38.2188 32.2497C38.6871 31.7564 38.6501 30.9676 38.1572 30.5117C37.6639 30.0433 36.8752 30.0799 36.4192 30.5732L31.3283 36.0336V22.5735C31.3283 21.8952 30.7735 21.3408 30.0956 21.3408C29.4178 21.3408 28.863 21.8952 28.863 22.5735V36.0336L23.7845 30.5732C23.3161 30.0803 22.5394 30.0433 22.0465 30.5117C21.5536 30.98 21.5166 31.7567 21.985 32.2497L29.1959 40.0029Z" fill="#32D989"/>
</svg>
